<?xml version="1.0" encoding="UTF-8" standalone="no"?>
<!DOCTYPE svg PUBLIC "-//W3C//DTD SVG 1.1//EN" "http://www.w3.org/Graphics/SVG/1.1/DTD/svg11.dtd">
<!-- Created with matplotlib (https://matplotlib.org/) -->
<svg height="345.6pt" version="1.1" viewBox="0 0 460.8 345.6" width="460.8pt" xmlns="http://www.w3.org/2000/svg" xmlns:xlink="http://www.w3.org/1999/xlink">
 <metadata>
  <rdf:RDF xmlns:cc="http://creativecommons.org/ns#" xmlns:dc="http://purl.org/dc/elements/1.1/" xmlns:rdf="http://www.w3.org/1999/02/22-rdf-syntax-ns#">
   <cc:Work>
    <dc:type rdf:resource="http://purl.org/dc/dcmitype/StillImage"/>
    <dc:date>2021-01-23T00:54:07.866642</dc:date>
    <dc:format>image/svg+xml</dc:format>
    <dc:creator>
     <cc:Agent>
      <dc:title>Matplotlib v3.3.2, https://matplotlib.org/</dc:title>
     </cc:Agent>
    </dc:creator>
   </cc:Work>
  </rdf:RDF>
 </metadata>
 <defs>
  <style type="text/css">*{stroke-linecap:butt;stroke-linejoin:round;}</style>
 </defs>
 <g id="figure_1">
  <g id="patch_1">
   <path d="M 0 345.6  L 460.8 345.6  L 460.8 0  L 0 0  z " style="fill:#ffffff;"/>
  </g>
  <g id="axes_1">
   <g id="patch_2">
    <path d="M 57.6 307.584  L 414.72 307.584  L 414.72 41.472  L 57.6 41.472  z " style="fill:#ffffff;"/>
   </g>
   <g id="PolyCollection_1">
    <defs>
     <path d="M 73.832727 -55.130873  L 73.832727 -55.130873  L 83.572364 -58.264056  L 93.312 -63.271961  L 103.051636 -68.719419  L 112.791273 -74.028227  L 122.530909 -79.045257  L 132.270545 -83.679566  L 142.010182 -87.855681  L 151.749818 -86.943024  L 161.489455 -93.722453  L 171.229091 -101.481834  L 180.968727 -110.396265  L 190.708364 -111.283403  L 200.448 -111.866699  L 210.187636 -112.458327  L 219.927273 -112.405068  L 229.666909 -111.307726  L 239.406545 -109.021334  L 249.146182 -105.68203  L 258.885818 -101.678814  L 268.625455 -97.421584  L 278.365091 -93.222932  L 288.104727 -89.226723  L 297.844364 -85.522016  L 307.584 -82.08499  L 317.323636 -78.90592  L 327.063273 -75.953605  L 336.802909 -73.205186  L 346.542545 -70.609184  L 356.282182 -67.964492  L 366.021818 -64.882975  L 375.761455 -60.855903  L 385.501091 -55.531881  L 395.240727 -50.112  L 395.240727 -50.112  L 395.240727 -50.112  L 385.501091 -55.531881  L 375.761455 -60.855903  L 366.021818 -64.882975  L 356.282182 -67.964492  L 346.542545 -70.609184  L 336.802909 -73.205186  L 327.063273 -75.953605  L 317.323636 -78.90592  L 307.584 -82.08499  L 297.844364 -85.522016  L 288.104727 -89.226723  L 278.365091 -93.222932  L 268.625455 -97.421584  L 258.885818 -101.678814  L 249.146182 -105.68203  L 239.406545 -109.021334  L 229.666909 -111.307726  L 219.927273 -112.405068  L 210.187636 -112.458327  L 200.448 -111.866699  L 190.708364 -111.283403  L 180.968727 -110.396265  L 171.229091 -101.481834  L 161.489455 -93.722453  L 151.749818 -86.943024  L 142.010182 -87.855681  L 132.270545 -83.679566  L 122.530909 -79.045257  L 112.791273 -74.028227  L 103.051636 -68.719419  L 93.312 -63.271961  L 83.572364 -58.264056  L 73.832727 -55.130873  z " id="m76637dbfcf" style="stroke:#0000ff;stroke-opacity:0.2;"/>
    </defs>
    <g clip-path="url(#p4dfebb6503)">
     <use style="fill:#0000ff;fill-opacity:0.2;stroke:#0000ff;stroke-opacity:0.2;" x="0" xlink:href="#m76637dbfcf" y="345.6"/>
    </g>
   </g>
   <g id="PolyCollection_2">
    <defs>
     <path d="M 73.832727 -186.547609  L 73.832727 -100.239217  L 83.572364 -100.086383  L 93.312 -101.069406  L 103.051636 -102.592266  L 112.791273 -103.745465  L 122.530909 -104.612214  L 132.270545 -105.425501  L 142.010182 -106.249631  L 151.749818 -122.692591  L 161.489455 -125.024951  L 171.229091 -127.00199  L 180.968727 -128.702932  L 190.708364 -129.954462  L 200.448 -130.751263  L 210.187636 -131.133337  L 219.927273 -131.267471  L 229.666909 -131.10217  L 239.406545 -130.782633  L 249.146182 -130.59042  L 258.885818 -130.640412  L 268.625455 -130.929135  L 278.365091 -131.310619  L 288.104727 -131.562316  L 297.844364 -131.455492  L 307.584 -130.816727  L 317.323636 -129.826157  L 327.063273 -128.713421  L 336.802909 -127.676002  L 346.542545 -127.07891  L 356.282182 -127.151454  L 366.021818 -127.827787  L 375.761455 -128.014295  L 385.501091 -125.297312  L 395.240727 -121.958154  L 395.240727 -292.032  L 395.240727 -292.032  L 385.501091 -286.137691  L 375.761455 -277.937039  L 366.021818 -270.24407  L 356.282182 -262.681512  L 346.542545 -255.050121  L 336.802909 -247.278362  L 327.063273 -239.415964  L 317.323636 -231.639683  L 307.584 -224.094011  L 297.844364 -216.89349  L 288.104727 -209.952252  L 278.365091 -203.083486  L 268.625455 -196.077481  L 258.885818 -189.025719  L 249.146182 -181.89263  L 239.406545 -174.80946  L 229.666909 -168.070924  L 219.927273 -161.711578  L 210.187636 -155.665217  L 200.448 -150.006264  L 190.708364 -144.996084  L 180.968727 -140.446626  L 171.229091 -136.274147  L 161.489455 -132.503981  L 151.749818 -129.094553  L 142.010182 -143.52666  L 132.270545 -149.094519  L 122.530909 -154.827146  L 112.791273 -160.535845  L 103.051636 -166.249987  L 93.312 -172.225339  L 83.572364 -178.493429  L 73.832727 -186.547609  z " id="m93dc4adad8" style="stroke:#0000ff;stroke-opacity:0.2;"/>
    </defs>
    <g clip-path="url(#p4dfebb6503)">
     <use style="fill:#0000ff;fill-opacity:0.2;stroke:#0000ff;stroke-opacity:0.2;" x="0" xlink:href="#m93dc4adad8" y="345.6"/>
    </g>
   </g>
   <g id="PolyCollection_3">
    <defs>
     <path d="M 73.832727 -171.391954  L 73.832727 -114.496427  L 83.572364 -113.110212  L 93.312 -113.631746  L 103.051636 -113.900208  L 112.791273 -114.104118  L 122.530909 -114.270266  L 132.270545 -114.224307  L 142.010182 -113.90501  L 151.749818 -124.746821  L 161.489455 -127.355493  L 171.229091 -129.648729  L 180.968727 -131.698122  L 190.708364 -133.462107  L 200.448 -135.039997  L 210.187636 -136.492132  L 219.927273 -137.846019  L 229.666909 -139.12152  L 239.406545 -140.279519  L 249.146182 -141.288274  L 258.885818 -142.170752  L 268.625455 -142.889382  L 278.365091 -143.465048  L 288.104727 -143.877183  L 297.844364 -144.177307  L 307.584 -144.517401  L 317.323636 -144.786375  L 327.063273 -145.196929  L 336.802909 -145.950148  L 346.542545 -147.29738  L 356.282182 -149.172062  L 366.021818 -150.987952  L 375.761455 -151.830502  L 385.501091 -151.335278  L 395.240727 -154.63526  L 395.240727 -266.790178  L 395.240727 -266.790178  L 385.501091 -259.775834  L 375.761455 -251.523062  L 366.021818 -242.750278  L 356.282182 -234.076076  L 346.542545 -226.114477  L 336.802909 -219.296919  L 327.063273 -213.235366  L 317.323636 -207.525738  L 307.584 -201.864782  L 297.844364 -196.182881  L 288.104727 -190.455559  L 278.365091 -184.708075  L 268.625455 -179.024446  L 258.885818 -173.513531  L 249.146182 -168.233999  L 239.406545 -163.236183  L 229.666909 -158.501081  L 219.927273 -153.93306  L 210.187636 -149.699778  L 200.448 -145.721902  L 190.708364 -141.960665  L 180.968727 -138.39483  L 171.229091 -134.943913  L 161.489455 -131.579399  L 151.749818 -128.39636  L 142.010182 -134.488745  L 132.270545 -138.611142  L 122.530909 -143.083099  L 112.791273 -148.142733  L 103.051636 -153.911918  L 93.312 -160.159898  L 83.572364 -165.983043  L 73.832727 -171.391954  z " id="m8515fcdf55" style="stroke:#0000ff;stroke-opacity:0.2;"/>
    </defs>
    <g clip-path="url(#p4dfebb6503)">
     <use style="fill:#0000ff;fill-opacity:0.2;stroke:#0000ff;stroke-opacity:0.2;" x="0" xlink:href="#m8515fcdf55" y="345.6"/>
    </g>
   </g>
   <g id="PolyCollection_4">
    <defs>
     <path d="M 73.832727 -158.303014  L 73.832727 -122.997534  L 83.572364 -121.088581  L 93.312 -121.407048  L 103.051636 -120.987028  L 112.791273 -120.333746  L 122.530909 -119.608323  L 132.270545 -118.822712  L 142.010182 -117.884412  L 151.749818 -125.736647  L 161.489455 -128.409871  L 171.229091 -130.893639  L 180.968727 -133.129123  L 190.708364 -135.184359  L 200.448 -137.123133  L 210.187636 -139.012865  L 219.927273 -140.830294  L 229.666909 -142.51561  L 239.406545 -144.087253  L 249.146182 -145.522837  L 258.885818 -146.979795  L 268.625455 -148.451188  L 278.365091 -149.996359  L 288.104727 -151.655047  L 297.844364 -153.325342  L 307.584 -155.143253  L 317.323636 -157.069805  L 327.063273 -159.094931  L 336.802909 -161.280458  L 346.542545 -163.64052  L 356.282182 -166.129764  L 366.021818 -168.512052  L 375.761455 -170.208966  L 385.501091 -171.102974  L 395.240727 -176.894745  L 395.240727 -246.328459  L 395.240727 -246.328459  L 385.501091 -240.470622  L 375.761455 -233.754106  L 366.021818 -226.979726  L 356.282182 -219.977865  L 346.542545 -212.805957  L 336.802909 -205.796402  L 327.063273 -199.296739  L 317.323636 -193.471204  L 307.584 -188.279731  L 297.844364 -183.562443  L 288.104727 -179.052355  L 278.365091 -174.521528  L 268.625455 -170.036562  L 258.885818 -165.641934  L 249.146182 -161.321409  L 239.406545 -157.279041  L 229.666909 -153.45424  L 219.927273 -149.917199  L 210.187636 -146.576179  L 200.448 -143.361023  L 190.708364 -140.223393  L 180.968727 -137.135449  L 171.229091 -134.047648  L 161.489455 -130.933193  L 151.749818 -127.892778  L 142.010182 -129.583093  L 132.270545 -132.943522  L 122.530909 -136.756015  L 112.791273 -141.090275  L 103.051636 -145.944  L 93.312 -150.91469  L 83.572364 -155.172459  L 73.832727 -158.303014  z " id="m4098f8ac31" style="stroke:#0000ff;stroke-opacity:0.2;"/>
    </defs>
    <g clip-path="url(#p4dfebb6503)">
     <use style="fill:#0000ff;fill-opacity:0.2;stroke:#0000ff;stroke-opacity:0.2;" x="0" xlink:href="#m4098f8ac31" y="345.6"/>
    </g>
   </g>
   <g id="PolyCollection_5">
    <defs>
     <path d="M 73.832727 -144.235445  L 73.832727 -129.811876  L 83.572364 -127.326832  L 93.312 -127.747389  L 103.051636 -126.965746  L 112.791273 -125.510216  L 122.530909 -123.895381  L 132.270545 -122.300897  L 142.010182 -120.740744  L 151.749818 -126.390338  L 161.489455 -129.142142  L 171.229091 -131.757838  L 180.968727 -134.178614  L 190.708364 -136.452552  L 200.448 -138.649922  L 210.187636 -140.82787  L 219.927273 -142.948483  L 229.666909 -144.979576  L 239.406545 -146.937468  L 249.146182 -148.851209  L 258.885818 -150.860137  L 268.625455 -153.003793  L 278.365091 -155.334408  L 288.104727 -157.850718  L 297.844364 -160.56813  L 307.584 -163.446442  L 317.323636 -166.511404  L 327.063273 -169.75857  L 336.802909 -173.261624  L 346.542545 -177.114771  L 356.282182 -181.194987  L 366.021818 -185.383389  L 375.761455 -189.410144  L 385.501091 -192.994129  L 395.240727 -200.700123  L 395.240727 -230.052219  L 395.240727 -230.052219  L 385.501091 -226.70561  L 375.761455 -220.512614  L 366.021818 -214.119082  L 356.282182 -207.774885  L 346.542545 -201.41559  L 336.802909 -195.233289  L 327.063273 -189.465376  L 317.323636 -184.060686  L 307.584 -179.170196  L 297.844364 -174.773676  L 288.104727 -170.745425  L 278.365091 -166.985091  L 268.625455 -163.433279  L 258.885818 -159.950172  L 249.146182 -156.566086  L 239.406545 -153.336717  L 229.666909 -150.246375  L 219.927273 -147.31835  L 210.187636 -144.484773  L 200.448 -141.689481  L 190.708364 -138.924484  L 180.968727 -136.143495  L 171.229091 -133.313357  L 161.489455 -130.380642  L 151.749818 -127.442713  L 142.010182 -126.394392  L 132.270545 -129.201639  L 122.530909 -132.402428  L 112.791273 -135.945862  L 103.051636 -139.59332  L 93.312 -142.7908  L 83.572364 -144.204175  L 73.832727 -144.235445  z " id="m0480e65518" style="stroke:#0000ff;stroke-opacity:0.2;"/>
    </defs>
    <g clip-path="url(#p4dfebb6503)">
     <use style="fill:#0000ff;fill-opacity:0.2;stroke:#0000ff;stroke-opacity:0.2;" x="0" xlink:href="#m0480e65518" y="345.6"/>
    </g>
   </g>
   <g id="PolyCollection_6">
    <defs>
     <path d="M 73.832727 -137.292256  L 73.832727 -136.201182  L 83.572364 -133.670466  L 93.312 -134.058343  L 103.051636 -132.611213  L 112.791273 -130.278831  L 122.530909 -127.785761  L 132.270545 -125.424861  L 142.010182 -123.27514  L 151.749818 -126.901959  L 161.489455 -129.735932  L 171.229091 -132.485045  L 180.968727 -135.079534  L 190.708364 -137.570808  L 200.448 -140.012472  L 210.187636 -142.45055  L 219.927273 -144.867685  L 229.666909 -147.258544  L 239.406545 -149.674552  L 249.146182 -152.109811  L 258.885818 -154.680089  L 268.625455 -157.386196  L 278.365091 -160.293026  L 288.104727 -163.443631  L 297.844364 -166.869648  L 307.584 -170.569583  L 317.323636 -174.550004  L 327.063273 -178.796097  L 336.802909 -183.455599  L 346.542545 -188.481186  L 356.282182 -193.801187  L 366.021818 -199.226993  L 375.761455 -204.558318  L 385.501091 -209.913029  L 395.240727 -216.238492  L 395.240727 -218.521827  L 395.240727 -218.521827  L 385.501091 -212.987904  L 375.761455 -207.400777  L 366.021818 -201.782131  L 356.282182 -196.156529  L 346.542545 -190.626698  L 336.802909 -185.402923  L 327.063273 -180.5471  L 317.323636 -176.111442  L 307.584 -171.940056  L 297.844364 -168.120224  L 288.104727 -164.559918  L 278.365091 -161.321341  L 268.625455 -158.298689  L 258.885818 -155.484809  L 249.146182 -152.796397  L 239.406545 -150.237347  L 229.666909 -147.730228  L 219.927273 -145.249857  L 210.187636 -142.776587  L 200.448 -140.284102  L 190.708364 -137.790696  L 180.968727 -135.254508  L 171.229091 -132.624583  L 161.489455 -129.845833  L 151.749818 -126.9954  L 142.010182 -123.771194  L 132.270545 -126.037931  L 122.530909 -128.548606  L 112.791273 -131.21781  L 103.051636 -133.749197  L 93.312 -135.41242  L 83.572364 -135.099185  L 73.832727 -137.292256  z " id="m61d4e5c784" style="stroke:#0000ff;stroke-opacity:0.2;"/>
    </defs>
    <g clip-path="url(#p4dfebb6503)">
     <use style="fill:#0000ff;fill-opacity:0.2;stroke:#0000ff;stroke-opacity:0.2;" x="0" xlink:href="#m61d4e5c784" y="345.6"/>
    </g>
   </g>
   <g id="PolyCollection_7">
    <defs>
     <path d="M 73.832727 -131.310869  L 73.832727 -142.599266  L 83.572364 -142.114737  L 93.312 -141.236231  L 103.051636 -138.390784  L 112.791273 -134.977994  L 122.530909 -131.606448  L 132.270545 -128.538611  L 142.010182 -125.839146  L 151.749818 -127.354573  L 161.489455 -130.27424  L 171.229091 -133.176101  L 180.968727 -135.962056  L 190.708364 -138.689816  L 200.448 -141.397878  L 210.187636 -144.122487  L 219.927273 -146.881926  L 229.666909 -149.709777  L 239.406545 -152.669768  L 249.146182 -155.752725  L 258.885818 -158.989385  L 268.625455 -162.302823  L 278.365091 -165.747816  L 288.104727 -169.378246  L 297.844364 -173.330337  L 307.584 -177.659434  L 317.323636 -182.407406  L 327.063273 -187.632411  L 336.802909 -193.22633  L 346.542545 -199.227432  L 356.282182 -205.461964  L 366.021818 -211.733218  L 375.761455 -218.058715  L 385.501091 -224.180557  L 395.240727 -227.686878  L 395.240727 -203.973023  L 395.240727 -203.973023  L 385.501091 -196.701535  L 375.761455 -192.663896  L 366.021818 -188.437457  L 356.282182 -183.915211  L 346.542545 -179.50625  L 336.802909 -175.392589  L 327.063273 -171.67275  L 317.323636 -168.182618  L 307.584 -164.919564  L 297.844364 -161.875701  L 288.104727 -158.981526  L 278.365091 -156.332148  L 268.625455 -153.87941  L 258.885818 -151.614895  L 249.146182 -149.498908  L 239.406545 -147.47992  L 229.666909 -145.439928  L 219.927273 -143.339365  L 210.187636 -141.162617  L 200.448 -138.930352  L 190.708364 -136.680449  L 180.968727 -134.364369  L 171.229091 -131.910269  L 161.489455 -129.270172  L 151.749818 -126.500429  L 142.010182 -121.262699  L 132.270545 -122.944967  L 122.530909 -124.689379  L 112.791273 -126.480374  L 103.051636 -128.105462  L 93.312 -128.971725  L 83.572364 -128.54665  L 73.832727 -131.310869  z " id="maa01c2f0af" style="stroke:#0000ff;stroke-opacity:0.2;"/>
    </defs>
    <g clip-path="url(#p4dfebb6503)">
     <use style="fill:#0000ff;fill-opacity:0.2;stroke:#0000ff;stroke-opacity:0.2;" x="0" xlink:href="#maa01c2f0af" y="345.6"/>
    </g>
   </g>
   <g id="PolyCollection_8">
    <defs>
     <path d="M 73.832727 -124.287845  L 73.832727 -155.51221  L 83.572364 -153.005478  L 93.312 -149.231739  L 103.051636 -144.599485  L 112.791273 -139.998148  L 122.530909 -135.793281  L 132.270545 -132.104244  L 142.010182 -128.871539  L 151.749818 -127.800683  L 161.489455 -130.817527  L 171.229091 -133.891284  L 180.968727 -136.921287  L 190.708364 -139.942924  L 200.448 -142.990398  L 210.187636 -146.11305  L 219.927273 -149.338352  L 229.666909 -152.733057  L 239.406545 -156.374578  L 249.146182 -160.270689  L 258.885818 -164.362985  L 268.625455 -168.578272  L 278.365091 -172.81526  L 288.104727 -177.131228  L 297.844364 -181.555046  L 307.584 -186.207686  L 317.323636 -191.366831  L 327.063273 -197.157993  L 336.802909 -203.583156  L 346.542545 -210.441914  L 356.282182 -217.40456  L 366.021818 -224.163172  L 375.761455 -230.756998  L 385.501091 -237.449819  L 395.240727 -242.390116  L 395.240727 -181.045153  L 395.240727 -181.045153  L 385.501091 -175.105078  L 375.761455 -173.942845  L 366.021818 -171.88196  L 356.282182 -169.196678  L 346.542545 -166.469171  L 336.802909 -163.876444  L 327.063273 -161.43325  L 317.323636 -159.129847  L 307.584 -156.93598  L 297.844364 -154.914938  L 288.104727 -152.974457  L 278.365091 -151.143865  L 268.625455 -149.395381  L 258.885818 -147.788908  L 249.146182 -146.228957  L 239.406545 -144.68517  L 229.666909 -143.054511  L 219.927273 -141.287981  L 210.187636 -139.403064  L 200.448 -137.450817  L 190.708364 -135.455701  L 180.968727 -133.356015  L 171.229091 -131.085963  L 161.489455 -128.570814  L 151.749818 -125.885381  L 142.010182 -118.499779  L 132.270545 -119.574508  L 122.530909 -120.529238  L 112.791273 -121.418195  L 103.051636 -122.251588  L 93.312 -122.741285  L 83.572364 -122.422483  L 73.832727 -124.287845  z " id="m9a4920ab2b" style="stroke:#0000ff;stroke-opacity:0.2;"/>
    </defs>
    <g clip-path="url(#p4dfebb6503)">
     <use style="fill:#0000ff;fill-opacity:0.2;stroke:#0000ff;stroke-opacity:0.2;" x="0" xlink:href="#m9a4920ab2b" y="345.6"/>
    </g>
   </g>
   <g id="PolyCollection_9">
    <defs>
     <path d="M 73.832727 -116.310705  L 73.832727 -168.380712  L 83.572364 -163.750125  L 93.312 -158.142106  L 103.051636 -152.069822  L 112.791273 -146.430197  L 122.530909 -141.53221  L 132.270545 -137.208608  L 142.010182 -133.249282  L 151.749818 -128.287194  L 161.489455 -131.437454  L 171.229091 -134.747371  L 180.968727 -138.102435  L 190.708364 -141.556542  L 200.448 -145.165134  L 210.187636 -148.937815  L 219.927273 -152.952748  L 229.666909 -157.199795  L 239.406545 -161.783103  L 249.146182 -166.549707  L 258.885818 -171.597511  L 268.625455 -176.874437  L 278.365091 -182.315418  L 288.104727 -187.843134  L 297.844364 -193.355778  L 307.584 -198.765506  L 317.323636 -204.153353  L 327.063273 -209.747504  L 336.802909 -215.946339  L 346.542545 -223.042723  L 356.282182 -230.998287  L 366.021818 -239.471059  L 375.761455 -247.920514  L 385.501091 -255.862218  L 395.240727 -261.865358  L 395.240727 -158.053995  L 395.240727 -158.053995  L 385.501091 -155.416646  L 375.761455 -155.844928  L 366.021818 -154.933741  L 356.282182 -153.084234  L 346.542545 -151.076458  L 336.802909 -149.47142  L 327.063273 -148.345263  L 317.323636 -147.521465  L 307.584 -146.835782  L 297.844364 -146.24188  L 288.104727 -145.615925  L 278.365091 -144.898852  L 268.625455 -144.16668  L 258.885818 -143.312316  L 249.146182 -142.304534  L 239.406545 -141.192632  L 229.666909 -139.957489  L 219.927273 -138.584153  L 210.187636 -137.108315  L 200.448 -135.534238  L 190.708364 -133.864252  L 180.968727 -132.044377  L 171.229091 -129.947605  L 161.489455 -127.614089  L 151.749818 -124.991416  L 142.010182 -114.874812  L 132.270545 -115.302269  L 122.530909 -115.51733  L 112.791273 -115.508939  L 103.051636 -115.447765  L 93.312 -115.359088  L 83.572364 -114.9458  L 73.832727 -116.310705  z " id="m93ad04b9ff" style="stroke:#0000ff;stroke-opacity:0.2;"/>
    </defs>
    <g clip-path="url(#p4dfebb6503)">
     <use style="fill:#0000ff;fill-opacity:0.2;stroke:#0000ff;stroke-opacity:0.2;" x="0" xlink:href="#m93ad04b9ff" y="345.6"/>
    </g>
   </g>
   <g id="PolyCollection_10">
    <defs>
     <path d="M 73.832727 -104.049621  L 73.832727 -183.763744  L 83.572364 -175.685911  L 93.312 -169.166405  L 103.051636 -162.832387  L 112.791273 -157.073236  L 122.530909 -151.676352  L 132.270545 -146.368843  L 142.010182 -141.236824  L 151.749818 -128.922309  L 161.489455 -132.274841  L 171.229091 -135.936697  L 180.968727 -139.901749  L 190.708364 -144.163654  L 200.448 -148.904817  L 210.187636 -154.092825  L 219.927273 -159.777571  L 229.666909 -165.708472  L 239.406545 -172.002708  L 249.146182 -178.552324  L 258.885818 -185.134526  L 268.625455 -191.699308  L 278.365091 -198.22216  L 288.104727 -204.837953  L 297.844364 -211.698569  L 307.584 -218.845277  L 317.323636 -226.196397  L 327.063273 -233.538301  L 336.802909 -240.873653  L 346.542545 -248.073675  L 356.282182 -255.142908  L 366.021818 -262.252138  L 375.761455 -269.714531  L 385.501091 -278.121651  L 395.240727 -284.065139  L 395.240727 -131.570269  L 395.240727 -131.570269  L 385.501091 -132.169368  L 375.761455 -133.873568  L 366.021818 -133.31392  L 356.282182 -132.188812  L 346.542545 -131.416368  L 336.802909 -131.403716  L 327.063273 -132.031429  L 317.323636 -132.939898  L 307.584 -133.881491  L 297.844364 -134.737617  L 288.104727 -135.223389  L 278.365091 -135.208041  L 268.625455 -134.844406  L 258.885818 -134.366037  L 249.146182 -133.943597  L 239.406545 -133.651147  L 229.666909 -133.430231  L 219.927273 -133.155432  L 210.187636 -132.774851  L 200.448 -132.044626  L 190.708364 -130.984268  L 180.968727 -129.620872  L 171.229091 -127.843513  L 161.489455 -125.738951  L 151.749818 -123.290663  L 142.010182 -108.288376  L 132.270545 -107.709985  L 122.530909 -107.253011  L 112.791273 -106.66202  L 103.051636 -105.694166  L 93.312 -104.552111  L 83.572364 -103.921002  L 73.832727 -104.049621  z " id="m1ae0737406" style="stroke:#0000ff;stroke-opacity:0.2;"/>
    </defs>
    <g clip-path="url(#p4dfebb6503)">
     <use style="fill:#0000ff;fill-opacity:0.2;stroke:#0000ff;stroke-opacity:0.2;" x="0" xlink:href="#m1ae0737406" y="345.6"/>
    </g>
   </g>
   <g id="matplotlib.axis_1">
    <g id="xtick_1">
     <g id="line2d_1">
      <defs>
       <path d="M 0 0  L 0 3.5  " id="m14a61b34da" style="stroke:#000000;stroke-width:0.8;"/>
      </defs>
      <g>
       <use style="stroke:#000000;stroke-width:0.8;" x="73.832727" xlink:href="#m14a61b34da" y="307.584"/>
      </g>
     </g>
     <g id="text_1">
      <!-- &lt; -->
      <g transform="translate(69.642884 322.182437)scale(0.1 -0.1)">
       <defs>
        <path d="M 73.1875 49.21875  L 22.796875 31.296875  L 73.1875 13.484375  L 73.1875 4.59375  L 10.59375 27.296875  L 10.59375 35.40625  L 73.1875 58.109375  z " id="DejaVuSans-60"/>
       </defs>
       <use xlink:href="#DejaVuSans-60"/>
      </g>
     </g>
    </g>
    <g id="xtick_2">
     <g id="line2d_2">
      <g>
       <use style="stroke:#000000;stroke-width:0.8;" x="83.572364" xlink:href="#m14a61b34da" y="307.584"/>
      </g>
     </g>
     <g id="text_2">
      <!-- &lt; -->
      <g transform="translate(79.38252 322.182437)scale(0.1 -0.1)">
       <use xlink:href="#DejaVuSans-60"/>
      </g>
     </g>
    </g>
    <g id="xtick_3">
     <g id="line2d_3">
      <g>
       <use style="stroke:#000000;stroke-width:0.8;" x="93.312" xlink:href="#m14a61b34da" y="307.584"/>
      </g>
     </g>
     <g id="text_3">
      <!-- &lt; -->
      <g transform="translate(89.122156 322.182437)scale(0.1 -0.1)">
       <use xlink:href="#DejaVuSans-60"/>
      </g>
     </g>
    </g>
    <g id="xtick_4">
     <g id="line2d_4">
      <g>
       <use style="stroke:#000000;stroke-width:0.8;" x="103.051636" xlink:href="#m14a61b34da" y="307.584"/>
      </g>
     </g>
     <g id="text_4">
      <!-- &lt; -->
      <g transform="translate(98.861793 322.182437)scale(0.1 -0.1)">
       <use xlink:href="#DejaVuSans-60"/>
      </g>
     </g>
    </g>
    <g id="xtick_5">
     <g id="line2d_5">
      <g>
       <use style="stroke:#000000;stroke-width:0.8;" x="112.791273" xlink:href="#m14a61b34da" y="307.584"/>
      </g>
     </g>
     <g id="text_5">
      <!-- &lt; -->
      <g transform="translate(108.601429 322.182437)scale(0.1 -0.1)">
       <use xlink:href="#DejaVuSans-60"/>
      </g>
     </g>
    </g>
    <g id="xtick_6">
     <g id="line2d_6">
      <g>
       <use style="stroke:#000000;stroke-width:0.8;" x="122.530909" xlink:href="#m14a61b34da" y="307.584"/>
      </g>
     </g>
     <g id="text_6">
      <!-- &lt; -->
      <g transform="translate(118.341065 322.182437)scale(0.1 -0.1)">
       <use xlink:href="#DejaVuSans-60"/>
      </g>
     </g>
    </g>
    <g id="xtick_7">
     <g id="line2d_7">
      <g>
       <use style="stroke:#000000;stroke-width:0.8;" x="132.270545" xlink:href="#m14a61b34da" y="307.584"/>
      </g>
     </g>
     <g id="text_7">
      <!-- &lt; -->
      <g transform="translate(128.080702 322.182437)scale(0.1 -0.1)">
       <use xlink:href="#DejaVuSans-60"/>
      </g>
     </g>
    </g>
    <g id="xtick_8">
     <g id="line2d_8">
      <g>
       <use style="stroke:#000000;stroke-width:0.8;" x="142.010182" xlink:href="#m14a61b34da" y="307.584"/>
      </g>
     </g>
     <g id="text_8">
      <!-- &lt; -->
      <g transform="translate(137.820338 322.182437)scale(0.1 -0.1)">
       <use xlink:href="#DejaVuSans-60"/>
      </g>
     </g>
    </g>
    <g id="xtick_9">
     <g id="line2d_9">
      <g>
       <use style="stroke:#000000;stroke-width:0.8;" x="151.749818" xlink:href="#m14a61b34da" y="307.584"/>
      </g>
     </g>
     <g id="text_9">
      <!-- &gt; -->
      <g transform="translate(147.559974 322.182437)scale(0.1 -0.1)">
       <defs>
        <path d="M 10.59375 49.21875  L 10.59375 58.109375  L 73.1875 35.40625  L 73.1875 27.296875  L 10.59375 4.59375  L 10.59375 13.484375  L 60.890625 31.296875  z " id="DejaVuSans-62"/>
       </defs>
       <use xlink:href="#DejaVuSans-62"/>
      </g>
     </g>
    </g>
    <g id="xtick_10">
     <g id="line2d_10">
      <g>
       <use style="stroke:#000000;stroke-width:0.8;" x="161.489455" xlink:href="#m14a61b34da" y="307.584"/>
      </g>
     </g>
     <g id="text_10">
      <!-- &gt; -->
      <g transform="translate(157.299611 322.182437)scale(0.1 -0.1)">
       <use xlink:href="#DejaVuSans-62"/>
      </g>
     </g>
    </g>
    <g id="xtick_11">
     <g id="line2d_11">
      <g>
       <use style="stroke:#000000;stroke-width:0.8;" x="171.229091" xlink:href="#m14a61b34da" y="307.584"/>
      </g>
     </g>
     <g id="text_11">
      <!-- &gt; -->
      <g transform="translate(167.039247 322.182437)scale(0.1 -0.1)">
       <use xlink:href="#DejaVuSans-62"/>
      </g>
     </g>
    </g>
    <g id="xtick_12">
     <g id="line2d_12">
      <g>
       <use style="stroke:#000000;stroke-width:0.8;" x="180.968727" xlink:href="#m14a61b34da" y="307.584"/>
      </g>
     </g>
     <g id="text_12">
      <!-- &gt; -->
      <g transform="translate(176.778884 322.182437)scale(0.1 -0.1)">
       <use xlink:href="#DejaVuSans-62"/>
      </g>
     </g>
    </g>
    <g id="xtick_13">
     <g id="line2d_13">
      <g>
       <use style="stroke:#000000;stroke-width:0.8;" x="190.708364" xlink:href="#m14a61b34da" y="307.584"/>
      </g>
     </g>
     <g id="text_13">
      <!-- &gt; -->
      <g transform="translate(186.51852 322.182437)scale(0.1 -0.1)">
       <use xlink:href="#DejaVuSans-62"/>
      </g>
     </g>
    </g>
    <g id="xtick_14">
     <g id="line2d_14">
      <g>
       <use style="stroke:#000000;stroke-width:0.8;" x="200.448" xlink:href="#m14a61b34da" y="307.584"/>
      </g>
     </g>
     <g id="text_14">
      <!-- &gt; -->
      <g transform="translate(196.258156 322.182437)scale(0.1 -0.1)">
       <use xlink:href="#DejaVuSans-62"/>
      </g>
     </g>
    </g>
    <g id="xtick_15">
     <g id="line2d_15">
      <g>
       <use style="stroke:#000000;stroke-width:0.8;" x="210.187636" xlink:href="#m14a61b34da" y="307.584"/>
      </g>
     </g>
     <g id="text_15">
      <!-- &gt; -->
      <g transform="translate(205.997793 322.182437)scale(0.1 -0.1)">
       <use xlink:href="#DejaVuSans-62"/>
      </g>
     </g>
    </g>
    <g id="xtick_16">
     <g id="line2d_16">
      <g>
       <use style="stroke:#000000;stroke-width:0.8;" x="219.927273" xlink:href="#m14a61b34da" y="307.584"/>
      </g>
     </g>
     <g id="text_16">
      <!-- &gt; -->
      <g transform="translate(215.737429 322.182437)scale(0.1 -0.1)">
       <use xlink:href="#DejaVuSans-62"/>
      </g>
     </g>
    </g>
    <g id="xtick_17">
     <g id="line2d_17">
      <g>
       <use style="stroke:#000000;stroke-width:0.8;" x="229.666909" xlink:href="#m14a61b34da" y="307.584"/>
      </g>
     </g>
     <g id="text_17">
      <!-- &gt; -->
      <g transform="translate(225.477065 322.182437)scale(0.1 -0.1)">
       <use xlink:href="#DejaVuSans-62"/>
      </g>
     </g>
    </g>
    <g id="xtick_18">
     <g id="line2d_18">
      <g>
       <use style="stroke:#000000;stroke-width:0.8;" x="239.406545" xlink:href="#m14a61b34da" y="307.584"/>
      </g>
     </g>
     <g id="text_18">
      <!-- &gt; -->
      <g transform="translate(235.216702 322.182437)scale(0.1 -0.1)">
       <use xlink:href="#DejaVuSans-62"/>
      </g>
     </g>
    </g>
    <g id="xtick_19">
     <g id="line2d_19">
      <g>
       <use style="stroke:#000000;stroke-width:0.8;" x="249.146182" xlink:href="#m14a61b34da" y="307.584"/>
      </g>
     </g>
     <g id="text_19">
      <!-- &gt; -->
      <g transform="translate(244.956338 322.182437)scale(0.1 -0.1)">
       <use xlink:href="#DejaVuSans-62"/>
      </g>
     </g>
    </g>
    <g id="xtick_20">
     <g id="line2d_20">
      <g>
       <use style="stroke:#000000;stroke-width:0.8;" x="258.885818" xlink:href="#m14a61b34da" y="307.584"/>
      </g>
     </g>
     <g id="text_20">
      <!-- &gt; -->
      <g transform="translate(254.695974 322.182437)scale(0.1 -0.1)">
       <use xlink:href="#DejaVuSans-62"/>
      </g>
     </g>
    </g>
    <g id="xtick_21">
     <g id="line2d_21">
      <g>
       <use style="stroke:#000000;stroke-width:0.8;" x="268.625455" xlink:href="#m14a61b34da" y="307.584"/>
      </g>
     </g>
     <g id="text_21">
      <!-- &gt; -->
      <g transform="translate(264.435611 322.182437)scale(0.1 -0.1)">
       <use xlink:href="#DejaVuSans-62"/>
      </g>
     </g>
    </g>
    <g id="xtick_22">
     <g id="line2d_22">
      <g>
       <use style="stroke:#000000;stroke-width:0.8;" x="278.365091" xlink:href="#m14a61b34da" y="307.584"/>
      </g>
     </g>
     <g id="text_22">
      <!-- &gt; -->
      <g transform="translate(274.175247 322.182437)scale(0.1 -0.1)">
       <use xlink:href="#DejaVuSans-62"/>
      </g>
     </g>
    </g>
    <g id="xtick_23">
     <g id="line2d_23">
      <g>
       <use style="stroke:#000000;stroke-width:0.8;" x="288.104727" xlink:href="#m14a61b34da" y="307.584"/>
      </g>
     </g>
     <g id="text_23">
      <!-- &gt; -->
      <g transform="translate(283.914884 322.182437)scale(0.1 -0.1)">
       <use xlink:href="#DejaVuSans-62"/>
      </g>
     </g>
    </g>
    <g id="xtick_24">
     <g id="line2d_24">
      <g>
       <use style="stroke:#000000;stroke-width:0.8;" x="297.844364" xlink:href="#m14a61b34da" y="307.584"/>
      </g>
     </g>
     <g id="text_24">
      <!-- &gt; -->
      <g transform="translate(293.65452 322.182437)scale(0.1 -0.1)">
       <use xlink:href="#DejaVuSans-62"/>
      </g>
     </g>
    </g>
    <g id="xtick_25">
     <g id="line2d_25">
      <g>
       <use style="stroke:#000000;stroke-width:0.8;" x="307.584" xlink:href="#m14a61b34da" y="307.584"/>
      </g>
     </g>
     <g id="text_25">
      <!-- &gt; -->
      <g transform="translate(303.394156 322.182437)scale(0.1 -0.1)">
       <use xlink:href="#DejaVuSans-62"/>
      </g>
     </g>
    </g>
    <g id="xtick_26">
     <g id="line2d_26">
      <g>
       <use style="stroke:#000000;stroke-width:0.8;" x="317.323636" xlink:href="#m14a61b34da" y="307.584"/>
      </g>
     </g>
     <g id="text_26">
      <!-- &gt; -->
      <g transform="translate(313.133793 322.182437)scale(0.1 -0.1)">
       <use xlink:href="#DejaVuSans-62"/>
      </g>
     </g>
    </g>
    <g id="xtick_27">
     <g id="line2d_27">
      <g>
       <use style="stroke:#000000;stroke-width:0.8;" x="327.063273" xlink:href="#m14a61b34da" y="307.584"/>
      </g>
     </g>
     <g id="text_27">
      <!-- &gt; -->
      <g transform="translate(322.873429 322.182437)scale(0.1 -0.1)">
       <use xlink:href="#DejaVuSans-62"/>
      </g>
     </g>
    </g>
    <g id="xtick_28">
     <g id="line2d_28">
      <g>
       <use style="stroke:#000000;stroke-width:0.8;" x="336.802909" xlink:href="#m14a61b34da" y="307.584"/>
      </g>
     </g>
     <g id="text_28">
      <!-- &gt; -->
      <g transform="translate(332.613065 322.182437)scale(0.1 -0.1)">
       <use xlink:href="#DejaVuSans-62"/>
      </g>
     </g>
    </g>
    <g id="xtick_29">
     <g id="line2d_29">
      <g>
       <use style="stroke:#000000;stroke-width:0.8;" x="346.542545" xlink:href="#m14a61b34da" y="307.584"/>
      </g>
     </g>
     <g id="text_29">
      <!-- &gt; -->
      <g transform="translate(342.352702 322.182437)scale(0.1 -0.1)">
       <use xlink:href="#DejaVuSans-62"/>
      </g>
     </g>
    </g>
    <g id="xtick_30">
     <g id="line2d_30">
      <g>
       <use style="stroke:#000000;stroke-width:0.8;" x="356.282182" xlink:href="#m14a61b34da" y="307.584"/>
      </g>
     </g>
     <g id="text_30">
      <!-- &gt; -->
      <g transform="translate(352.092338 322.182437)scale(0.1 -0.1)">
       <use xlink:href="#DejaVuSans-62"/>
      </g>
     </g>
    </g>
    <g id="xtick_31">
     <g id="line2d_31">
      <g>
       <use style="stroke:#000000;stroke-width:0.8;" x="366.021818" xlink:href="#m14a61b34da" y="307.584"/>
      </g>
     </g>
     <g id="text_31">
      <!-- &gt; -->
      <g transform="translate(361.831974 322.182437)scale(0.1 -0.1)">
       <use xlink:href="#DejaVuSans-62"/>
      </g>
     </g>
    </g>
    <g id="xtick_32">
     <g id="line2d_32">
      <g>
       <use style="stroke:#000000;stroke-width:0.8;" x="375.761455" xlink:href="#m14a61b34da" y="307.584"/>
      </g>
     </g>
     <g id="text_32">
      <!-- &gt; -->
      <g transform="translate(371.571611 322.182437)scale(0.1 -0.1)">
       <use xlink:href="#DejaVuSans-62"/>
      </g>
     </g>
    </g>
    <g id="xtick_33">
     <g id="line2d_33">
      <g>
       <use style="stroke:#000000;stroke-width:0.8;" x="385.501091" xlink:href="#m14a61b34da" y="307.584"/>
      </g>
     </g>
     <g id="text_33">
      <!-- &gt; -->
      <g transform="translate(381.311247 322.182437)scale(0.1 -0.1)">
       <use xlink:href="#DejaVuSans-62"/>
      </g>
     </g>
    </g>
    <g id="xtick_34">
     <g id="line2d_34">
      <g>
       <use style="stroke:#000000;stroke-width:0.8;" x="395.240727" xlink:href="#m14a61b34da" y="307.584"/>
      </g>
     </g>
     <g id="text_34">
      <!-- &gt; -->
      <g transform="translate(391.050884 322.182437)scale(0.1 -0.1)">
       <use xlink:href="#DejaVuSans-62"/>
      </g>
     </g>
    </g>
    <g id="text_35">
     <!-- Greedy action according to policy at each state x -->
     <g transform="translate(113.009219 335.860562)scale(0.1 -0.1)">
      <defs>
       <path d="M 59.515625 10.40625  L 59.515625 29.984375  L 43.40625 29.984375  L 43.40625 38.09375  L 69.28125 38.09375  L 69.28125 6.78125  Q 63.578125 2.734375 56.6875 0.65625  Q 49.8125 -1.421875 42 -1.421875  Q 24.90625 -1.421875 15.25 8.5625  Q 5.609375 18.5625 5.609375 36.375  Q 5.609375 54.25 15.25 64.234375  Q 24.90625 74.21875 42 74.21875  Q 49.125 74.21875 55.546875 72.453125  Q 61.96875 70.703125 67.390625 67.28125  L 67.390625 56.78125  Q 61.921875 61.421875 55.765625 63.765625  Q 49.609375 66.109375 42.828125 66.109375  Q 29.4375 66.109375 22.71875 58.640625  Q 16.015625 51.171875 16.015625 36.375  Q 16.015625 21.625 22.71875 14.15625  Q 29.4375 6.6875 42.828125 6.6875  Q 48.046875 6.6875 52.140625 7.59375  Q 56.25 8.5 59.515625 10.40625  z " id="DejaVuSans-71"/>
       <path d="M 41.109375 46.296875  Q 39.59375 47.171875 37.8125 47.578125  Q 36.03125 48 33.890625 48  Q 26.265625 48 22.1875 43.046875  Q 18.109375 38.09375 18.109375 28.8125  L 18.109375 0  L 9.078125 0  L 9.078125 54.6875  L 18.109375 54.6875  L 18.109375 46.1875  Q 20.953125 51.171875 25.484375 53.578125  Q 30.03125 56 36.53125 56  Q 37.453125 56 38.578125 55.875  Q 39.703125 55.765625 41.0625 55.515625  z " id="DejaVuSans-114"/>
       <path d="M 56.203125 29.59375  L 56.203125 25.203125  L 14.890625 25.203125  Q 15.484375 15.921875 20.484375 11.0625  Q 25.484375 6.203125 34.421875 6.203125  Q 39.59375 6.203125 44.453125 7.46875  Q 49.3125 8.734375 54.109375 11.28125  L 54.109375 2.78125  Q 49.265625 0.734375 44.1875 -0.34375  Q 39.109375 -1.421875 33.890625 -1.421875  Q 20.796875 -1.421875 13.15625 6.1875  Q 5.515625 13.8125 5.515625 26.8125  Q 5.515625 40.234375 12.765625 48.109375  Q 20.015625 56 32.328125 56  Q 43.359375 56 49.78125 48.890625  Q 56.203125 41.796875 56.203125 29.59375  z M 47.21875 32.234375  Q 47.125 39.59375 43.09375 43.984375  Q 39.0625 48.390625 32.421875 48.390625  Q 24.90625 48.390625 20.390625 44.140625  Q 15.875 39.890625 15.1875 32.171875  z " id="DejaVuSans-101"/>
       <path d="M 45.40625 46.390625  L 45.40625 75.984375  L 54.390625 75.984375  L 54.390625 0  L 45.40625 0  L 45.40625 8.203125  Q 42.578125 3.328125 38.25 0.953125  Q 33.9375 -1.421875 27.875 -1.421875  Q 17.96875 -1.421875 11.734375 6.484375  Q 5.515625 14.40625 5.515625 27.296875  Q 5.515625 40.1875 11.734375 48.09375  Q 17.96875 56 27.875 56  Q 33.9375 56 38.25 53.625  Q 42.578125 51.265625 45.40625 46.390625  z M 14.796875 27.296875  Q 14.796875 17.390625 18.875 11.75  Q 22.953125 6.109375 30.078125 6.109375  Q 37.203125 6.109375 41.296875 11.75  Q 45.40625 17.390625 45.40625 27.296875  Q 45.40625 37.203125 41.296875 42.84375  Q 37.203125 48.484375 30.078125 48.484375  Q 22.953125 48.484375 18.875 42.84375  Q 14.796875 37.203125 14.796875 27.296875  z " id="DejaVuSans-100"/>
       <path d="M 32.171875 -5.078125  Q 28.375 -14.84375 24.75 -17.8125  Q 21.140625 -20.796875 15.09375 -20.796875  L 7.90625 -20.796875  L 7.90625 -13.28125  L 13.1875 -13.28125  Q 16.890625 -13.28125 18.9375 -11.515625  Q 21 -9.765625 23.484375 -3.21875  L 25.09375 0.875  L 2.984375 54.6875  L 12.5 54.6875  L 29.59375 11.921875  L 46.6875 54.6875  L 56.203125 54.6875  z " id="DejaVuSans-121"/>
       <path id="DejaVuSans-32"/>
       <path d="M 34.28125 27.484375  Q 23.390625 27.484375 19.1875 25  Q 14.984375 22.515625 14.984375 16.5  Q 14.984375 11.71875 18.140625 8.90625  Q 21.296875 6.109375 26.703125 6.109375  Q 34.1875 6.109375 38.703125 11.40625  Q 43.21875 16.703125 43.21875 25.484375  L 43.21875 27.484375  z M 52.203125 31.203125  L 52.203125 0  L 43.21875 0  L 43.21875 8.296875  Q 40.140625 3.328125 35.546875 0.953125  Q 30.953125 -1.421875 24.3125 -1.421875  Q 15.921875 -1.421875 10.953125 3.296875  Q 6 8.015625 6 15.921875  Q 6 25.140625 12.171875 29.828125  Q 18.359375 34.515625 30.609375 34.515625  L 43.21875 34.515625  L 43.21875 35.40625  Q 43.21875 41.609375 39.140625 45  Q 35.0625 48.390625 27.6875 48.390625  Q 23 48.390625 18.546875 47.265625  Q 14.109375 46.140625 10.015625 43.890625  L 10.015625 52.203125  Q 14.9375 54.109375 19.578125 55.046875  Q 24.21875 56 28.609375 56  Q 40.484375 56 46.34375 49.84375  Q 52.203125 43.703125 52.203125 31.203125  z " id="DejaVuSans-97"/>
       <path d="M 48.78125 52.59375  L 48.78125 44.1875  Q 44.96875 46.296875 41.140625 47.34375  Q 37.3125 48.390625 33.40625 48.390625  Q 24.65625 48.390625 19.8125 42.84375  Q 14.984375 37.3125 14.984375 27.296875  Q 14.984375 17.28125 19.8125 11.734375  Q 24.65625 6.203125 33.40625 6.203125  Q 37.3125 6.203125 41.140625 7.25  Q 44.96875 8.296875 48.78125 10.40625  L 48.78125 2.09375  Q 45.015625 0.34375 40.984375 -0.53125  Q 36.96875 -1.421875 32.421875 -1.421875  Q 20.0625 -1.421875 12.78125 6.34375  Q 5.515625 14.109375 5.515625 27.296875  Q 5.515625 40.671875 12.859375 48.328125  Q 20.21875 56 33.015625 56  Q 37.15625 56 41.109375 55.140625  Q 45.0625 54.296875 48.78125 52.59375  z " id="DejaVuSans-99"/>
       <path d="M 18.3125 70.21875  L 18.3125 54.6875  L 36.8125 54.6875  L 36.8125 47.703125  L 18.3125 47.703125  L 18.3125 18.015625  Q 18.3125 11.328125 20.140625 9.421875  Q 21.96875 7.515625 27.59375 7.515625  L 36.8125 7.515625  L 36.8125 0  L 27.59375 0  Q 17.1875 0 13.234375 3.875  Q 9.28125 7.765625 9.28125 18.015625  L 9.28125 47.703125  L 2.6875 47.703125  L 2.6875 54.6875  L 9.28125 54.6875  L 9.28125 70.21875  z " id="DejaVuSans-116"/>
       <path d="M 9.421875 54.6875  L 18.40625 54.6875  L 18.40625 0  L 9.421875 0  z M 9.421875 75.984375  L 18.40625 75.984375  L 18.40625 64.59375  L 9.421875 64.59375  z " id="DejaVuSans-105"/>
       <path d="M 30.609375 48.390625  Q 23.390625 48.390625 19.1875 42.75  Q 14.984375 37.109375 14.984375 27.296875  Q 14.984375 17.484375 19.15625 11.84375  Q 23.34375 6.203125 30.609375 6.203125  Q 37.796875 6.203125 41.984375 11.859375  Q 46.1875 17.53125 46.1875 27.296875  Q 46.1875 37.015625 41.984375 42.703125  Q 37.796875 48.390625 30.609375 48.390625  z M 30.609375 56  Q 42.328125 56 49.015625 48.375  Q 55.71875 40.765625 55.71875 27.296875  Q 55.71875 13.875 49.015625 6.21875  Q 42.328125 -1.421875 30.609375 -1.421875  Q 18.84375 -1.421875 12.171875 6.21875  Q 5.515625 13.875 5.515625 27.296875  Q 5.515625 40.765625 12.171875 48.375  Q 18.84375 56 30.609375 56  z " id="DejaVuSans-111"/>
       <path d="M 54.890625 33.015625  L 54.890625 0  L 45.90625 0  L 45.90625 32.71875  Q 45.90625 40.484375 42.875 44.328125  Q 39.84375 48.1875 33.796875 48.1875  Q 26.515625 48.1875 22.3125 43.546875  Q 18.109375 38.921875 18.109375 30.90625  L 18.109375 0  L 9.078125 0  L 9.078125 54.6875  L 18.109375 54.6875  L 18.109375 46.1875  Q 21.34375 51.125 25.703125 53.5625  Q 30.078125 56 35.796875 56  Q 45.21875 56 50.046875 50.171875  Q 54.890625 44.34375 54.890625 33.015625  z " id="DejaVuSans-110"/>
       <path d="M 45.40625 27.984375  Q 45.40625 37.75 41.375 43.109375  Q 37.359375 48.484375 30.078125 48.484375  Q 22.859375 48.484375 18.828125 43.109375  Q 14.796875 37.75 14.796875 27.984375  Q 14.796875 18.265625 18.828125 12.890625  Q 22.859375 7.515625 30.078125 7.515625  Q 37.359375 7.515625 41.375 12.890625  Q 45.40625 18.265625 45.40625 27.984375  z M 54.390625 6.78125  Q 54.390625 -7.171875 48.1875 -13.984375  Q 42 -20.796875 29.203125 -20.796875  Q 24.46875 -20.796875 20.265625 -20.09375  Q 16.0625 -19.390625 12.109375 -17.921875  L 12.109375 -9.1875  Q 16.0625 -11.328125 19.921875 -12.34375  Q 23.78125 -13.375 27.78125 -13.375  Q 36.625 -13.375 41.015625 -8.765625  Q 45.40625 -4.15625 45.40625 5.171875  L 45.40625 9.625  Q 42.625 4.78125 38.28125 2.390625  Q 33.9375 0 27.875 0  Q 17.828125 0 11.671875 7.65625  Q 5.515625 15.328125 5.515625 27.984375  Q 5.515625 40.671875 11.671875 48.328125  Q 17.828125 56 27.875 56  Q 33.9375 56 38.28125 53.609375  Q 42.625 51.21875 45.40625 46.390625  L 45.40625 54.6875  L 54.390625 54.6875  z " id="DejaVuSans-103"/>
       <path d="M 18.109375 8.203125  L 18.109375 -20.796875  L 9.078125 -20.796875  L 9.078125 54.6875  L 18.109375 54.6875  L 18.109375 46.390625  Q 20.953125 51.265625 25.265625 53.625  Q 29.59375 56 35.59375 56  Q 45.5625 56 51.78125 48.09375  Q 58.015625 40.1875 58.015625 27.296875  Q 58.015625 14.40625 51.78125 6.484375  Q 45.5625 -1.421875 35.59375 -1.421875  Q 29.59375 -1.421875 25.265625 0.953125  Q 20.953125 3.328125 18.109375 8.203125  z M 48.6875 27.296875  Q 48.6875 37.203125 44.609375 42.84375  Q 40.53125 48.484375 33.40625 48.484375  Q 26.265625 48.484375 22.1875 42.84375  Q 18.109375 37.203125 18.109375 27.296875  Q 18.109375 17.390625 22.1875 11.75  Q 26.265625 6.109375 33.40625 6.109375  Q 40.53125 6.109375 44.609375 11.75  Q 48.6875 17.390625 48.6875 27.296875  z " id="DejaVuSans-112"/>
       <path d="M 9.421875 75.984375  L 18.40625 75.984375  L 18.40625 0  L 9.421875 0  z " id="DejaVuSans-108"/>
       <path d="M 54.890625 33.015625  L 54.890625 0  L 45.90625 0  L 45.90625 32.71875  Q 45.90625 40.484375 42.875 44.328125  Q 39.84375 48.1875 33.796875 48.1875  Q 26.515625 48.1875 22.3125 43.546875  Q 18.109375 38.921875 18.109375 30.90625  L 18.109375 0  L 9.078125 0  L 9.078125 75.984375  L 18.109375 75.984375  L 18.109375 46.1875  Q 21.34375 51.125 25.703125 53.5625  Q 30.078125 56 35.796875 56  Q 45.21875 56 50.046875 50.171875  Q 54.890625 44.34375 54.890625 33.015625  z " id="DejaVuSans-104"/>
       <path d="M 44.28125 53.078125  L 44.28125 44.578125  Q 40.484375 46.53125 36.375 47.5  Q 32.28125 48.484375 27.875 48.484375  Q 21.1875 48.484375 17.84375 46.4375  Q 14.5 44.390625 14.5 40.28125  Q 14.5 37.15625 16.890625 35.375  Q 19.28125 33.59375 26.515625 31.984375  L 29.59375 31.296875  Q 39.15625 29.25 43.1875 25.515625  Q 47.21875 21.78125 47.21875 15.09375  Q 47.21875 7.46875 41.1875 3.015625  Q 35.15625 -1.421875 24.609375 -1.421875  Q 20.21875 -1.421875 15.453125 -0.5625  Q 10.6875 0.296875 5.421875 2  L 5.421875 11.28125  Q 10.40625 8.6875 15.234375 7.390625  Q 20.0625 6.109375 24.8125 6.109375  Q 31.15625 6.109375 34.5625 8.28125  Q 37.984375 10.453125 37.984375 14.40625  Q 37.984375 18.0625 35.515625 20.015625  Q 33.0625 21.96875 24.703125 23.78125  L 21.578125 24.515625  Q 13.234375 26.265625 9.515625 29.90625  Q 5.8125 33.546875 5.8125 39.890625  Q 5.8125 47.609375 11.28125 51.796875  Q 16.75 56 26.8125 56  Q 31.78125 56 36.171875 55.265625  Q 40.578125 54.546875 44.28125 53.078125  z " id="DejaVuSans-115"/>
       <path d="M 54.890625 54.6875  L 35.109375 28.078125  L 55.90625 0  L 45.3125 0  L 29.390625 21.484375  L 13.484375 0  L 2.875 0  L 24.125 28.609375  L 4.6875 54.6875  L 15.28125 54.6875  L 29.78125 35.203125  L 44.28125 54.6875  z " id="DejaVuSans-120"/>
      </defs>
      <use xlink:href="#DejaVuSans-71"/>
      <use x="77.490234" xlink:href="#DejaVuSans-114"/>
      <use x="116.353516" xlink:href="#DejaVuSans-101"/>
      <use x="177.876953" xlink:href="#DejaVuSans-101"/>
      <use x="239.400391" xlink:href="#DejaVuSans-100"/>
      <use x="302.876953" xlink:href="#DejaVuSans-121"/>
      <use x="362.056641" xlink:href="#DejaVuSans-32"/>
      <use x="393.84375" xlink:href="#DejaVuSans-97"/>
      <use x="455.123047" xlink:href="#DejaVuSans-99"/>
      <use x="510.103516" xlink:href="#DejaVuSans-116"/>
      <use x="549.3125" xlink:href="#DejaVuSans-105"/>
      <use x="577.095703" xlink:href="#DejaVuSans-111"/>
      <use x="638.277344" xlink:href="#DejaVuSans-110"/>
      <use x="701.65625" xlink:href="#DejaVuSans-32"/>
      <use x="733.443359" xlink:href="#DejaVuSans-97"/>
      <use x="794.722656" xlink:href="#DejaVuSans-99"/>
      <use x="849.703125" xlink:href="#DejaVuSans-99"/>
      <use x="904.683594" xlink:href="#DejaVuSans-111"/>
      <use x="965.865234" xlink:href="#DejaVuSans-114"/>
      <use x="1005.228516" xlink:href="#DejaVuSans-100"/>
      <use x="1068.705078" xlink:href="#DejaVuSans-105"/>
      <use x="1096.488281" xlink:href="#DejaVuSans-110"/>
      <use x="1159.867188" xlink:href="#DejaVuSans-103"/>
      <use x="1223.34375" xlink:href="#DejaVuSans-32"/>
      <use x="1255.130859" xlink:href="#DejaVuSans-116"/>
      <use x="1294.339844" xlink:href="#DejaVuSans-111"/>
      <use x="1355.521484" xlink:href="#DejaVuSans-32"/>
      <use x="1387.308594" xlink:href="#DejaVuSans-112"/>
      <use x="1450.785156" xlink:href="#DejaVuSans-111"/>
      <use x="1511.966797" xlink:href="#DejaVuSans-108"/>
      <use x="1539.75" xlink:href="#DejaVuSans-105"/>
      <use x="1567.533203" xlink:href="#DejaVuSans-99"/>
      <use x="1622.513672" xlink:href="#DejaVuSans-121"/>
      <use x="1681.693359" xlink:href="#DejaVuSans-32"/>
      <use x="1713.480469" xlink:href="#DejaVuSans-97"/>
      <use x="1774.759766" xlink:href="#DejaVuSans-116"/>
      <use x="1813.96875" xlink:href="#DejaVuSans-32"/>
      <use x="1845.755859" xlink:href="#DejaVuSans-101"/>
      <use x="1907.279297" xlink:href="#DejaVuSans-97"/>
      <use x="1968.558594" xlink:href="#DejaVuSans-99"/>
      <use x="2023.539062" xlink:href="#DejaVuSans-104"/>
      <use x="2086.917969" xlink:href="#DejaVuSans-32"/>
      <use x="2118.705078" xlink:href="#DejaVuSans-115"/>
      <use x="2170.804688" xlink:href="#DejaVuSans-116"/>
      <use x="2210.013672" xlink:href="#DejaVuSans-97"/>
      <use x="2271.292969" xlink:href="#DejaVuSans-116"/>
      <use x="2310.501953" xlink:href="#DejaVuSans-101"/>
      <use x="2372.025391" xlink:href="#DejaVuSans-32"/>
      <use x="2403.8125" xlink:href="#DejaVuSans-120"/>
     </g>
    </g>
   </g>
   <g id="matplotlib.axis_2">
    <g id="ytick_1">
     <g id="line2d_35">
      <defs>
       <path d="M 0 0  L -3.5 0  " id="m532232baff" style="stroke:#000000;stroke-width:0.8;"/>
      </defs>
      <g>
       <use style="stroke:#000000;stroke-width:0.8;" x="57.6" xlink:href="#m532232baff" y="278.034798"/>
      </g>
     </g>
     <g id="text_36">
      <!-- 0.0 -->
      <g transform="translate(34.696875 281.834017)scale(0.1 -0.1)">
       <defs>
        <path d="M 31.78125 66.40625  Q 24.171875 66.40625 20.328125 58.90625  Q 16.5 51.421875 16.5 36.375  Q 16.5 21.390625 20.328125 13.890625  Q 24.171875 6.390625 31.78125 6.390625  Q 39.453125 6.390625 43.28125 13.890625  Q 47.125 21.390625 47.125 36.375  Q 47.125 51.421875 43.28125 58.90625  Q 39.453125 66.40625 31.78125 66.40625  z M 31.78125 74.21875  Q 44.046875 74.21875 50.515625 64.515625  Q 56.984375 54.828125 56.984375 36.375  Q 56.984375 17.96875 50.515625 8.265625  Q 44.046875 -1.421875 31.78125 -1.421875  Q 19.53125 -1.421875 13.0625 8.265625  Q 6.59375 17.96875 6.59375 36.375  Q 6.59375 54.828125 13.0625 64.515625  Q 19.53125 74.21875 31.78125 74.21875  z " id="DejaVuSans-48"/>
        <path d="M 10.6875 12.40625  L 21 12.40625  L 21 0  L 10.6875 0  z " id="DejaVuSans-46"/>
       </defs>
       <use xlink:href="#DejaVuSans-48"/>
       <use x="63.623047" xlink:href="#DejaVuSans-46"/>
       <use x="95.410156" xlink:href="#DejaVuSans-48"/>
      </g>
     </g>
    </g>
    <g id="ytick_2">
     <g id="line2d_36">
      <g>
       <use style="stroke:#000000;stroke-width:0.8;" x="57.6" xlink:href="#m532232baff" y="241.973004"/>
      </g>
     </g>
     <g id="text_37">
      <!-- 0.5 -->
      <g transform="translate(34.696875 245.772223)scale(0.1 -0.1)">
       <defs>
        <path d="M 10.796875 72.90625  L 49.515625 72.90625  L 49.515625 64.59375  L 19.828125 64.59375  L 19.828125 46.734375  Q 21.96875 47.46875 24.109375 47.828125  Q 26.265625 48.1875 28.421875 48.1875  Q 40.625 48.1875 47.75 41.5  Q 54.890625 34.8125 54.890625 23.390625  Q 54.890625 11.625 47.5625 5.09375  Q 40.234375 -1.421875 26.90625 -1.421875  Q 22.3125 -1.421875 17.546875 -0.640625  Q 12.796875 0.140625 7.71875 1.703125  L 7.71875 11.625  Q 12.109375 9.234375 16.796875 8.0625  Q 21.484375 6.890625 26.703125 6.890625  Q 35.15625 6.890625 40.078125 11.328125  Q 45.015625 15.765625 45.015625 23.390625  Q 45.015625 31 40.078125 35.4375  Q 35.15625 39.890625 26.703125 39.890625  Q 22.75 39.890625 18.8125 39.015625  Q 14.890625 38.140625 10.796875 36.28125  z " id="DejaVuSans-53"/>
       </defs>
       <use xlink:href="#DejaVuSans-48"/>
       <use x="63.623047" xlink:href="#DejaVuSans-46"/>
       <use x="95.410156" xlink:href="#DejaVuSans-53"/>
      </g>
     </g>
    </g>
    <g id="ytick_3">
     <g id="line2d_37">
      <g>
       <use style="stroke:#000000;stroke-width:0.8;" x="57.6" xlink:href="#m532232baff" y="205.91121"/>
      </g>
     </g>
     <g id="text_38">
      <!-- 1.0 -->
      <g transform="translate(34.696875 209.710429)scale(0.1 -0.1)">
       <defs>
        <path d="M 12.40625 8.296875  L 28.515625 8.296875  L 28.515625 63.921875  L 10.984375 60.40625  L 10.984375 69.390625  L 28.421875 72.90625  L 38.28125 72.90625  L 38.28125 8.296875  L 54.390625 8.296875  L 54.390625 0  L 12.40625 0  z " id="DejaVuSans-49"/>
       </defs>
       <use xlink:href="#DejaVuSans-49"/>
       <use x="63.623047" xlink:href="#DejaVuSans-46"/>
       <use x="95.410156" xlink:href="#DejaVuSans-48"/>
      </g>
     </g>
    </g>
    <g id="ytick_4">
     <g id="line2d_38">
      <g>
       <use style="stroke:#000000;stroke-width:0.8;" x="57.6" xlink:href="#m532232baff" y="169.849416"/>
      </g>
     </g>
     <g id="text_39">
      <!-- 1.5 -->
      <g transform="translate(34.696875 173.648635)scale(0.1 -0.1)">
       <use xlink:href="#DejaVuSans-49"/>
       <use x="63.623047" xlink:href="#DejaVuSans-46"/>
       <use x="95.410156" xlink:href="#DejaVuSans-53"/>
      </g>
     </g>
    </g>
    <g id="ytick_5">
     <g id="line2d_39">
      <g>
       <use style="stroke:#000000;stroke-width:0.8;" x="57.6" xlink:href="#m532232baff" y="133.787622"/>
      </g>
     </g>
     <g id="text_40">
      <!-- 2.0 -->
      <g transform="translate(34.696875 137.586841)scale(0.1 -0.1)">
       <defs>
        <path d="M 19.1875 8.296875  L 53.609375 8.296875  L 53.609375 0  L 7.328125 0  L 7.328125 8.296875  Q 12.9375 14.109375 22.625 23.890625  Q 32.328125 33.6875 34.8125 36.53125  Q 39.546875 41.84375 41.421875 45.53125  Q 43.3125 49.21875 43.3125 52.78125  Q 43.3125 58.59375 39.234375 62.25  Q 35.15625 65.921875 28.609375 65.921875  Q 23.96875 65.921875 18.8125 64.3125  Q 13.671875 62.703125 7.8125 59.421875  L 7.8125 69.390625  Q 13.765625 71.78125 18.9375 73  Q 24.125 74.21875 28.421875 74.21875  Q 39.75 74.21875 46.484375 68.546875  Q 53.21875 62.890625 53.21875 53.421875  Q 53.21875 48.921875 51.53125 44.890625  Q 49.859375 40.875 45.40625 35.40625  Q 44.1875 33.984375 37.640625 27.21875  Q 31.109375 20.453125 19.1875 8.296875  z " id="DejaVuSans-50"/>
       </defs>
       <use xlink:href="#DejaVuSans-50"/>
       <use x="63.623047" xlink:href="#DejaVuSans-46"/>
       <use x="95.410156" xlink:href="#DejaVuSans-48"/>
      </g>
     </g>
    </g>
    <g id="ytick_6">
     <g id="line2d_40">
      <g>
       <use style="stroke:#000000;stroke-width:0.8;" x="57.6" xlink:href="#m532232baff" y="97.725828"/>
      </g>
     </g>
     <g id="text_41">
      <!-- 2.5 -->
      <g transform="translate(34.696875 101.525047)scale(0.1 -0.1)">
       <use xlink:href="#DejaVuSans-50"/>
       <use x="63.623047" xlink:href="#DejaVuSans-46"/>
       <use x="95.410156" xlink:href="#DejaVuSans-53"/>
      </g>
     </g>
    </g>
    <g id="ytick_7">
     <g id="line2d_41">
      <g>
       <use style="stroke:#000000;stroke-width:0.8;" x="57.6" xlink:href="#m532232baff" y="61.664034"/>
      </g>
     </g>
     <g id="text_42">
      <!-- 3.0 -->
      <g transform="translate(34.696875 65.463253)scale(0.1 -0.1)">
       <defs>
        <path d="M 40.578125 39.3125  Q 47.65625 37.796875 51.625 33  Q 55.609375 28.21875 55.609375 21.1875  Q 55.609375 10.40625 48.1875 4.484375  Q 40.765625 -1.421875 27.09375 -1.421875  Q 22.515625 -1.421875 17.65625 -0.515625  Q 12.796875 0.390625 7.625 2.203125  L 7.625 11.71875  Q 11.71875 9.328125 16.59375 8.109375  Q 21.484375 6.890625 26.8125 6.890625  Q 36.078125 6.890625 40.9375 10.546875  Q 45.796875 14.203125 45.796875 21.1875  Q 45.796875 27.640625 41.28125 31.265625  Q 36.765625 34.90625 28.71875 34.90625  L 20.21875 34.90625  L 20.21875 43.015625  L 29.109375 43.015625  Q 36.375 43.015625 40.234375 45.921875  Q 44.09375 48.828125 44.09375 54.296875  Q 44.09375 59.90625 40.109375 62.90625  Q 36.140625 65.921875 28.71875 65.921875  Q 24.65625 65.921875 20.015625 65.03125  Q 15.375 64.15625 9.8125 62.3125  L 9.8125 71.09375  Q 15.4375 72.65625 20.34375 73.4375  Q 25.25 74.21875 29.59375 74.21875  Q 40.828125 74.21875 47.359375 69.109375  Q 53.90625 64.015625 53.90625 55.328125  Q 53.90625 49.265625 50.4375 45.09375  Q 46.96875 40.921875 40.578125 39.3125  z " id="DejaVuSans-51"/>
       </defs>
       <use xlink:href="#DejaVuSans-51"/>
       <use x="63.623047" xlink:href="#DejaVuSans-46"/>
       <use x="95.410156" xlink:href="#DejaVuSans-48"/>
      </g>
     </g>
    </g>
    <g id="text_43">
     <!-- Z_x -->
     <g transform="translate(28.339062 183.412375)rotate(-90)scale(0.1 -0.1)">
      <defs>
       <path d="M 5.609375 72.90625  L 62.890625 72.90625  L 62.890625 65.375  L 16.796875 8.296875  L 64.015625 8.296875  L 64.015625 0  L 4.5 0  L 4.5 7.515625  L 50.59375 64.59375  L 5.609375 64.59375  z " id="DejaVuSans-90"/>
       <path d="M 50.984375 -16.609375  L 50.984375 -23.578125  L -0.984375 -23.578125  L -0.984375 -16.609375  z " id="DejaVuSans-95"/>
      </defs>
      <use xlink:href="#DejaVuSans-90"/>
      <use x="68.505859" xlink:href="#DejaVuSans-95"/>
      <use x="118.505859" xlink:href="#DejaVuSans-120"/>
     </g>
    </g>
   </g>
   <g id="line2d_42">
    <path clip-path="url(#p4dfebb6503)" d="M 73.832727 205.91121  L 89.106765 209.882983  L 105.030762 213.791072  L 121.279738 217.547998  L 137.853694 221.153814  L 142.728387 222.163362  L 159.627322 218.549897  L 176.201278 214.779013  L 192.125274 210.931022  L 207.724292 206.93469  L 222.998329 202.791095  L 237.947387 198.501927  L 252.246486 194.170647  L 266.220606 189.710001  L 279.869746 185.12414  L 293.193907 180.417895  L 306.193088 175.596793  L 319.192269 170.537587  L 331.86647 165.364387  L 344.215692 160.084468  L 356.239934 154.705846  L 368.264177 149.081955  L 379.96344 143.364011  L 391.337723 137.561923  L 398.487273 133.787622  L 398.487273 133.787622  " style="fill:none;stroke:#0000ff;stroke-dasharray:5.55,2.4;stroke-dashoffset:0;stroke-opacity:0.8;stroke-width:1.5;"/>
   </g>
   <g id="line2d_43">
    <path clip-path="url(#p4dfebb6503)" d="M 73.832727 209.398818  L 83.572364 211.929534  L 93.312 211.541657  L 103.051636 212.988787  L 112.791273 215.321169  L 122.530909 217.814239  L 132.270545 220.175139  L 142.010182 222.32486  L 151.749818 218.698041  L 161.489455 215.864068  L 171.229091 213.114955  L 180.968727 210.520466  L 190.708364 208.029192  L 200.448 205.587528  L 210.187636 203.14945  L 219.927273 200.732315  L 229.666909 198.341456  L 239.406545 195.925448  L 249.146182 193.490189  L 258.885818 190.919911  L 268.625455 188.213804  L 278.365091 185.306974  L 288.104727 182.156369  L 297.844364 178.730352  L 307.584 175.030417  L 317.323636 171.049996  L 327.063273 166.803903  L 336.802909 162.144401  L 346.542545 157.118814  L 356.282182 151.798813  L 366.021818 146.373007  L 375.761455 141.041682  L 385.501091 135.686971  L 395.240727 129.361508  " style="fill:none;stroke:#ffff00;stroke-linecap:square;stroke-opacity:0.6;stroke-width:1.5;"/>
   </g>
   <g id="patch_3">
    <path d="M 57.6 307.584  L 57.6 41.472  " style="fill:none;stroke:#000000;stroke-linecap:square;stroke-linejoin:miter;stroke-width:0.8;"/>
   </g>
   <g id="patch_4">
    <path d="M 414.72 307.584  L 414.72 41.472  " style="fill:none;stroke:#000000;stroke-linecap:square;stroke-linejoin:miter;stroke-width:0.8;"/>
   </g>
   <g id="patch_5">
    <path d="M 57.6 307.584  L 414.72 307.584  " style="fill:none;stroke:#000000;stroke-linecap:square;stroke-linejoin:miter;stroke-width:0.8;"/>
   </g>
   <g id="patch_6">
    <path d="M 57.6 41.472  L 414.72 41.472  " style="fill:none;stroke:#000000;stroke-linecap:square;stroke-linejoin:miter;stroke-width:0.8;"/>
   </g>
   <g id="legend_1">
    <g id="patch_7">
     <path d="M 335.52 78.82825  L 407.72 78.82825  Q 409.72 78.82825 409.72 76.82825  L 409.72 48.472  Q 409.72 46.472 407.72 46.472  L 335.52 46.472  Q 333.52 46.472 333.52 48.472  L 333.52 76.82825  Q 333.52 78.82825 335.52 78.82825  z " style="fill:#ffffff;opacity:0.8;stroke:#cccccc;stroke-linejoin:miter;"/>
    </g>
    <g id="line2d_44">
     <path d="M 337.52 54.570437  L 357.52 54.570437  " style="fill:none;stroke:#0000ff;stroke-dasharray:5.55,2.4;stroke-dashoffset:0;stroke-opacity:0.8;stroke-width:1.5;"/>
    </g>
    <g id="line2d_45"/>
    <g id="text_44">
     <!-- Analytic -->
     <g transform="translate(365.52 58.070437)scale(0.1 -0.1)">
      <defs>
       <path d="M 34.1875 63.1875  L 20.796875 26.90625  L 47.609375 26.90625  z M 28.609375 72.90625  L 39.796875 72.90625  L 67.578125 0  L 57.328125 0  L 50.6875 18.703125  L 17.828125 18.703125  L 11.1875 0  L 0.78125 0  z " id="DejaVuSans-65"/>
      </defs>
      <use xlink:href="#DejaVuSans-65"/>
      <use x="68.408203" xlink:href="#DejaVuSans-110"/>
      <use x="131.787109" xlink:href="#DejaVuSans-97"/>
      <use x="193.066406" xlink:href="#DejaVuSans-108"/>
      <use x="220.849609" xlink:href="#DejaVuSans-121"/>
      <use x="280.029297" xlink:href="#DejaVuSans-116"/>
      <use x="319.238281" xlink:href="#DejaVuSans-105"/>
      <use x="347.021484" xlink:href="#DejaVuSans-99"/>
     </g>
    </g>
    <g id="line2d_46">
     <path d="M 337.52 69.248562  L 357.52 69.248562  " style="fill:none;stroke:#ffff00;stroke-linecap:square;stroke-opacity:0.6;stroke-width:1.5;"/>
    </g>
    <g id="line2d_47"/>
    <g id="text_45">
     <!-- Median -->
     <g transform="translate(365.52 72.748562)scale(0.1 -0.1)">
      <defs>
       <path d="M 9.8125 72.90625  L 24.515625 72.90625  L 43.109375 23.296875  L 61.8125 72.90625  L 76.515625 72.90625  L 76.515625 0  L 66.890625 0  L 66.890625 64.015625  L 48.09375 14.015625  L 38.1875 14.015625  L 19.390625 64.015625  L 19.390625 0  L 9.8125 0  z " id="DejaVuSans-77"/>
      </defs>
      <use xlink:href="#DejaVuSans-77"/>
      <use x="86.279297" xlink:href="#DejaVuSans-101"/>
      <use x="147.802734" xlink:href="#DejaVuSans-100"/>
      <use x="211.279297" xlink:href="#DejaVuSans-105"/>
      <use x="239.0625" xlink:href="#DejaVuSans-97"/>
      <use x="300.341797" xlink:href="#DejaVuSans-110"/>
     </g>
    </g>
   </g>
  </g>
 </g>
 <defs>
  <clipPath id="p4dfebb6503">
   <rect height="266.112" width="357.12" x="57.6" y="41.472"/>
  </clipPath>
 </defs>
</svg>