<?xml version="1.0" encoding="utf-8" standalone="no"?>
<!DOCTYPE svg PUBLIC "-//W3C//DTD SVG 1.1//EN"
  "http://www.w3.org/Graphics/SVG/1.1/DTD/svg11.dtd">
<svg height="396pt" version="1.1" viewBox="0 0 576 396" width="576pt" xmlns="http://www.w3.org/2000/svg" xmlns:xlink="http://www.w3.org/1999/xlink">
 <metadata>
  <rdf:RDF xmlns:cc="http://creativecommons.org/ns#" xmlns:dc="http://purl.org/dc/elements/1.1/" xmlns:rdf="http://www.w3.org/1999/02/22-rdf-syntax-ns#">
   <cc:Work>
    <dc:type rdf:resource="http://purl.org/dc/dcmitype/StillImage"/>
    <dc:date>2021-10-08T05:14:32.672885</dc:date>
    <dc:format>image/svg+xml</dc:format>
    <dc:creator>
     <cc:Agent>
      <dc:title>Matplotlib v3.4.2, https://matplotlib.org/</dc:title>
     </cc:Agent>
    </dc:creator>
   </cc:Work>
  </rdf:RDF>
 </metadata>
 <defs>
  <style type="text/css">*{stroke-linecap:butt;stroke-linejoin:round;}</style>
 </defs>
 <g id="figure_1">
  <g id="patch_1">
   <path d="M 0 396 
L 576 396 
L 576 0 
L 0 0 
z
" style="fill:#ffffff;"/>
  </g>
  <g id="axes_1">
   <g id="patch_2">
    <path d="M 72 352.44 
L 518.4 352.44 
L 518.4 47.52 
L 72 47.52 
z
" style="fill:#eaeaf2;"/>
   </g>
   <g id="matplotlib.axis_1">
    <g id="xtick_1">
     <g id="line2d_1">
      <path clip-path="url(#p6038ae22cf)" d="M 97.229645 352.44 
L 97.229645 47.52 
" style="fill:none;stroke:#ffffff;stroke-linecap:round;"/>
     </g>
     <g id="line2d_2"/>
     <g id="text_1">
      <!-- 10.21 -->
      <g style="fill:#262626;" transform="translate(84.718707 366.686875)scale(0.1 -0.1)">
       <defs>
        <path d="M 488 0 
L 488 478 
L 1609 478 
L 1609 3866 
L 616 3156 
L 616 3688 
L 1656 4403 
L 2175 4403 
L 2175 478 
L 3247 478 
L 3247 0 
L 488 0 
z
" id="LiberationSans-31" transform="scale(0.015625)"/>
        <path d="M 3309 2203 
Q 3309 1100 2920 518 
Q 2531 -63 1772 -63 
Q 1013 -63 631 515 
Q 250 1094 250 2203 
Q 250 3338 620 3903 
Q 991 4469 1791 4469 
Q 2569 4469 2939 3897 
Q 3309 3325 3309 2203 
z
M 2738 2203 
Q 2738 3156 2517 3584 
Q 2297 4013 1791 4013 
Q 1272 4013 1045 3591 
Q 819 3169 819 2203 
Q 819 1266 1048 831 
Q 1278 397 1778 397 
Q 2275 397 2506 840 
Q 2738 1284 2738 2203 
z
" id="LiberationSans-30" transform="scale(0.015625)"/>
        <path d="M 584 0 
L 584 684 
L 1194 684 
L 1194 0 
L 584 0 
z
" id="LiberationSans-2e" transform="scale(0.015625)"/>
        <path d="M 322 0 
L 322 397 
Q 481 763 711 1042 
Q 941 1322 1194 1548 
Q 1447 1775 1695 1969 
Q 1944 2163 2144 2356 
Q 2344 2550 2467 2762 
Q 2591 2975 2591 3244 
Q 2591 3606 2378 3806 
Q 2166 4006 1788 4006 
Q 1428 4006 1195 3811 
Q 963 3616 922 3263 
L 347 3316 
Q 409 3844 795 4156 
Q 1181 4469 1788 4469 
Q 2453 4469 2811 4155 
Q 3169 3841 3169 3263 
Q 3169 3006 3051 2753 
Q 2934 2500 2703 2247 
Q 2472 1994 1819 1463 
Q 1459 1169 1246 933 
Q 1034 697 941 478 
L 3238 478 
L 3238 0 
L 322 0 
z
" id="LiberationSans-32" transform="scale(0.015625)"/>
       </defs>
       <use xlink:href="#LiberationSans-31"/>
       <use x="55.615234" xlink:href="#LiberationSans-30"/>
       <use x="111.230469" xlink:href="#LiberationSans-2e"/>
       <use x="139.013672" xlink:href="#LiberationSans-32"/>
       <use x="194.628906" xlink:href="#LiberationSans-31"/>
      </g>
     </g>
    </g>
    <g id="xtick_2">
     <g id="line2d_3">
      <path clip-path="url(#p6038ae22cf)" d="M 189.877414 352.44 
L 189.877414 47.52 
" style="fill:none;stroke:#ffffff;stroke-linecap:round;"/>
     </g>
     <g id="line2d_4"/>
     <g id="text_2">
      <!-- 10.22 -->
      <g style="fill:#262626;" transform="translate(177.366477 366.686875)scale(0.1 -0.1)">
       <use xlink:href="#LiberationSans-31"/>
       <use x="55.615234" xlink:href="#LiberationSans-30"/>
       <use x="111.230469" xlink:href="#LiberationSans-2e"/>
       <use x="139.013672" xlink:href="#LiberationSans-32"/>
       <use x="194.628906" xlink:href="#LiberationSans-32"/>
      </g>
     </g>
    </g>
    <g id="xtick_3">
     <g id="line2d_5">
      <path clip-path="url(#p6038ae22cf)" d="M 282.525184 352.44 
L 282.525184 47.52 
" style="fill:none;stroke:#ffffff;stroke-linecap:round;"/>
     </g>
     <g id="line2d_6"/>
     <g id="text_3">
      <!-- 10.23 -->
      <g style="fill:#262626;" transform="translate(270.014247 366.686875)scale(0.1 -0.1)">
       <defs>
        <path d="M 3278 1216 
Q 3278 606 2890 271 
Q 2503 -63 1784 -63 
Q 1116 -63 717 239 
Q 319 541 244 1131 
L 825 1184 
Q 938 403 1784 403 
Q 2209 403 2451 612 
Q 2694 822 2694 1234 
Q 2694 1594 2417 1795 
Q 2141 1997 1619 1997 
L 1300 1997 
L 1300 2484 
L 1606 2484 
Q 2069 2484 2323 2686 
Q 2578 2888 2578 3244 
Q 2578 3597 2370 3801 
Q 2163 4006 1753 4006 
Q 1381 4006 1151 3815 
Q 922 3625 884 3278 
L 319 3322 
Q 381 3863 767 4166 
Q 1153 4469 1759 4469 
Q 2422 4469 2789 4161 
Q 3156 3853 3156 3303 
Q 3156 2881 2920 2617 
Q 2684 2353 2234 2259 
L 2234 2247 
Q 2728 2194 3003 1916 
Q 3278 1638 3278 1216 
z
" id="LiberationSans-33" transform="scale(0.015625)"/>
       </defs>
       <use xlink:href="#LiberationSans-31"/>
       <use x="55.615234" xlink:href="#LiberationSans-30"/>
       <use x="111.230469" xlink:href="#LiberationSans-2e"/>
       <use x="139.013672" xlink:href="#LiberationSans-32"/>
       <use x="194.628906" xlink:href="#LiberationSans-33"/>
      </g>
     </g>
    </g>
    <g id="xtick_4">
     <g id="line2d_7">
      <path clip-path="url(#p6038ae22cf)" d="M 375.172954 352.44 
L 375.172954 47.52 
" style="fill:none;stroke:#ffffff;stroke-linecap:round;"/>
     </g>
     <g id="line2d_8"/>
     <g id="text_4">
      <!-- 10.24 -->
      <g style="fill:#262626;" transform="translate(362.662016 366.686875)scale(0.1 -0.1)">
       <defs>
        <path d="M 2753 997 
L 2753 0 
L 2222 0 
L 2222 997 
L 147 997 
L 147 1434 
L 2163 4403 
L 2753 4403 
L 2753 1441 
L 3372 1441 
L 3372 997 
L 2753 997 
z
M 2222 3769 
Q 2216 3750 2134 3603 
Q 2053 3456 2013 3397 
L 884 1734 
L 716 1503 
L 666 1441 
L 2222 1441 
L 2222 3769 
z
" id="LiberationSans-34" transform="scale(0.015625)"/>
       </defs>
       <use xlink:href="#LiberationSans-31"/>
       <use x="55.615234" xlink:href="#LiberationSans-30"/>
       <use x="111.230469" xlink:href="#LiberationSans-2e"/>
       <use x="139.013672" xlink:href="#LiberationSans-32"/>
       <use x="194.628906" xlink:href="#LiberationSans-34"/>
      </g>
     </g>
    </g>
    <g id="xtick_5">
     <g id="line2d_9">
      <path clip-path="url(#p6038ae22cf)" d="M 467.820723 352.44 
L 467.820723 47.52 
" style="fill:none;stroke:#ffffff;stroke-linecap:round;"/>
     </g>
     <g id="line2d_10"/>
     <g id="text_5">
      <!-- 10.25 -->
      <g style="fill:#262626;" transform="translate(455.309786 366.686875)scale(0.1 -0.1)">
       <defs>
        <path d="M 3291 1434 
Q 3291 738 2877 337 
Q 2463 -63 1728 -63 
Q 1113 -63 734 206 
Q 356 475 256 984 
L 825 1050 
Q 1003 397 1741 397 
Q 2194 397 2450 670 
Q 2706 944 2706 1422 
Q 2706 1838 2448 2094 
Q 2191 2350 1753 2350 
Q 1525 2350 1328 2278 
Q 1131 2206 934 2034 
L 384 2034 
L 531 4403 
L 3034 4403 
L 3034 3925 
L 1044 3925 
L 959 2528 
Q 1325 2809 1869 2809 
Q 2519 2809 2905 2428 
Q 3291 2047 3291 1434 
z
" id="LiberationSans-35" transform="scale(0.015625)"/>
       </defs>
       <use xlink:href="#LiberationSans-31"/>
       <use x="55.615234" xlink:href="#LiberationSans-30"/>
       <use x="111.230469" xlink:href="#LiberationSans-2e"/>
       <use x="139.013672" xlink:href="#LiberationSans-32"/>
       <use x="194.628906" xlink:href="#LiberationSans-35"/>
      </g>
     </g>
    </g>
    <g id="text_6">
     <!-- Return Particles -->
     <g style="fill:#262626;" transform="translate(256.076094 380.733437)scale(0.11 -0.11)">
      <defs>
       <path d="M 3638 0 
L 2494 1828 
L 1122 1828 
L 1122 0 
L 525 0 
L 525 4403 
L 2597 4403 
Q 3341 4403 3745 4070 
Q 4150 3738 4150 3144 
Q 4150 2653 3864 2318 
Q 3578 1984 3075 1897 
L 4325 0 
L 3638 0 
z
M 3550 3138 
Q 3550 3522 3289 3723 
Q 3028 3925 2538 3925 
L 1122 3925 
L 1122 2300 
L 2563 2300 
Q 3034 2300 3292 2520 
Q 3550 2741 3550 3138 
z
" id="LiberationSans-52" transform="scale(0.015625)"/>
       <path d="M 863 1572 
Q 863 991 1103 675 
Q 1344 359 1806 359 
Q 2172 359 2392 506 
Q 2613 653 2691 878 
L 3184 738 
Q 2881 -63 1806 -63 
Q 1056 -63 664 384 
Q 272 831 272 1713 
Q 272 2550 664 2997 
Q 1056 3444 1784 3444 
Q 3275 3444 3275 1647 
L 3275 1572 
L 863 1572 
z
M 2694 2003 
Q 2647 2538 2422 2783 
Q 2197 3028 1775 3028 
Q 1366 3028 1127 2754 
Q 888 2481 869 2003 
L 2694 2003 
z
" id="LiberationSans-65" transform="scale(0.015625)"/>
       <path d="M 1731 25 
Q 1453 -50 1163 -50 
Q 488 -50 488 716 
L 488 2972 
L 97 2972 
L 97 3381 
L 509 3381 
L 675 4138 
L 1050 4138 
L 1050 3381 
L 1675 3381 
L 1675 2972 
L 1050 2972 
L 1050 838 
Q 1050 594 1129 495 
Q 1209 397 1406 397 
Q 1519 397 1731 441 
L 1731 25 
z
" id="LiberationSans-74" transform="scale(0.015625)"/>
       <path d="M 981 3381 
L 981 1238 
Q 981 903 1047 718 
Q 1113 534 1256 453 
Q 1400 372 1678 372 
Q 2084 372 2318 650 
Q 2553 928 2553 1422 
L 2553 3381 
L 3116 3381 
L 3116 722 
Q 3116 131 3134 0 
L 2603 0 
Q 2600 16 2597 84 
Q 2594 153 2589 242 
Q 2584 331 2578 578 
L 2569 578 
Q 2375 228 2120 82 
Q 1866 -63 1488 -63 
Q 931 -63 673 214 
Q 416 491 416 1128 
L 416 3381 
L 981 3381 
z
" id="LiberationSans-75" transform="scale(0.015625)"/>
       <path d="M 444 0 
L 444 2594 
Q 444 2950 425 3381 
L 956 3381 
Q 981 2806 981 2691 
L 994 2691 
Q 1128 3125 1303 3284 
Q 1478 3444 1797 3444 
Q 1909 3444 2025 3413 
L 2025 2897 
Q 1913 2928 1725 2928 
Q 1375 2928 1190 2626 
Q 1006 2325 1006 1763 
L 1006 0 
L 444 0 
z
" id="LiberationSans-72" transform="scale(0.015625)"/>
       <path d="M 2578 0 
L 2578 2144 
Q 2578 2478 2512 2662 
Q 2447 2847 2303 2928 
Q 2159 3009 1881 3009 
Q 1475 3009 1240 2731 
Q 1006 2453 1006 1959 
L 1006 0 
L 444 0 
L 444 2659 
Q 444 3250 425 3381 
L 956 3381 
Q 959 3366 962 3297 
Q 966 3228 970 3139 
Q 975 3050 981 2803 
L 991 2803 
Q 1184 3153 1439 3298 
Q 1694 3444 2072 3444 
Q 2628 3444 2886 3167 
Q 3144 2891 3144 2253 
L 3144 0 
L 2578 0 
z
" id="LiberationSans-6e" transform="scale(0.015625)"/>
       <path id="LiberationSans-20" transform="scale(0.015625)"/>
       <path d="M 3931 3078 
Q 3931 2453 3523 2084 
Q 3116 1716 2416 1716 
L 1122 1716 
L 1122 0 
L 525 0 
L 525 4403 
L 2378 4403 
Q 3119 4403 3525 4056 
Q 3931 3709 3931 3078 
z
M 3331 3072 
Q 3331 3925 2306 3925 
L 1122 3925 
L 1122 2188 
L 2331 2188 
Q 3331 2188 3331 3072 
z
" id="LiberationSans-50" transform="scale(0.015625)"/>
       <path d="M 1294 -63 
Q 784 -63 528 206 
Q 272 475 272 944 
Q 272 1469 617 1750 
Q 963 2031 1731 2050 
L 2491 2063 
L 2491 2247 
Q 2491 2659 2316 2837 
Q 2141 3016 1766 3016 
Q 1388 3016 1216 2887 
Q 1044 2759 1009 2478 
L 422 2531 
Q 566 3444 1778 3444 
Q 2416 3444 2737 3151 
Q 3059 2859 3059 2306 
L 3059 850 
Q 3059 600 3125 473 
Q 3191 347 3375 347 
Q 3456 347 3559 369 
L 3559 19 
Q 3347 -31 3125 -31 
Q 2813 -31 2670 133 
Q 2528 297 2509 647 
L 2491 647 
Q 2275 259 1989 98 
Q 1703 -63 1294 -63 
z
M 1422 359 
Q 1731 359 1972 500 
Q 2213 641 2352 886 
Q 2491 1131 2491 1391 
L 2491 1669 
L 1875 1656 
Q 1478 1650 1273 1575 
Q 1069 1500 959 1344 
Q 850 1188 850 934 
Q 850 659 998 509 
Q 1147 359 1422 359 
z
" id="LiberationSans-61" transform="scale(0.015625)"/>
       <path d="M 428 4100 
L 428 4638 
L 991 4638 
L 991 4100 
L 428 4100 
z
M 428 0 
L 428 3381 
L 991 3381 
L 991 0 
L 428 0 
z
" id="LiberationSans-69" transform="scale(0.015625)"/>
       <path d="M 859 1706 
Q 859 1031 1071 706 
Q 1284 381 1713 381 
Q 2013 381 2214 543 
Q 2416 706 2463 1044 
L 3031 1006 
Q 2966 519 2616 228 
Q 2266 -63 1728 -63 
Q 1019 -63 645 385 
Q 272 834 272 1694 
Q 272 2547 647 2995 
Q 1022 3444 1722 3444 
Q 2241 3444 2583 3175 
Q 2925 2906 3013 2434 
L 2434 2391 
Q 2391 2672 2212 2837 
Q 2034 3003 1706 3003 
Q 1259 3003 1059 2706 
Q 859 2409 859 1706 
z
" id="LiberationSans-63" transform="scale(0.015625)"/>
       <path d="M 431 0 
L 431 4638 
L 994 4638 
L 994 0 
L 431 0 
z
" id="LiberationSans-6c" transform="scale(0.015625)"/>
       <path d="M 2969 934 
Q 2969 456 2608 196 
Q 2247 -63 1597 -63 
Q 966 -63 623 145 
Q 281 353 178 794 
L 675 891 
Q 747 619 972 492 
Q 1197 366 1597 366 
Q 2025 366 2223 497 
Q 2422 628 2422 891 
Q 2422 1091 2284 1216 
Q 2147 1341 1841 1422 
L 1438 1528 
Q 953 1653 748 1773 
Q 544 1894 428 2066 
Q 313 2238 313 2488 
Q 313 2950 642 3192 
Q 972 3434 1603 3434 
Q 2163 3434 2492 3237 
Q 2822 3041 2909 2606 
L 2403 2544 
Q 2356 2769 2151 2889 
Q 1947 3009 1603 3009 
Q 1222 3009 1040 2893 
Q 859 2778 859 2544 
Q 859 2400 934 2306 
Q 1009 2213 1156 2147 
Q 1303 2081 1775 1966 
Q 2222 1853 2419 1758 
Q 2616 1663 2730 1547 
Q 2844 1431 2906 1279 
Q 2969 1128 2969 934 
z
" id="LiberationSans-73" transform="scale(0.015625)"/>
      </defs>
      <use xlink:href="#LiberationSans-52"/>
      <use x="72.216797" xlink:href="#LiberationSans-65"/>
      <use x="127.832031" xlink:href="#LiberationSans-74"/>
      <use x="155.615234" xlink:href="#LiberationSans-75"/>
      <use x="211.230469" xlink:href="#LiberationSans-72"/>
      <use x="244.53125" xlink:href="#LiberationSans-6e"/>
      <use x="300.146484" xlink:href="#LiberationSans-20"/>
      <use x="327.929688" xlink:href="#LiberationSans-50"/>
      <use x="394.628906" xlink:href="#LiberationSans-61"/>
      <use x="450.244141" xlink:href="#LiberationSans-72"/>
      <use x="483.544922" xlink:href="#LiberationSans-74"/>
      <use x="511.328125" xlink:href="#LiberationSans-69"/>
      <use x="533.544922" xlink:href="#LiberationSans-63"/>
      <use x="583.544922" xlink:href="#LiberationSans-6c"/>
      <use x="605.761719" xlink:href="#LiberationSans-65"/>
      <use x="661.376953" xlink:href="#LiberationSans-73"/>
     </g>
    </g>
   </g>
   <g id="matplotlib.axis_2">
    <g id="ytick_1">
     <g id="line2d_11">
      <path clip-path="url(#p6038ae22cf)" d="M 72 352.44 
L 518.4 352.44 
" style="fill:none;stroke:#ffffff;stroke-linecap:round;"/>
     </g>
     <g id="line2d_12"/>
     <g id="text_7">
      <!-- 0 -->
      <g style="fill:#262626;" transform="translate(59.439062 356.063438)scale(0.1 -0.1)">
       <use xlink:href="#LiberationSans-30"/>
      </g>
     </g>
    </g>
    <g id="ytick_2">
     <g id="line2d_13">
      <path clip-path="url(#p6038ae22cf)" d="M 72 290.646196 
L 518.4 290.646196 
" style="fill:none;stroke:#ffffff;stroke-linecap:round;"/>
     </g>
     <g id="line2d_14"/>
     <g id="text_8">
      <!-- 5000 -->
      <g style="fill:#262626;" transform="translate(42.75625 294.269633)scale(0.1 -0.1)">
       <use xlink:href="#LiberationSans-35"/>
       <use x="55.615234" xlink:href="#LiberationSans-30"/>
       <use x="111.230469" xlink:href="#LiberationSans-30"/>
       <use x="166.845703" xlink:href="#LiberationSans-30"/>
      </g>
     </g>
    </g>
    <g id="ytick_3">
     <g id="line2d_15">
      <path clip-path="url(#p6038ae22cf)" d="M 72 228.852392 
L 518.4 228.852392 
" style="fill:none;stroke:#ffffff;stroke-linecap:round;"/>
     </g>
     <g id="line2d_16"/>
     <g id="text_9">
      <!-- 10000 -->
      <g style="fill:#262626;" transform="translate(37.195312 232.475829)scale(0.1 -0.1)">
       <use xlink:href="#LiberationSans-31"/>
       <use x="55.615234" xlink:href="#LiberationSans-30"/>
       <use x="111.230469" xlink:href="#LiberationSans-30"/>
       <use x="166.845703" xlink:href="#LiberationSans-30"/>
       <use x="222.460938" xlink:href="#LiberationSans-30"/>
      </g>
     </g>
    </g>
    <g id="ytick_4">
     <g id="line2d_17">
      <path clip-path="url(#p6038ae22cf)" d="M 72 167.058587 
L 518.4 167.058587 
" style="fill:none;stroke:#ffffff;stroke-linecap:round;"/>
     </g>
     <g id="line2d_18"/>
     <g id="text_10">
      <!-- 15000 -->
      <g style="fill:#262626;" transform="translate(37.195312 170.682025)scale(0.1 -0.1)">
       <use xlink:href="#LiberationSans-31"/>
       <use x="55.615234" xlink:href="#LiberationSans-35"/>
       <use x="111.230469" xlink:href="#LiberationSans-30"/>
       <use x="166.845703" xlink:href="#LiberationSans-30"/>
       <use x="222.460938" xlink:href="#LiberationSans-30"/>
      </g>
     </g>
    </g>
    <g id="ytick_5">
     <g id="line2d_19">
      <path clip-path="url(#p6038ae22cf)" d="M 72 105.264783 
L 518.4 105.264783 
" style="fill:none;stroke:#ffffff;stroke-linecap:round;"/>
     </g>
     <g id="line2d_20"/>
     <g id="text_11">
      <!-- 20000 -->
      <g style="fill:#262626;" transform="translate(37.195312 108.888221)scale(0.1 -0.1)">
       <use xlink:href="#LiberationSans-32"/>
       <use x="55.615234" xlink:href="#LiberationSans-30"/>
       <use x="111.230469" xlink:href="#LiberationSans-30"/>
       <use x="166.845703" xlink:href="#LiberationSans-30"/>
       <use x="222.460938" xlink:href="#LiberationSans-30"/>
      </g>
     </g>
    </g>
    <g id="text_12">
     <!-- Density -->
     <g style="fill:#262626;" transform="translate(30.912812 218.319063)rotate(-90)scale(0.11 -0.11)">
      <defs>
       <path d="M 4316 2247 
Q 4316 1566 4050 1055 
Q 3784 544 3296 272 
Q 2809 0 2172 0 
L 525 0 
L 525 4403 
L 1981 4403 
Q 3100 4403 3708 3842 
Q 4316 3281 4316 2247 
z
M 3716 2247 
Q 3716 3066 3267 3495 
Q 2819 3925 1969 3925 
L 1122 3925 
L 1122 478 
L 2103 478 
Q 2588 478 2955 690 
Q 3322 903 3519 1303 
Q 3716 1703 3716 2247 
z
" id="LiberationSans-44" transform="scale(0.015625)"/>
       <path d="M 597 -1328 
Q 366 -1328 209 -1294 
L 209 -872 
Q 328 -891 472 -891 
Q 997 -891 1303 -119 
L 1356 16 
L 16 3381 
L 616 3381 
L 1328 1513 
Q 1344 1469 1366 1408 
Q 1388 1347 1506 1000 
Q 1625 653 1634 613 
L 1853 1228 
L 2594 3381 
L 3188 3381 
L 1888 0 
Q 1678 -541 1497 -805 
Q 1316 -1069 1095 -1198 
Q 875 -1328 597 -1328 
z
" id="LiberationSans-79" transform="scale(0.015625)"/>
      </defs>
      <use xlink:href="#LiberationSans-44"/>
      <use x="72.216797" xlink:href="#LiberationSans-65"/>
      <use x="127.832031" xlink:href="#LiberationSans-6e"/>
      <use x="183.447266" xlink:href="#LiberationSans-73"/>
      <use x="233.447266" xlink:href="#LiberationSans-69"/>
      <use x="255.664062" xlink:href="#LiberationSans-74"/>
      <use x="283.447266" xlink:href="#LiberationSans-79"/>
     </g>
    </g>
   </g>
   <g id="patch_3">
    <path clip-path="url(#p6038ae22cf)" d="M 496.889781 352.44 
L 497.013479 352.44 
L 497.013479 279.84 
L 496.889781 279.84 
z
" style="fill:#4c72b0;opacity:0.5;"/>
   </g>
   <g id="patch_4">
    <path clip-path="url(#p6038ae22cf)" d="M 497.013479 352.44 
L 497.137177 352.44 
L 497.137177 297.99 
L 497.013479 297.99 
z
" style="fill:#4c72b0;opacity:0.5;"/>
   </g>
   <g id="patch_5">
    <path clip-path="url(#p6038ae22cf)" d="M 497.137177 352.44 
L 497.25204 352.44 
L 497.25204 293.801538 
L 497.137177 293.801538 
z
" style="fill:#4c72b0;opacity:0.5;"/>
   </g>
   <g id="patch_6">
    <path clip-path="url(#p6038ae22cf)" d="M 497.25204 352.44 
L 497.375738 352.44 
L 497.375738 279.84 
L 497.25204 279.84 
z
" style="fill:#4c72b0;opacity:0.5;"/>
   </g>
   <g id="patch_7">
    <path clip-path="url(#p6038ae22cf)" d="M 497.375738 352.44 
L 497.499436 352.44 
L 497.499436 279.84 
L 497.375738 279.84 
z
" style="fill:#4c72b0;opacity:0.5;"/>
   </g>
   <g id="patch_8">
    <path clip-path="url(#p6038ae22cf)" d="M 497.499436 352.44 
L 497.623134 352.44 
L 497.623134 62.04 
L 497.499436 62.04 
z
" style="fill:#4c72b0;opacity:0.5;"/>
   </g>
   <g id="patch_9">
    <path clip-path="url(#p6038ae22cf)" d="M 497.623134 352.44 
L 497.746832 352.44 
L 497.746832 261.69 
L 497.623134 261.69 
z
" style="fill:#4c72b0;opacity:0.5;"/>
   </g>
   <g id="patch_10">
    <path clip-path="url(#p6038ae22cf)" d="M 497.755668 352.44 
L 497.87053 352.44 
L 497.87053 235.163077 
L 497.755668 235.163077 
z
" style="fill:#4c72b0;opacity:0.5;"/>
   </g>
   <g id="patch_11">
    <path clip-path="url(#p6038ae22cf)" d="M 497.861695 352.44 
L 497.985393 352.44 
L 497.985393 316.14 
L 497.861695 316.14 
z
" style="fill:#4c72b0;opacity:0.5;"/>
   </g>
   <g id="patch_12">
    <path clip-path="url(#p6038ae22cf)" d="M 497.985393 352.44 
L 498.109091 352.44 
L 498.109091 279.84 
L 497.985393 279.84 
z
" style="fill:#4c72b0;opacity:0.5;"/>
   </g>
   <g id="patch_13">
    <path clip-path="url(#p6038ae22cf)" d="M 92.290909 352.44 
L 92.441114 352.44 
L 92.441114 322.545882 
L 92.290909 322.545882 
z
" style="fill:#55a868;opacity:0.5;"/>
   </g>
   <g id="patch_14">
    <path clip-path="url(#p6038ae22cf)" d="M 92.432278 352.44 
L 92.573648 352.44 
L 92.573648 336.55875 
L 92.432278 336.55875 
z
" style="fill:#55a868;opacity:0.5;"/>
   </g>
   <g id="patch_15">
    <path clip-path="url(#p6038ae22cf)" d="M 92.573648 352.44 
L 92.715017 352.44 
L 92.715017 304.79625 
L 92.573648 304.79625 
z
" style="fill:#55a868;opacity:0.5;"/>
   </g>
   <g id="patch_16">
    <path clip-path="url(#p6038ae22cf)" d="M 92.715017 352.44 
L 92.865222 352.44 
L 92.865222 247.810588 
L 92.715017 247.810588 
z
" style="fill:#55a868;opacity:0.5;"/>
   </g>
   <g id="patch_17">
    <path clip-path="url(#p6038ae22cf)" d="M 92.874057 352.44 
L 93.024262 352.44 
L 93.024262 292.651765 
L 92.874057 292.651765 
z
" style="fill:#55a868;opacity:0.5;"/>
   </g>
   <g id="patch_18">
    <path clip-path="url(#p6038ae22cf)" d="M 93.015427 352.44 
L 93.156796 352.44 
L 93.156796 336.55875 
L 93.015427 336.55875 
z
" style="fill:#55a868;opacity:0.5;"/>
   </g>
   <g id="patch_19">
    <path clip-path="url(#p6038ae22cf)" d="M 93.156796 352.44 
L 93.298165 352.44 
L 93.298165 304.79625 
L 93.156796 304.79625 
z
" style="fill:#55a868;opacity:0.5;"/>
   </g>
   <g id="patch_20">
    <path clip-path="url(#p6038ae22cf)" d="M 93.298165 352.44 
L 93.44837 352.44 
L 93.44837 292.651765 
L 93.298165 292.651765 
z
" style="fill:#55a868;opacity:0.5;"/>
   </g>
   <g id="patch_21">
    <path clip-path="url(#p6038ae22cf)" d="M 93.457206 352.44 
L 93.60741 352.44 
L 93.60741 143.181176 
L 93.457206 143.181176 
z
" style="fill:#55a868;opacity:0.5;"/>
   </g>
   <g id="patch_22">
    <path clip-path="url(#p6038ae22cf)" d="M 93.598575 352.44 
L 93.739944 352.44 
L 93.739944 161.865 
L 93.598575 161.865 
z
" style="fill:#55a868;opacity:0.5;"/>
   </g>
   <g id="patch_23">
    <path d="M 72 352.44 
L 72 47.52 
" style="fill:none;"/>
   </g>
   <g id="patch_24">
    <path d="M 518.4 352.44 
L 518.4 47.52 
" style="fill:none;"/>
   </g>
   <g id="patch_25">
    <path d="M 72 352.44 
L 518.4 352.44 
" style="fill:none;"/>
   </g>
   <g id="patch_26">
    <path d="M 72 47.52 
L 518.4 47.52 
" style="fill:none;"/>
   </g>
   <g id="legend_1">
    <g id="patch_27">
     <path d="M 81 63.766875 
L 101 63.766875 
L 101 56.766875 
L 81 56.766875 
z
" style="fill:#4c72b0;opacity:0.5;"/>
    </g>
    <g id="text_13">
     <!-- Action 0 -->
     <g style="fill:#262626;" transform="translate(109 63.766875)scale(0.1 -0.1)">
      <defs>
       <path d="M 3647 0 
L 3144 1288 
L 1138 1288 
L 631 0 
L 13 0 
L 1809 4403 
L 2488 4403 
L 4256 0 
L 3647 0 
z
M 2141 3953 
L 2113 3866 
Q 2034 3606 1881 3200 
L 1319 1753 
L 2966 1753 
L 2400 3206 
Q 2313 3422 2225 3694 
L 2141 3953 
z
" id="LiberationSans-41" transform="scale(0.015625)"/>
       <path d="M 3291 1694 
Q 3291 806 2900 371 
Q 2509 -63 1766 -63 
Q 1025 -63 647 389 
Q 269 841 269 1694 
Q 269 3444 1784 3444 
Q 2559 3444 2925 3017 
Q 3291 2591 3291 1694 
z
M 2700 1694 
Q 2700 2394 2492 2711 
Q 2284 3028 1794 3028 
Q 1300 3028 1079 2704 
Q 859 2381 859 1694 
Q 859 1025 1076 689 
Q 1294 353 1759 353 
Q 2266 353 2483 678 
Q 2700 1003 2700 1694 
z
" id="LiberationSans-6f" transform="scale(0.015625)"/>
      </defs>
      <use xlink:href="#LiberationSans-41"/>
      <use x="66.699219" xlink:href="#LiberationSans-63"/>
      <use x="116.699219" xlink:href="#LiberationSans-74"/>
      <use x="144.482422" xlink:href="#LiberationSans-69"/>
      <use x="166.699219" xlink:href="#LiberationSans-6f"/>
      <use x="222.314453" xlink:href="#LiberationSans-6e"/>
      <use x="277.929688" xlink:href="#LiberationSans-20"/>
      <use x="305.712891" xlink:href="#LiberationSans-30"/>
     </g>
    </g>
    <g id="patch_28">
     <path d="M 81 78.08875 
L 101 78.08875 
L 101 71.08875 
L 81 71.08875 
z
" style="fill:#55a868;opacity:0.5;"/>
    </g>
    <g id="text_14">
     <!-- Action 1 -->
     <g style="fill:#262626;" transform="translate(109 78.08875)scale(0.1 -0.1)">
      <use xlink:href="#LiberationSans-41"/>
      <use x="66.699219" xlink:href="#LiberationSans-63"/>
      <use x="116.699219" xlink:href="#LiberationSans-74"/>
      <use x="144.482422" xlink:href="#LiberationSans-69"/>
      <use x="166.699219" xlink:href="#LiberationSans-6f"/>
      <use x="222.314453" xlink:href="#LiberationSans-6e"/>
      <use x="277.929688" xlink:href="#LiberationSans-20"/>
      <use x="305.712891" xlink:href="#LiberationSans-31"/>
     </g>
    </g>
   </g>
  </g>
  <g id="text_15">
   <!-- State: [-0.01711016  0.04163434 -0.04727092 -0.02017481] -->
   <g style="fill:#262626;" transform="translate(128.32125 16.61625)scale(0.12 -0.12)">
    <defs>
     <path d="M 3975 1216 
Q 3975 606 3498 271 
Q 3022 -63 2156 -63 
Q 547 -63 291 1056 
L 869 1172 
Q 969 775 1294 589 
Q 1619 403 2178 403 
Q 2756 403 3070 601 
Q 3384 800 3384 1184 
Q 3384 1400 3286 1534 
Q 3188 1669 3009 1756 
Q 2831 1844 2584 1903 
Q 2338 1963 2038 2031 
Q 1516 2147 1245 2262 
Q 975 2378 819 2520 
Q 663 2663 580 2853 
Q 497 3044 497 3291 
Q 497 3856 930 4162 
Q 1363 4469 2169 4469 
Q 2919 4469 3316 4239 
Q 3713 4009 3872 3456 
L 3284 3353 
Q 3188 3703 2916 3861 
Q 2644 4019 2163 4019 
Q 1634 4019 1356 3844 
Q 1078 3669 1078 3322 
Q 1078 3119 1186 2986 
Q 1294 2853 1497 2761 
Q 1700 2669 2306 2534 
Q 2509 2488 2711 2439 
Q 2913 2391 3097 2323 
Q 3281 2256 3442 2165 
Q 3603 2075 3722 1944 
Q 3841 1813 3908 1634 
Q 3975 1456 3975 1216 
z
" id="LiberationSans-53" transform="scale(0.015625)"/>
     <path d="M 584 2734 
L 584 3381 
L 1194 3381 
L 1194 2734 
L 584 2734 
z
M 584 0 
L 584 647 
L 1194 647 
L 1194 0 
L 584 0 
z
" id="LiberationSans-3a" transform="scale(0.015625)"/>
     <path d="M 456 -1328 
L 456 4638 
L 1728 4638 
L 1728 4234 
L 1000 4234 
L 1000 -925 
L 1728 -925 
L 1728 -1328 
L 456 -1328 
z
" id="LiberationSans-5b" transform="scale(0.015625)"/>
     <path d="M 284 1450 
L 284 1950 
L 1847 1950 
L 1847 1450 
L 284 1450 
z
" id="LiberationSans-2d" transform="scale(0.015625)"/>
     <path d="M 3238 3947 
Q 2563 2916 2284 2331 
Q 2006 1747 1867 1178 
Q 1728 609 1728 0 
L 1141 0 
Q 1141 844 1498 1776 
Q 1856 2709 2694 3925 
L 328 3925 
L 328 4403 
L 3238 4403 
L 3238 3947 
z
" id="LiberationSans-37" transform="scale(0.015625)"/>
     <path d="M 3278 1441 
Q 3278 744 2900 340 
Q 2522 -63 1856 -63 
Q 1113 -63 719 490 
Q 325 1044 325 2100 
Q 325 3244 734 3856 
Q 1144 4469 1900 4469 
Q 2897 4469 3156 3572 
L 2619 3475 
Q 2453 4013 1894 4013 
Q 1413 4013 1148 3564 
Q 884 3116 884 2266 
Q 1038 2550 1316 2698 
Q 1594 2847 1953 2847 
Q 2563 2847 2920 2465 
Q 3278 2084 3278 1441 
z
M 2706 1416 
Q 2706 1894 2472 2153 
Q 2238 2413 1819 2413 
Q 1425 2413 1183 2183 
Q 941 1953 941 1550 
Q 941 1041 1192 716 
Q 1444 391 1838 391 
Q 2244 391 2475 664 
Q 2706 938 2706 1416 
z
" id="LiberationSans-36" transform="scale(0.015625)"/>
     <path d="M 3256 2291 
Q 3256 1156 2842 546 
Q 2428 -63 1663 -63 
Q 1147 -63 836 154 
Q 525 372 391 856 
L 928 941 
Q 1097 391 1672 391 
Q 2156 391 2422 841 
Q 2688 1291 2700 2125 
Q 2575 1844 2272 1673 
Q 1969 1503 1606 1503 
Q 1013 1503 656 1909 
Q 300 2316 300 2988 
Q 300 3678 687 4073 
Q 1075 4469 1766 4469 
Q 2500 4469 2878 3925 
Q 3256 3381 3256 2291 
z
M 2644 2834 
Q 2644 3366 2400 3689 
Q 2156 4013 1747 4013 
Q 1341 4013 1106 3736 
Q 872 3459 872 2988 
Q 872 2506 1106 2226 
Q 1341 1947 1741 1947 
Q 1984 1947 2193 2058 
Q 2403 2169 2523 2372 
Q 2644 2575 2644 2834 
z
" id="LiberationSans-39" transform="scale(0.015625)"/>
     <path d="M 3281 1228 
Q 3281 619 2893 278 
Q 2506 -63 1781 -63 
Q 1075 -63 676 271 
Q 278 606 278 1222 
Q 278 1653 525 1947 
Q 772 2241 1156 2303 
L 1156 2316 
Q 797 2400 589 2681 
Q 381 2963 381 3341 
Q 381 3844 757 4156 
Q 1134 4469 1769 4469 
Q 2419 4469 2795 4162 
Q 3172 3856 3172 3334 
Q 3172 2956 2962 2675 
Q 2753 2394 2391 2322 
L 2391 2309 
Q 2813 2241 3047 1952 
Q 3281 1663 3281 1228 
z
M 2588 3303 
Q 2588 4050 1769 4050 
Q 1372 4050 1164 3862 
Q 956 3675 956 3303 
Q 956 2925 1170 2726 
Q 1384 2528 1775 2528 
Q 2172 2528 2380 2711 
Q 2588 2894 2588 3303 
z
M 2697 1281 
Q 2697 1691 2453 1898 
Q 2209 2106 1769 2106 
Q 1341 2106 1100 1882 
Q 859 1659 859 1269 
Q 859 359 1788 359 
Q 2247 359 2472 579 
Q 2697 800 2697 1281 
z
" id="LiberationSans-38" transform="scale(0.015625)"/>
     <path d="M 50 -1328 
L 50 -925 
L 778 -925 
L 778 4234 
L 50 4234 
L 50 4638 
L 1322 4638 
L 1322 -1328 
L 50 -1328 
z
" id="LiberationSans-5d" transform="scale(0.015625)"/>
    </defs>
    <use xlink:href="#LiberationSans-53"/>
    <use x="66.699219" xlink:href="#LiberationSans-74"/>
    <use x="94.482422" xlink:href="#LiberationSans-61"/>
    <use x="150.097656" xlink:href="#LiberationSans-74"/>
    <use x="177.880859" xlink:href="#LiberationSans-65"/>
    <use x="233.496094" xlink:href="#LiberationSans-3a"/>
    <use x="261.279297" xlink:href="#LiberationSans-20"/>
    <use x="289.0625" xlink:href="#LiberationSans-5b"/>
    <use x="316.845703" xlink:href="#LiberationSans-2d"/>
    <use x="350.146484" xlink:href="#LiberationSans-30"/>
    <use x="405.761719" xlink:href="#LiberationSans-2e"/>
    <use x="433.544922" xlink:href="#LiberationSans-30"/>
    <use x="489.160156" xlink:href="#LiberationSans-31"/>
    <use x="544.775391" xlink:href="#LiberationSans-37"/>
    <use x="600.390625" xlink:href="#LiberationSans-31"/>
    <use x="648.630859" xlink:href="#LiberationSans-31"/>
    <use x="704.246094" xlink:href="#LiberationSans-30"/>
    <use x="759.861328" xlink:href="#LiberationSans-31"/>
    <use x="815.476562" xlink:href="#LiberationSans-36"/>
    <use x="871.091797" xlink:href="#LiberationSans-20"/>
    <use x="898.875" xlink:href="#LiberationSans-20"/>
    <use x="926.658203" xlink:href="#LiberationSans-30"/>
    <use x="982.273438" xlink:href="#LiberationSans-2e"/>
    <use x="1010.056641" xlink:href="#LiberationSans-30"/>
    <use x="1065.671875" xlink:href="#LiberationSans-34"/>
    <use x="1121.287109" xlink:href="#LiberationSans-31"/>
    <use x="1176.902344" xlink:href="#LiberationSans-36"/>
    <use x="1232.517578" xlink:href="#LiberationSans-33"/>
    <use x="1288.132812" xlink:href="#LiberationSans-34"/>
    <use x="1343.748047" xlink:href="#LiberationSans-33"/>
    <use x="1399.363281" xlink:href="#LiberationSans-34"/>
    <use x="1454.978516" xlink:href="#LiberationSans-20"/>
    <use x="1482.761719" xlink:href="#LiberationSans-2d"/>
    <use x="1516.0625" xlink:href="#LiberationSans-30"/>
    <use x="1571.677734" xlink:href="#LiberationSans-2e"/>
    <use x="1599.460938" xlink:href="#LiberationSans-30"/>
    <use x="1655.076172" xlink:href="#LiberationSans-34"/>
    <use x="1710.691406" xlink:href="#LiberationSans-37"/>
    <use x="1766.306641" xlink:href="#LiberationSans-32"/>
    <use x="1821.921875" xlink:href="#LiberationSans-37"/>
    <use x="1877.537109" xlink:href="#LiberationSans-30"/>
    <use x="1933.152344" xlink:href="#LiberationSans-39"/>
    <use x="1988.767578" xlink:href="#LiberationSans-32"/>
    <use x="2044.382812" xlink:href="#LiberationSans-20"/>
    <use x="2072.166016" xlink:href="#LiberationSans-2d"/>
    <use x="2105.466797" xlink:href="#LiberationSans-30"/>
    <use x="2161.082031" xlink:href="#LiberationSans-2e"/>
    <use x="2188.865234" xlink:href="#LiberationSans-30"/>
    <use x="2244.480469" xlink:href="#LiberationSans-32"/>
    <use x="2300.095703" xlink:href="#LiberationSans-30"/>
    <use x="2355.710938" xlink:href="#LiberationSans-31"/>
    <use x="2411.326172" xlink:href="#LiberationSans-37"/>
    <use x="2466.941406" xlink:href="#LiberationSans-34"/>
    <use x="2522.556641" xlink:href="#LiberationSans-38"/>
    <use x="2578.171875" xlink:href="#LiberationSans-31"/>
    <use x="2633.787109" xlink:href="#LiberationSans-5d"/>
   </g>
  </g>
 </g>
 <defs>
  <clipPath id="p6038ae22cf">
   <rect height="304.92" width="446.4" x="72" y="47.52"/>
  </clipPath>
 </defs>
</svg>
