<?xml version="1.0" encoding="UTF-8" standalone="no"?>
<!DOCTYPE svg PUBLIC "-//W3C//DTD SVG 1.1//EN" "http://www.w3.org/Graphics/SVG/1.1/DTD/svg11.dtd">
<!-- Created with matplotlib (https://matplotlib.org/) -->
<svg height="345.6pt" version="1.1" viewBox="0 0 460.8 345.6" width="460.8pt" xmlns="http://www.w3.org/2000/svg" xmlns:xlink="http://www.w3.org/1999/xlink">
 <metadata>
  <rdf:RDF xmlns:cc="http://creativecommons.org/ns#" xmlns:dc="http://purl.org/dc/elements/1.1/" xmlns:rdf="http://www.w3.org/1999/02/22-rdf-syntax-ns#">
   <cc:Work>
    <dc:type rdf:resource="http://purl.org/dc/dcmitype/StillImage"/>
    <dc:date>2021-01-22T22:53:05.902512</dc:date>
    <dc:format>image/svg+xml</dc:format>
    <dc:creator>
     <cc:Agent>
      <dc:title>Matplotlib v3.3.2, https://matplotlib.org/</dc:title>
     </cc:Agent>
    </dc:creator>
   </cc:Work>
  </rdf:RDF>
 </metadata>
 <defs>
  <style type="text/css">*{stroke-linecap:butt;stroke-linejoin:round;}</style>
 </defs>
 <g id="figure_1">
  <g id="patch_1">
   <path d="M 0 345.6  L 460.8 345.6  L 460.8 0  L 0 0  z " style="fill:#ffffff;"/>
  </g>
  <g id="axes_1">
   <g id="patch_2">
    <path d="M 57.6 307.584  L 414.72 307.584  L 414.72 41.472  L 57.6 41.472  z " style="fill:#ffffff;"/>
   </g>
   <g id="PolyCollection_1">
    <defs>
     <path d="M 73.832727 -79.872571  L 73.832727 -79.872571  L 83.572364 -88.768607  L 93.312 -97.639068  L 103.051636 -104.635112  L 112.791273 -110.849821  L 122.530909 -116.57458  L 132.270545 -73.485012  L 142.010182 -94.459739  L 151.749818 -118.582345  L 161.489455 -136.410305  L 171.229091 -138.980383  L 180.968727 -140.559089  L 190.708364 -142.245349  L 200.448 -144.015181  L 210.187636 -146.0211  L 219.927273 -148.049045  L 229.666909 -150.231024  L 239.406545 -152.42734  L 249.146182 -154.684328  L 258.885818 -157.086892  L 268.625455 -159.373569  L 278.365091 -161.004775  L 288.104727 -160.888667  L 297.844364 -158.363124  L 307.584 -153.610671  L 317.323636 -147.997918  L 327.063273 -141.811605  L 336.802909 -134.856351  L 346.542545 -127.310386  L 356.282182 -119.370884  L 366.021818 -111.102314  L 375.761455 -97.928855  L 385.501091 -81.795753  L 395.240727 -50.112  L 395.240727 -50.112  L 395.240727 -50.112  L 385.501091 -81.795753  L 375.761455 -97.928855  L 366.021818 -111.102314  L 356.282182 -119.370884  L 346.542545 -127.310386  L 336.802909 -134.856351  L 327.063273 -141.811605  L 317.323636 -147.997918  L 307.584 -153.610671  L 297.844364 -158.363124  L 288.104727 -160.888667  L 278.365091 -161.004775  L 268.625455 -159.373569  L 258.885818 -157.086892  L 249.146182 -154.684328  L 239.406545 -152.42734  L 229.666909 -150.231024  L 219.927273 -148.049045  L 210.187636 -146.0211  L 200.448 -144.015181  L 190.708364 -142.245349  L 180.968727 -140.559089  L 171.229091 -138.980383  L 161.489455 -136.410305  L 151.749818 -118.582345  L 142.010182 -94.459739  L 132.270545 -73.485012  L 122.530909 -116.57458  L 112.791273 -110.849821  L 103.051636 -104.635112  L 93.312 -97.639068  L 83.572364 -88.768607  L 73.832727 -79.872571  z " id="m6c530a88f3" style="stroke:#0000ff;stroke-opacity:0.2;"/>
    </defs>
    <g clip-path="url(#p7efbe01194)">
     <use style="fill:#0000ff;fill-opacity:0.2;stroke:#0000ff;stroke-opacity:0.2;" x="0" xlink:href="#m6c530a88f3" y="345.6"/>
    </g>
   </g>
   <g id="PolyCollection_2">
    <defs>
     <path d="M 73.832727 -173.702129  L 73.832727 -103.480326  L 83.572364 -107.685579  L 93.312 -113.616602  L 103.051636 -118.569428  L 112.791273 -121.364824  L 122.530909 -122.529755  L 132.270545 -96.177645  L 142.010182 -134.019563  L 151.749818 -136.15654  L 161.489455 -137.870062  L 171.229091 -139.444967  L 180.968727 -141.098619  L 190.708364 -142.917301  L 200.448 -144.624769  L 210.187636 -146.678358  L 219.927273 -148.75793  L 229.666909 -151.050947  L 239.406545 -153.241709  L 249.146182 -155.594177  L 258.885818 -158.015235  L 268.625455 -160.405628  L 278.365091 -162.239377  L 288.104727 -163.114902  L 297.844364 -163.102469  L 307.584 -162.295955  L 317.323636 -160.462167  L 327.063273 -157.426323  L 336.802909 -153.375471  L 346.542545 -148.822562  L 356.282182 -143.976898  L 366.021818 -139.026996  L 375.761455 -134.307664  L 385.501091 -131.542795  L 395.240727 -132.540634  L 395.240727 -292.032  L 395.240727 -292.032  L 385.501091 -278.078749  L 375.761455 -269.726326  L 366.021818 -259.04623  L 356.282182 -247.619467  L 346.542545 -235.760705  L 336.802909 -223.550476  L 327.063273 -211.483792  L 317.323636 -200.3645  L 307.584 -189.748345  L 297.844364 -179.794081  L 288.104727 -171.980665  L 278.365091 -167.541428  L 268.625455 -164.226437  L 258.885818 -161.295832  L 249.146182 -158.612605  L 239.406545 -156.088704  L 229.666909 -153.767291  L 219.927273 -151.424265  L 210.187636 -149.21527  L 200.448 -147.110761  L 190.708364 -145.246807  L 180.968727 -143.389843  L 171.229091 -141.659285  L 161.489455 -140.084444  L 151.749818 -138.709027  L 142.010182 -137.959202  L 132.270545 -143.088043  L 122.530909 -130.912562  L 112.791273 -136.326533  L 103.051636 -143.900604  L 93.312 -152.486021  L 83.572364 -161.34008  L 73.832727 -173.702129  z " id="mb85060249c" style="stroke:#0000ff;stroke-opacity:0.2;"/>
    </defs>
    <g clip-path="url(#p7efbe01194)">
     <use style="fill:#0000ff;fill-opacity:0.2;stroke:#0000ff;stroke-opacity:0.2;" x="0" xlink:href="#mb85060249c" y="345.6"/>
    </g>
   </g>
   <g id="PolyCollection_3">
    <defs>
     <path d="M 73.832727 -157.980761  L 73.832727 -113.841845  L 83.572364 -116.223086  L 93.312 -119.991006  L 103.051636 -122.47324  L 112.791273 -123.536611  L 122.530909 -123.747556  L 132.270545 -116.665462  L 142.010182 -134.841244  L 151.749818 -136.534899  L 161.489455 -138.131484  L 171.229091 -139.721258  L 180.968727 -141.388429  L 190.708364 -143.245877  L 200.448 -144.948689  L 210.187636 -147.011854  L 219.927273 -149.11799  L 229.666909 -151.451677  L 239.406545 -153.632839  L 249.146182 -156.018907  L 258.885818 -158.449027  L 268.625455 -160.859279  L 278.365091 -162.780747  L 288.104727 -163.908365  L 297.844364 -164.462875  L 307.584 -164.577642  L 317.323636 -164.268409  L 327.063273 -163.428333  L 336.802909 -162.035461  L 346.542545 -160.19327  L 356.282182 -158.216818  L 366.021818 -156.425842  L 375.761455 -155.33857  L 385.501091 -155.243035  L 395.240727 -158.228894  L 395.240727 -267.458635  L 395.240727 -267.458635  L 385.501091 -250.171708  L 375.761455 -239.228785  L 366.021818 -230.158528  L 356.282182 -221.038143  L 346.542545 -211.691793  L 336.802909 -202.414312  L 327.063273 -193.49739  L 317.323636 -185.189962  L 307.584 -177.65797  L 297.844364 -172.170886  L 288.104727 -168.583856  L 278.365091 -165.881175  L 268.625455 -163.216229  L 258.885818 -160.55433  L 249.146182 -157.987624  L 239.406545 -155.501061  L 229.666909 -153.228737  L 219.927273 -150.878141  L 210.187636 -148.669885  L 200.448 -146.573055  L 190.708364 -144.745971  L 180.968727 -142.880351  L 171.229091 -141.147636  L 161.489455 -139.532275  L 151.749818 -138.099335  L 142.010182 -137.06091  L 132.270545 -138.819661  L 122.530909 -128.506499  L 112.791273 -131.492461  L 103.051636 -136.011503  L 93.312 -142.041101  L 83.572364 -149.048637  L 73.832727 -157.980761  z " id="mca93ea3ab0" style="stroke:#0000ff;stroke-opacity:0.2;"/>
    </defs>
    <g clip-path="url(#p7efbe01194)">
     <use style="fill:#0000ff;fill-opacity:0.2;stroke:#0000ff;stroke-opacity:0.2;" x="0" xlink:href="#mca93ea3ab0" y="345.6"/>
    </g>
   </g>
   <g id="PolyCollection_4">
    <defs>
     <path d="M 73.832727 -150.99079  L 73.832727 -124.309742  L 83.572364 -122.956886  L 93.312 -123.934564  L 103.051636 -124.68667  L 112.791273 -124.828826  L 122.530909 -124.517026  L 132.270545 -133.2546  L 142.010182 -135.274147  L 151.749818 -136.801035  L 161.489455 -138.344834  L 171.229091 -139.944549  L 180.968727 -141.621543  L 190.708364 -143.494058  L 200.448 -145.208596  L 210.187636 -147.277092  L 219.927273 -149.404286  L 229.666909 -151.754579  L 239.406545 -153.937272  L 249.146182 -156.345017  L 258.885818 -158.7858  L 268.625455 -161.213523  L 278.365091 -163.203788  L 288.104727 -164.516859  L 297.844364 -165.439045  L 307.584 -166.109758  L 317.323636 -166.679192  L 327.063273 -167.154162  L 336.802909 -167.561494  L 346.542545 -167.964072  L 356.282182 -168.457783  L 366.021818 -169.288576  L 375.761455 -170.587372  L 385.501091 -172.355799  L 395.240727 -174.788338  L 395.240727 -249.663034  L 395.240727 -249.663034  L 385.501091 -233.898242  L 375.761455 -223.739245  L 366.021818 -214.832923  L 356.282182 -206.328054  L 346.542545 -198.247574  L 336.802909 -190.693223  L 327.063273 -183.762307  L 317.323636 -177.774197  L 307.584 -173.08398  L 297.844364 -169.781342  L 288.104727 -167.261789  L 278.365091 -165.072233  L 268.625455 -162.663973  L 258.885818 -160.105955  L 249.146182 -157.585624  L 239.406545 -155.118723  L 229.666909 -152.875413  L 219.927273 -150.520684  L 210.187636 -148.324289  L 200.448 -146.234466  L 190.708364 -144.434223  L 180.968727 -142.563429  L 171.229091 -140.840172  L 161.489455 -139.220288  L 151.749818 -137.765141  L 142.010182 -136.596766  L 132.270545 -137.706611  L 122.530909 -127.347697  L 112.791273 -129.462211  L 103.051636 -132.446856  L 93.312 -136.819406  L 83.572364 -142.978885  L 73.832727 -150.99079  z " id="mfdeefda719" style="stroke:#0000ff;stroke-opacity:0.2;"/>
    </defs>
    <g clip-path="url(#p7efbe01194)">
     <use style="fill:#0000ff;fill-opacity:0.2;stroke:#0000ff;stroke-opacity:0.2;" x="0" xlink:href="#mfdeefda719" y="345.6"/>
    </g>
   </g>
   <g id="PolyCollection_5">
    <defs>
     <path d="M 73.832727 -145.892742  L 73.832727 -132.643191  L 83.572364 -128.363534  L 93.312 -126.984463  L 103.051636 -126.437209  L 112.791273 -125.869168  L 122.530909 -125.151179  L 132.270545 -136.10344  L 142.010182 -135.604009  L 151.749818 -137.028765  L 161.489455 -138.540641  L 171.229091 -140.147846  L 180.968727 -141.835067  L 190.708364 -143.712604  L 200.448 -145.444145  L 210.187636 -147.517211  L 219.927273 -149.662542  L 229.666909 -152.019921  L 239.406545 -154.210556  L 249.146182 -156.634098  L 258.885818 -159.088337  L 268.625455 -161.53334  L 278.365091 -163.593331  L 288.104727 -165.072876  L 297.844364 -166.300773  L 307.584 -167.448543  L 317.323636 -168.72779  L 327.063273 -170.259795  L 336.802909 -172.130921  L 346.542545 -174.469703  L 356.282182 -177.379632  L 366.021818 -181.095448  L 375.761455 -185.315488  L 385.501091 -189.708278  L 395.240727 -195.977352  L 395.240727 -235.259917  L 395.240727 -235.259917  L 385.501091 -220.933825  L 375.761455 -210.930861  L 366.021818 -202.748514  L 356.282182 -195.545631  L 346.542545 -189.016848  L 336.802909 -183.121457  L 327.063273 -177.999321  L 317.323636 -173.865858  L 307.584 -170.729505  L 297.844364 -168.399332  L 288.104727 -166.416024  L 278.365091 -164.517414  L 268.625455 -162.257728  L 258.885818 -159.753623  L 249.146182 -157.260681  L 239.406545 -154.808029  L 229.666909 -152.585999  L 219.927273 -150.227969  L 210.187636 -148.046634  L 200.448 -145.962896  L 190.708364 -144.185963  L 180.968727 -142.31125  L 171.229091 -140.599561  L 161.489455 -138.981391  L 151.749818 -137.510709  L 142.010182 -136.25549  L 132.270545 -137.051948  L 122.530909 -126.546645  L 112.791273 -128.128675  L 103.051636 -130.181954  L 93.312 -133.258004  L 83.572364 -138.258217  L 73.832727 -145.892742  z " id="mbc84a4e88d" style="stroke:#0000ff;stroke-opacity:0.2;"/>
    </defs>
    <g clip-path="url(#p7efbe01194)">
     <use style="fill:#0000ff;fill-opacity:0.2;stroke:#0000ff;stroke-opacity:0.2;" x="0" xlink:href="#mbc84a4e88d" y="345.6"/>
    </g>
   </g>
   <g id="PolyCollection_6">
    <defs>
     <path d="M 73.832727 -140.017924  L 73.832727 -138.85976  L 83.572364 -133.01416  L 93.312 -129.759436  L 103.051636 -128.064523  L 112.791273 -126.854827  L 122.530909 -125.755289  L 132.270545 -136.497839  L 142.010182 -135.899021  L 151.749818 -137.244097  L 161.489455 -138.734321  L 171.229091 -140.347358  L 180.968727 -142.045353  L 190.708364 -143.923113  L 200.448 -145.674307  L 210.187636 -147.751935  L 219.927273 -149.914039  L 229.666909 -152.273457  L 239.406545 -154.476183  L 249.146182 -156.913261  L 258.885818 -159.383074  L 268.625455 -161.8495  L 278.365091 -163.988087  L 288.104727 -165.640564  L 297.844364 -167.179607  L 307.584 -168.799046  L 317.323636 -170.80891  L 327.063273 -173.387937  L 336.802909 -176.675166  L 346.542545 -180.703557  L 356.282182 -185.467467  L 366.021818 -190.827033  L 375.761455 -196.50675  L 385.501091 -202.703583  L 395.240727 -213.146774  L 395.240727 -217.322564  L 395.240727 -217.322564  L 385.501091 -205.640274  L 375.761455 -198.708262  L 366.021818 -192.705197  L 356.282182 -187.049465  L 346.542545 -181.982605  L 336.802909 -177.637642  L 327.063273 -174.062713  L 317.323636 -171.256332  L 307.584 -169.087604  L 297.844364 -167.36767  L 288.104727 -165.760735  L 278.365091 -164.070563  L 268.625455 -161.914243  L 258.885818 -159.442763  L 249.146182 -156.969506  L 239.406545 -154.529842  L 229.666909 -152.324283  L 219.927273 -149.964849  L 210.187636 -147.799493  L 200.448 -145.720912  L 190.708364 -143.96556  L 180.968727 -142.088118  L 171.229091 -140.387878  L 161.489455 -138.773865  L 151.749818 -137.287219  L 142.010182 -135.957035  L 132.270545 -136.578839  L 122.530909 -125.880264  L 112.791273 -127.056573  L 103.051636 -128.397972  L 93.312 -130.31737  L 83.572364 -133.894609  L 73.832727 -140.017924  z " id="m05d554352c" style="stroke:#0000ff;stroke-opacity:0.2;"/>
    </defs>
    <g clip-path="url(#p7efbe01194)">
     <use style="fill:#0000ff;fill-opacity:0.2;stroke:#0000ff;stroke-opacity:0.2;" x="0" xlink:href="#m05d554352c" y="345.6"/>
    </g>
   </g>
   <g id="PolyCollection_7">
    <defs>
     <path d="M 73.832727 -133.96894  L 73.832727 -144.737593  L 83.572364 -137.376225  L 93.312 -132.63369  L 103.051636 -129.800928  L 112.791273 -127.901072  L 122.530909 -126.408147  L 132.270545 -136.94594  L 142.010182 -136.193814  L 151.749818 -137.464421  L 161.489455 -138.938165  L 171.229091 -140.55559  L 180.968727 -142.264994  L 190.708364 -144.14035  L 200.448 -145.912918  L 210.187636 -147.995506  L 219.927273 -150.173747  L 229.666909 -152.532166  L 239.406545 -154.750626  L 249.146182 -157.200612  L 258.885818 -159.689206  L 268.625455 -162.185599  L 278.365091 -164.422069  L 288.104727 -166.275027  L 297.844364 -168.173756  L 307.584 -170.363605  L 317.323636 -173.278255  L 327.063273 -177.114568  L 336.802909 -181.902716  L 346.542545 -187.494325  L 356.282182 -193.723791  L 366.021818 -200.581491  L 375.761455 -208.365702  L 385.501091 -218.140607  L 395.240727 -232.107092  L 395.240727 -198.842881  L 395.240727 -198.842881  L 385.501091 -192.275848  L 375.761455 -187.745639  L 366.021818 -183.165706  L 356.282182 -179.061013  L 346.542545 -175.707033  L 336.802909 -173.025346  L 327.063273 -170.867392  L 317.323636 -169.131495  L 307.584 -167.709505  L 297.844364 -166.473698  L 288.104727 -165.183748  L 278.365091 -163.671086  L 268.625455 -161.596234  L 258.885818 -159.147272  L 249.146182 -156.690113  L 239.406545 -154.263754  L 229.666909 -152.070962  L 219.927273 -149.712845  L 210.187636 -147.56411  L 200.448 -145.490107  L 190.708364 -143.754829  L 180.968727 -141.876967  L 171.229091 -140.187651  L 161.489455 -138.579169  L 151.749818 -137.072216  L 142.010182 -135.664503  L 132.270545 -136.188951  L 122.530909 -125.272278  L 112.791273 -126.068989  L 103.051636 -126.764426  L 93.312 -127.548859  L 83.572364 -129.335368  L 73.832727 -133.96894  z " id="m6056172be4" style="stroke:#0000ff;stroke-opacity:0.2;"/>
    </defs>
    <g clip-path="url(#p7efbe01194)">
     <use style="fill:#0000ff;fill-opacity:0.2;stroke:#0000ff;stroke-opacity:0.2;" x="0" xlink:href="#m6056172be4" y="345.6"/>
    </g>
   </g>
   <g id="PolyCollection_8">
    <defs>
     <path d="M 73.832727 -126.1347  L 73.832727 -149.990143  L 83.572364 -141.977738  L 93.312 -136.03314  L 103.051636 -131.927987  L 112.791273 -129.16284  L 122.530909 -127.168155  L 132.270545 -137.554398  L 142.010182 -136.522407  L 151.749818 -137.710078  L 161.489455 -139.168668  L 171.229091 -140.788473  L 180.968727 -142.509414  L 190.708364 -144.381032  L 200.448 -146.176554  L 210.187636 -148.264965  L 219.927273 -150.45848  L 229.666909 -152.814018  L 239.406545 -155.052576  L 249.146182 -157.516526  L 258.885818 -160.030168  L 268.625455 -162.574943  L 278.365091 -164.947604  L 288.104727 -167.068608  L 297.844364 -169.461961  L 307.584 -172.507778  L 317.323636 -176.817656  L 327.063273 -182.376885  L 336.802909 -188.953113  L 346.542545 -196.125911  L 356.282182 -203.91289  L 366.021818 -212.248533  L 375.761455 -221.146746  L 385.501091 -231.255551  L 395.240727 -246.552482  L 395.240727 -180.19685  L 395.240727 -180.19685  L 385.501091 -176.257156  L 375.761455 -173.774489  L 366.021818 -171.76937  L 356.282182 -170.314295  L 346.542545 -169.330873  L 336.802909 -168.527326  L 327.063273 -167.80143  L 317.323636 -167.097076  L 307.584 -166.385311  L 297.844364 -165.616087  L 288.104727 -164.629603  L 278.365091 -163.282694  L 268.625455 -161.2789  L 258.885818 -158.847908  L 249.146182 -156.404658  L 239.406545 -153.993493  L 229.666909 -151.809595  L 219.927273 -149.457238  L 210.187636 -147.326268  L 200.448 -145.256788  L 190.708364 -143.539251  L 180.968727 -141.665196  L 171.229091 -139.986156  L 161.489455 -138.384774  L 151.749818 -136.848552  L 142.010182 -135.345257  L 132.270545 -134.723775  L 122.530909 -124.650625  L 112.791273 -125.049959  L 103.051636 -125.061935  L 93.312 -124.593198  L 83.572364 -124.119073  L 73.832727 -126.1347  z " id="m06be321efb" style="stroke:#0000ff;stroke-opacity:0.2;"/>
    </defs>
    <g clip-path="url(#p7efbe01194)">
     <use style="fill:#0000ff;fill-opacity:0.2;stroke:#0000ff;stroke-opacity:0.2;" x="0" xlink:href="#m06be321efb" y="345.6"/>
    </g>
   </g>
   <g id="PolyCollection_9">
    <defs>
     <path d="M 73.832727 -116.056028  L 73.832727 -156.150813  L 83.572364 -147.632249  L 93.312 -140.756189  L 103.051636 -135.092027  L 112.791273 -130.997561  L 122.530909 -128.22354  L 132.270545 -138.512697  L 142.010182 -136.950391  L 151.749818 -138.02166  L 161.489455 -139.45959  L 171.229091 -141.077308  L 180.968727 -142.80865  L 190.708364 -144.675484  L 200.448 -146.496777  L 210.187636 -148.592225  L 219.927273 -150.798617  L 229.666909 -153.149736  L 239.406545 -155.415698  L 249.146182 -157.897476  L 258.885818 -160.451503  L 268.625455 -163.085633  L 278.365091 -165.685234  L 288.104727 -168.246147  L 297.844364 -171.532552  L 307.584 -176.367186  L 317.323636 -183.228886  L 327.063273 -191.144113  L 336.802909 -199.588572  L 346.542545 -208.487602  L 356.282182 -217.570205  L 366.021818 -226.526671  L 375.761455 -235.486263  L 385.501091 -246.356842  L 395.240727 -263.555239  L 395.240727 -161.825325  L 395.240727 -161.825325  L 385.501091 -158.782221  L 375.761455 -158.427351  L 366.021818 -159.104062  L 356.282182 -160.464824  L 346.542545 -161.901207  L 336.802909 -163.285939  L 327.063273 -164.276224  L 317.323636 -164.801647  L 307.584 -164.910805  L 297.844364 -164.675716  L 288.104727 -164.038358  L 278.365091 -162.870919  L 268.625455 -160.934947  L 258.885818 -158.520854  L 249.146182 -156.08922  L 239.406545 -153.698184  L 229.666909 -151.517372  L 219.927273 -149.178972  L 210.187636 -147.068377  L 200.448 -145.003895  L 190.708364 -143.299544  L 180.968727 -141.437899  L 171.229091 -139.768768  L 161.489455 -138.176638  L 151.749818 -136.59318  L 142.010182 -134.94269  L 132.270545 -120.504567  L 122.530909 -123.91914  L 112.791273 -123.828703  L 103.051636 -122.980518  L 93.312 -120.909003  L 83.572364 -117.687813  L 73.832727 -116.056028  z " id="m3572e9e96c" style="stroke:#0000ff;stroke-opacity:0.2;"/>
    </defs>
    <g clip-path="url(#p7efbe01194)">
     <use style="fill:#0000ff;fill-opacity:0.2;stroke:#0000ff;stroke-opacity:0.2;" x="0" xlink:href="#m3572e9e96c" y="345.6"/>
    </g>
   </g>
   <g id="PolyCollection_10">
    <defs>
     <path d="M 73.832727 -105.9692  L 73.832727 -169.556091  L 83.572364 -157.976183  L 93.312 -149.463451  L 103.051636 -141.617774  L 112.791273 -134.809876  L 122.530909 -130.184167  L 132.270545 -141.590227  L 142.010182 -137.701652  L 151.749818 -138.536745  L 161.489455 -139.930339  L 171.229091 -141.521914  L 180.968727 -143.255517  L 190.708364 -145.113442  L 200.448 -146.96797  L 210.187636 -149.071408  L 219.927273 -151.282283  L 229.666909 -153.627935  L 239.406545 -155.936472  L 249.146182 -158.44882  L 258.885818 -161.099612  L 268.625455 -163.944719  L 278.365091 -167.040331  L 288.104727 -170.777752  L 297.844364 -177.238166  L 307.584 -186.28635  L 317.323636 -196.497102  L 327.063273 -206.756149  L 336.802909 -217.645357  L 346.542545 -229.126882  L 356.282182 -240.387949  L 366.021818 -251.133232  L 375.761455 -261.248703  L 385.501091 -270.431212  L 395.240727 -286.897637  L 395.240727 -139.79914  L 395.240727 -139.79914  L 385.501091 -137.589697  L 375.761455 -139.79407  L 366.021818 -143.599852  L 356.282182 -147.574893  L 346.542545 -151.558788  L 336.802909 -155.582053  L 327.063273 -158.933922  L 317.323636 -161.440836  L 307.584 -162.863366  L 297.844364 -163.435545  L 288.104727 -163.303663  L 278.365091 -162.365744  L 268.625455 -160.511311  L 258.885818 -158.11611  L 249.146182 -155.693361  L 239.406545 -153.332499  L 229.666909 -151.14484  L 219.927273 -148.84054  L 210.187636 -146.754946  L 200.448 -144.698747  L 190.708364 -142.99446  L 180.968727 -141.16471  L 171.229091 -139.507457  L 161.489455 -137.929164  L 151.749818 -136.250722  L 142.010182 -134.262876  L 132.270545 -99.834767  L 122.530909 -122.848331  L 112.791273 -121.961182  L 103.051636 -119.639277  L 93.312 -115.221189  L 83.572364 -109.56462  L 73.832727 -105.9692  z " id="md92551f36c" style="stroke:#0000ff;stroke-opacity:0.2;"/>
    </defs>
    <g clip-path="url(#p7efbe01194)">
     <use style="fill:#0000ff;fill-opacity:0.2;stroke:#0000ff;stroke-opacity:0.2;" x="0" xlink:href="#md92551f36c" y="345.6"/>
    </g>
   </g>
   <g id="matplotlib.axis_1">
    <g id="xtick_1">
     <g id="line2d_1">
      <defs>
       <path d="M 0 0  L 0 3.5  " id="mb823ec41b9" style="stroke:#000000;stroke-width:0.8;"/>
      </defs>
      <g>
       <use style="stroke:#000000;stroke-width:0.8;" x="73.832727" xlink:href="#mb823ec41b9" y="307.584"/>
      </g>
     </g>
     <g id="text_1">
      <!-- &lt; -->
      <g transform="translate(69.642884 322.182437)scale(0.1 -0.1)">
       <defs>
        <path d="M 73.1875 49.21875  L 22.796875 31.296875  L 73.1875 13.484375  L 73.1875 4.59375  L 10.59375 27.296875  L 10.59375 35.40625  L 73.1875 58.109375  z " id="DejaVuSans-60"/>
       </defs>
       <use xlink:href="#DejaVuSans-60"/>
      </g>
     </g>
    </g>
    <g id="xtick_2">
     <g id="line2d_2">
      <g>
       <use style="stroke:#000000;stroke-width:0.8;" x="83.572364" xlink:href="#mb823ec41b9" y="307.584"/>
      </g>
     </g>
     <g id="text_2">
      <!-- &lt; -->
      <g transform="translate(79.38252 322.182437)scale(0.1 -0.1)">
       <use xlink:href="#DejaVuSans-60"/>
      </g>
     </g>
    </g>
    <g id="xtick_3">
     <g id="line2d_3">
      <g>
       <use style="stroke:#000000;stroke-width:0.8;" x="93.312" xlink:href="#mb823ec41b9" y="307.584"/>
      </g>
     </g>
     <g id="text_3">
      <!-- &lt; -->
      <g transform="translate(89.122156 322.182437)scale(0.1 -0.1)">
       <use xlink:href="#DejaVuSans-60"/>
      </g>
     </g>
    </g>
    <g id="xtick_4">
     <g id="line2d_4">
      <g>
       <use style="stroke:#000000;stroke-width:0.8;" x="103.051636" xlink:href="#mb823ec41b9" y="307.584"/>
      </g>
     </g>
     <g id="text_4">
      <!-- &lt; -->
      <g transform="translate(98.861793 322.182437)scale(0.1 -0.1)">
       <use xlink:href="#DejaVuSans-60"/>
      </g>
     </g>
    </g>
    <g id="xtick_5">
     <g id="line2d_5">
      <g>
       <use style="stroke:#000000;stroke-width:0.8;" x="112.791273" xlink:href="#mb823ec41b9" y="307.584"/>
      </g>
     </g>
     <g id="text_5">
      <!-- &lt; -->
      <g transform="translate(108.601429 322.182437)scale(0.1 -0.1)">
       <use xlink:href="#DejaVuSans-60"/>
      </g>
     </g>
    </g>
    <g id="xtick_6">
     <g id="line2d_6">
      <g>
       <use style="stroke:#000000;stroke-width:0.8;" x="122.530909" xlink:href="#mb823ec41b9" y="307.584"/>
      </g>
     </g>
     <g id="text_6">
      <!-- &lt; -->
      <g transform="translate(118.341065 322.182437)scale(0.1 -0.1)">
       <use xlink:href="#DejaVuSans-60"/>
      </g>
     </g>
    </g>
    <g id="xtick_7">
     <g id="line2d_7">
      <g>
       <use style="stroke:#000000;stroke-width:0.8;" x="132.270545" xlink:href="#mb823ec41b9" y="307.584"/>
      </g>
     </g>
     <g id="text_7">
      <!-- &gt; -->
      <g transform="translate(128.080702 322.182437)scale(0.1 -0.1)">
       <defs>
        <path d="M 10.59375 49.21875  L 10.59375 58.109375  L 73.1875 35.40625  L 73.1875 27.296875  L 10.59375 4.59375  L 10.59375 13.484375  L 60.890625 31.296875  z " id="DejaVuSans-62"/>
       </defs>
       <use xlink:href="#DejaVuSans-62"/>
      </g>
     </g>
    </g>
    <g id="xtick_8">
     <g id="line2d_8">
      <g>
       <use style="stroke:#000000;stroke-width:0.8;" x="142.010182" xlink:href="#mb823ec41b9" y="307.584"/>
      </g>
     </g>
     <g id="text_8">
      <!-- &gt; -->
      <g transform="translate(137.820338 322.182437)scale(0.1 -0.1)">
       <use xlink:href="#DejaVuSans-62"/>
      </g>
     </g>
    </g>
    <g id="xtick_9">
     <g id="line2d_9">
      <g>
       <use style="stroke:#000000;stroke-width:0.8;" x="151.749818" xlink:href="#mb823ec41b9" y="307.584"/>
      </g>
     </g>
     <g id="text_9">
      <!-- &gt; -->
      <g transform="translate(147.559974 322.182437)scale(0.1 -0.1)">
       <use xlink:href="#DejaVuSans-62"/>
      </g>
     </g>
    </g>
    <g id="xtick_10">
     <g id="line2d_10">
      <g>
       <use style="stroke:#000000;stroke-width:0.8;" x="161.489455" xlink:href="#mb823ec41b9" y="307.584"/>
      </g>
     </g>
     <g id="text_10">
      <!-- &gt; -->
      <g transform="translate(157.299611 322.182437)scale(0.1 -0.1)">
       <use xlink:href="#DejaVuSans-62"/>
      </g>
     </g>
    </g>
    <g id="xtick_11">
     <g id="line2d_11">
      <g>
       <use style="stroke:#000000;stroke-width:0.8;" x="171.229091" xlink:href="#mb823ec41b9" y="307.584"/>
      </g>
     </g>
     <g id="text_11">
      <!-- &gt; -->
      <g transform="translate(167.039247 322.182437)scale(0.1 -0.1)">
       <use xlink:href="#DejaVuSans-62"/>
      </g>
     </g>
    </g>
    <g id="xtick_12">
     <g id="line2d_12">
      <g>
       <use style="stroke:#000000;stroke-width:0.8;" x="180.968727" xlink:href="#mb823ec41b9" y="307.584"/>
      </g>
     </g>
     <g id="text_12">
      <!-- &gt; -->
      <g transform="translate(176.778884 322.182437)scale(0.1 -0.1)">
       <use xlink:href="#DejaVuSans-62"/>
      </g>
     </g>
    </g>
    <g id="xtick_13">
     <g id="line2d_13">
      <g>
       <use style="stroke:#000000;stroke-width:0.8;" x="190.708364" xlink:href="#mb823ec41b9" y="307.584"/>
      </g>
     </g>
     <g id="text_13">
      <!-- &gt; -->
      <g transform="translate(186.51852 322.182437)scale(0.1 -0.1)">
       <use xlink:href="#DejaVuSans-62"/>
      </g>
     </g>
    </g>
    <g id="xtick_14">
     <g id="line2d_14">
      <g>
       <use style="stroke:#000000;stroke-width:0.8;" x="200.448" xlink:href="#mb823ec41b9" y="307.584"/>
      </g>
     </g>
     <g id="text_14">
      <!-- &gt; -->
      <g transform="translate(196.258156 322.182437)scale(0.1 -0.1)">
       <use xlink:href="#DejaVuSans-62"/>
      </g>
     </g>
    </g>
    <g id="xtick_15">
     <g id="line2d_15">
      <g>
       <use style="stroke:#000000;stroke-width:0.8;" x="210.187636" xlink:href="#mb823ec41b9" y="307.584"/>
      </g>
     </g>
     <g id="text_15">
      <!-- &gt; -->
      <g transform="translate(205.997793 322.182437)scale(0.1 -0.1)">
       <use xlink:href="#DejaVuSans-62"/>
      </g>
     </g>
    </g>
    <g id="xtick_16">
     <g id="line2d_16">
      <g>
       <use style="stroke:#000000;stroke-width:0.8;" x="219.927273" xlink:href="#mb823ec41b9" y="307.584"/>
      </g>
     </g>
     <g id="text_16">
      <!-- &gt; -->
      <g transform="translate(215.737429 322.182437)scale(0.1 -0.1)">
       <use xlink:href="#DejaVuSans-62"/>
      </g>
     </g>
    </g>
    <g id="xtick_17">
     <g id="line2d_17">
      <g>
       <use style="stroke:#000000;stroke-width:0.8;" x="229.666909" xlink:href="#mb823ec41b9" y="307.584"/>
      </g>
     </g>
     <g id="text_17">
      <!-- &gt; -->
      <g transform="translate(225.477065 322.182437)scale(0.1 -0.1)">
       <use xlink:href="#DejaVuSans-62"/>
      </g>
     </g>
    </g>
    <g id="xtick_18">
     <g id="line2d_18">
      <g>
       <use style="stroke:#000000;stroke-width:0.8;" x="239.406545" xlink:href="#mb823ec41b9" y="307.584"/>
      </g>
     </g>
     <g id="text_18">
      <!-- &gt; -->
      <g transform="translate(235.216702 322.182437)scale(0.1 -0.1)">
       <use xlink:href="#DejaVuSans-62"/>
      </g>
     </g>
    </g>
    <g id="xtick_19">
     <g id="line2d_19">
      <g>
       <use style="stroke:#000000;stroke-width:0.8;" x="249.146182" xlink:href="#mb823ec41b9" y="307.584"/>
      </g>
     </g>
     <g id="text_19">
      <!-- &gt; -->
      <g transform="translate(244.956338 322.182437)scale(0.1 -0.1)">
       <use xlink:href="#DejaVuSans-62"/>
      </g>
     </g>
    </g>
    <g id="xtick_20">
     <g id="line2d_20">
      <g>
       <use style="stroke:#000000;stroke-width:0.8;" x="258.885818" xlink:href="#mb823ec41b9" y="307.584"/>
      </g>
     </g>
     <g id="text_20">
      <!-- &gt; -->
      <g transform="translate(254.695974 322.182437)scale(0.1 -0.1)">
       <use xlink:href="#DejaVuSans-62"/>
      </g>
     </g>
    </g>
    <g id="xtick_21">
     <g id="line2d_21">
      <g>
       <use style="stroke:#000000;stroke-width:0.8;" x="268.625455" xlink:href="#mb823ec41b9" y="307.584"/>
      </g>
     </g>
     <g id="text_21">
      <!-- &gt; -->
      <g transform="translate(264.435611 322.182437)scale(0.1 -0.1)">
       <use xlink:href="#DejaVuSans-62"/>
      </g>
     </g>
    </g>
    <g id="xtick_22">
     <g id="line2d_22">
      <g>
       <use style="stroke:#000000;stroke-width:0.8;" x="278.365091" xlink:href="#mb823ec41b9" y="307.584"/>
      </g>
     </g>
     <g id="text_22">
      <!-- &gt; -->
      <g transform="translate(274.175247 322.182437)scale(0.1 -0.1)">
       <use xlink:href="#DejaVuSans-62"/>
      </g>
     </g>
    </g>
    <g id="xtick_23">
     <g id="line2d_23">
      <g>
       <use style="stroke:#000000;stroke-width:0.8;" x="288.104727" xlink:href="#mb823ec41b9" y="307.584"/>
      </g>
     </g>
     <g id="text_23">
      <!-- &gt; -->
      <g transform="translate(283.914884 322.182437)scale(0.1 -0.1)">
       <use xlink:href="#DejaVuSans-62"/>
      </g>
     </g>
    </g>
    <g id="xtick_24">
     <g id="line2d_24">
      <g>
       <use style="stroke:#000000;stroke-width:0.8;" x="297.844364" xlink:href="#mb823ec41b9" y="307.584"/>
      </g>
     </g>
     <g id="text_24">
      <!-- &gt; -->
      <g transform="translate(293.65452 322.182437)scale(0.1 -0.1)">
       <use xlink:href="#DejaVuSans-62"/>
      </g>
     </g>
    </g>
    <g id="xtick_25">
     <g id="line2d_25">
      <g>
       <use style="stroke:#000000;stroke-width:0.8;" x="307.584" xlink:href="#mb823ec41b9" y="307.584"/>
      </g>
     </g>
     <g id="text_25">
      <!-- &gt; -->
      <g transform="translate(303.394156 322.182437)scale(0.1 -0.1)">
       <use xlink:href="#DejaVuSans-62"/>
      </g>
     </g>
    </g>
    <g id="xtick_26">
     <g id="line2d_26">
      <g>
       <use style="stroke:#000000;stroke-width:0.8;" x="317.323636" xlink:href="#mb823ec41b9" y="307.584"/>
      </g>
     </g>
     <g id="text_26">
      <!-- &gt; -->
      <g transform="translate(313.133793 322.182437)scale(0.1 -0.1)">
       <use xlink:href="#DejaVuSans-62"/>
      </g>
     </g>
    </g>
    <g id="xtick_27">
     <g id="line2d_27">
      <g>
       <use style="stroke:#000000;stroke-width:0.8;" x="327.063273" xlink:href="#mb823ec41b9" y="307.584"/>
      </g>
     </g>
     <g id="text_27">
      <!-- &gt; -->
      <g transform="translate(322.873429 322.182437)scale(0.1 -0.1)">
       <use xlink:href="#DejaVuSans-62"/>
      </g>
     </g>
    </g>
    <g id="xtick_28">
     <g id="line2d_28">
      <g>
       <use style="stroke:#000000;stroke-width:0.8;" x="336.802909" xlink:href="#mb823ec41b9" y="307.584"/>
      </g>
     </g>
     <g id="text_28">
      <!-- &gt; -->
      <g transform="translate(332.613065 322.182437)scale(0.1 -0.1)">
       <use xlink:href="#DejaVuSans-62"/>
      </g>
     </g>
    </g>
    <g id="xtick_29">
     <g id="line2d_29">
      <g>
       <use style="stroke:#000000;stroke-width:0.8;" x="346.542545" xlink:href="#mb823ec41b9" y="307.584"/>
      </g>
     </g>
     <g id="text_29">
      <!-- &gt; -->
      <g transform="translate(342.352702 322.182437)scale(0.1 -0.1)">
       <use xlink:href="#DejaVuSans-62"/>
      </g>
     </g>
    </g>
    <g id="xtick_30">
     <g id="line2d_30">
      <g>
       <use style="stroke:#000000;stroke-width:0.8;" x="356.282182" xlink:href="#mb823ec41b9" y="307.584"/>
      </g>
     </g>
     <g id="text_30">
      <!-- &gt; -->
      <g transform="translate(352.092338 322.182437)scale(0.1 -0.1)">
       <use xlink:href="#DejaVuSans-62"/>
      </g>
     </g>
    </g>
    <g id="xtick_31">
     <g id="line2d_31">
      <g>
       <use style="stroke:#000000;stroke-width:0.8;" x="366.021818" xlink:href="#mb823ec41b9" y="307.584"/>
      </g>
     </g>
     <g id="text_31">
      <!-- &gt; -->
      <g transform="translate(361.831974 322.182437)scale(0.1 -0.1)">
       <use xlink:href="#DejaVuSans-62"/>
      </g>
     </g>
    </g>
    <g id="xtick_32">
     <g id="line2d_32">
      <g>
       <use style="stroke:#000000;stroke-width:0.8;" x="375.761455" xlink:href="#mb823ec41b9" y="307.584"/>
      </g>
     </g>
     <g id="text_32">
      <!-- &gt; -->
      <g transform="translate(371.571611 322.182437)scale(0.1 -0.1)">
       <use xlink:href="#DejaVuSans-62"/>
      </g>
     </g>
    </g>
    <g id="xtick_33">
     <g id="line2d_33">
      <g>
       <use style="stroke:#000000;stroke-width:0.8;" x="385.501091" xlink:href="#mb823ec41b9" y="307.584"/>
      </g>
     </g>
     <g id="text_33">
      <!-- &gt; -->
      <g transform="translate(381.311247 322.182437)scale(0.1 -0.1)">
       <use xlink:href="#DejaVuSans-62"/>
      </g>
     </g>
    </g>
    <g id="xtick_34">
     <g id="line2d_34">
      <g>
       <use style="stroke:#000000;stroke-width:0.8;" x="395.240727" xlink:href="#mb823ec41b9" y="307.584"/>
      </g>
     </g>
     <g id="text_34">
      <!-- &gt; -->
      <g transform="translate(391.050884 322.182437)scale(0.1 -0.1)">
       <use xlink:href="#DejaVuSans-62"/>
      </g>
     </g>
    </g>
    <g id="text_35">
     <!-- Greedy action according to policy at each state x -->
     <g transform="translate(113.009219 335.860562)scale(0.1 -0.1)">
      <defs>
       <path d="M 59.515625 10.40625  L 59.515625 29.984375  L 43.40625 29.984375  L 43.40625 38.09375  L 69.28125 38.09375  L 69.28125 6.78125  Q 63.578125 2.734375 56.6875 0.65625  Q 49.8125 -1.421875 42 -1.421875  Q 24.90625 -1.421875 15.25 8.5625  Q 5.609375 18.5625 5.609375 36.375  Q 5.609375 54.25 15.25 64.234375  Q 24.90625 74.21875 42 74.21875  Q 49.125 74.21875 55.546875 72.453125  Q 61.96875 70.703125 67.390625 67.28125  L 67.390625 56.78125  Q 61.921875 61.421875 55.765625 63.765625  Q 49.609375 66.109375 42.828125 66.109375  Q 29.4375 66.109375 22.71875 58.640625  Q 16.015625 51.171875 16.015625 36.375  Q 16.015625 21.625 22.71875 14.15625  Q 29.4375 6.6875 42.828125 6.6875  Q 48.046875 6.6875 52.140625 7.59375  Q 56.25 8.5 59.515625 10.40625  z " id="DejaVuSans-71"/>
       <path d="M 41.109375 46.296875  Q 39.59375 47.171875 37.8125 47.578125  Q 36.03125 48 33.890625 48  Q 26.265625 48 22.1875 43.046875  Q 18.109375 38.09375 18.109375 28.8125  L 18.109375 0  L 9.078125 0  L 9.078125 54.6875  L 18.109375 54.6875  L 18.109375 46.1875  Q 20.953125 51.171875 25.484375 53.578125  Q 30.03125 56 36.53125 56  Q 37.453125 56 38.578125 55.875  Q 39.703125 55.765625 41.0625 55.515625  z " id="DejaVuSans-114"/>
       <path d="M 56.203125 29.59375  L 56.203125 25.203125  L 14.890625 25.203125  Q 15.484375 15.921875 20.484375 11.0625  Q 25.484375 6.203125 34.421875 6.203125  Q 39.59375 6.203125 44.453125 7.46875  Q 49.3125 8.734375 54.109375 11.28125  L 54.109375 2.78125  Q 49.265625 0.734375 44.1875 -0.34375  Q 39.109375 -1.421875 33.890625 -1.421875  Q 20.796875 -1.421875 13.15625 6.1875  Q 5.515625 13.8125 5.515625 26.8125  Q 5.515625 40.234375 12.765625 48.109375  Q 20.015625 56 32.328125 56  Q 43.359375 56 49.78125 48.890625  Q 56.203125 41.796875 56.203125 29.59375  z M 47.21875 32.234375  Q 47.125 39.59375 43.09375 43.984375  Q 39.0625 48.390625 32.421875 48.390625  Q 24.90625 48.390625 20.390625 44.140625  Q 15.875 39.890625 15.1875 32.171875  z " id="DejaVuSans-101"/>
       <path d="M 45.40625 46.390625  L 45.40625 75.984375  L 54.390625 75.984375  L 54.390625 0  L 45.40625 0  L 45.40625 8.203125  Q 42.578125 3.328125 38.25 0.953125  Q 33.9375 -1.421875 27.875 -1.421875  Q 17.96875 -1.421875 11.734375 6.484375  Q 5.515625 14.40625 5.515625 27.296875  Q 5.515625 40.1875 11.734375 48.09375  Q 17.96875 56 27.875 56  Q 33.9375 56 38.25 53.625  Q 42.578125 51.265625 45.40625 46.390625  z M 14.796875 27.296875  Q 14.796875 17.390625 18.875 11.75  Q 22.953125 6.109375 30.078125 6.109375  Q 37.203125 6.109375 41.296875 11.75  Q 45.40625 17.390625 45.40625 27.296875  Q 45.40625 37.203125 41.296875 42.84375  Q 37.203125 48.484375 30.078125 48.484375  Q 22.953125 48.484375 18.875 42.84375  Q 14.796875 37.203125 14.796875 27.296875  z " id="DejaVuSans-100"/>
       <path d="M 32.171875 -5.078125  Q 28.375 -14.84375 24.75 -17.8125  Q 21.140625 -20.796875 15.09375 -20.796875  L 7.90625 -20.796875  L 7.90625 -13.28125  L 13.1875 -13.28125  Q 16.890625 -13.28125 18.9375 -11.515625  Q 21 -9.765625 23.484375 -3.21875  L 25.09375 0.875  L 2.984375 54.6875  L 12.5 54.6875  L 29.59375 11.921875  L 46.6875 54.6875  L 56.203125 54.6875  z " id="DejaVuSans-121"/>
       <path id="DejaVuSans-32"/>
       <path d="M 34.28125 27.484375  Q 23.390625 27.484375 19.1875 25  Q 14.984375 22.515625 14.984375 16.5  Q 14.984375 11.71875 18.140625 8.90625  Q 21.296875 6.109375 26.703125 6.109375  Q 34.1875 6.109375 38.703125 11.40625  Q 43.21875 16.703125 43.21875 25.484375  L 43.21875 27.484375  z M 52.203125 31.203125  L 52.203125 0  L 43.21875 0  L 43.21875 8.296875  Q 40.140625 3.328125 35.546875 0.953125  Q 30.953125 -1.421875 24.3125 -1.421875  Q 15.921875 -1.421875 10.953125 3.296875  Q 6 8.015625 6 15.921875  Q 6 25.140625 12.171875 29.828125  Q 18.359375 34.515625 30.609375 34.515625  L 43.21875 34.515625  L 43.21875 35.40625  Q 43.21875 41.609375 39.140625 45  Q 35.0625 48.390625 27.6875 48.390625  Q 23 48.390625 18.546875 47.265625  Q 14.109375 46.140625 10.015625 43.890625  L 10.015625 52.203125  Q 14.9375 54.109375 19.578125 55.046875  Q 24.21875 56 28.609375 56  Q 40.484375 56 46.34375 49.84375  Q 52.203125 43.703125 52.203125 31.203125  z " id="DejaVuSans-97"/>
       <path d="M 48.78125 52.59375  L 48.78125 44.1875  Q 44.96875 46.296875 41.140625 47.34375  Q 37.3125 48.390625 33.40625 48.390625  Q 24.65625 48.390625 19.8125 42.84375  Q 14.984375 37.3125 14.984375 27.296875  Q 14.984375 17.28125 19.8125 11.734375  Q 24.65625 6.203125 33.40625 6.203125  Q 37.3125 6.203125 41.140625 7.25  Q 44.96875 8.296875 48.78125 10.40625  L 48.78125 2.09375  Q 45.015625 0.34375 40.984375 -0.53125  Q 36.96875 -1.421875 32.421875 -1.421875  Q 20.0625 -1.421875 12.78125 6.34375  Q 5.515625 14.109375 5.515625 27.296875  Q 5.515625 40.671875 12.859375 48.328125  Q 20.21875 56 33.015625 56  Q 37.15625 56 41.109375 55.140625  Q 45.0625 54.296875 48.78125 52.59375  z " id="DejaVuSans-99"/>
       <path d="M 18.3125 70.21875  L 18.3125 54.6875  L 36.8125 54.6875  L 36.8125 47.703125  L 18.3125 47.703125  L 18.3125 18.015625  Q 18.3125 11.328125 20.140625 9.421875  Q 21.96875 7.515625 27.59375 7.515625  L 36.8125 7.515625  L 36.8125 0  L 27.59375 0  Q 17.1875 0 13.234375 3.875  Q 9.28125 7.765625 9.28125 18.015625  L 9.28125 47.703125  L 2.6875 47.703125  L 2.6875 54.6875  L 9.28125 54.6875  L 9.28125 70.21875  z " id="DejaVuSans-116"/>
       <path d="M 9.421875 54.6875  L 18.40625 54.6875  L 18.40625 0  L 9.421875 0  z M 9.421875 75.984375  L 18.40625 75.984375  L 18.40625 64.59375  L 9.421875 64.59375  z " id="DejaVuSans-105"/>
       <path d="M 30.609375 48.390625  Q 23.390625 48.390625 19.1875 42.75  Q 14.984375 37.109375 14.984375 27.296875  Q 14.984375 17.484375 19.15625 11.84375  Q 23.34375 6.203125 30.609375 6.203125  Q 37.796875 6.203125 41.984375 11.859375  Q 46.1875 17.53125 46.1875 27.296875  Q 46.1875 37.015625 41.984375 42.703125  Q 37.796875 48.390625 30.609375 48.390625  z M 30.609375 56  Q 42.328125 56 49.015625 48.375  Q 55.71875 40.765625 55.71875 27.296875  Q 55.71875 13.875 49.015625 6.21875  Q 42.328125 -1.421875 30.609375 -1.421875  Q 18.84375 -1.421875 12.171875 6.21875  Q 5.515625 13.875 5.515625 27.296875  Q 5.515625 40.765625 12.171875 48.375  Q 18.84375 56 30.609375 56  z " id="DejaVuSans-111"/>
       <path d="M 54.890625 33.015625  L 54.890625 0  L 45.90625 0  L 45.90625 32.71875  Q 45.90625 40.484375 42.875 44.328125  Q 39.84375 48.1875 33.796875 48.1875  Q 26.515625 48.1875 22.3125 43.546875  Q 18.109375 38.921875 18.109375 30.90625  L 18.109375 0  L 9.078125 0  L 9.078125 54.6875  L 18.109375 54.6875  L 18.109375 46.1875  Q 21.34375 51.125 25.703125 53.5625  Q 30.078125 56 35.796875 56  Q 45.21875 56 50.046875 50.171875  Q 54.890625 44.34375 54.890625 33.015625  z " id="DejaVuSans-110"/>
       <path d="M 45.40625 27.984375  Q 45.40625 37.75 41.375 43.109375  Q 37.359375 48.484375 30.078125 48.484375  Q 22.859375 48.484375 18.828125 43.109375  Q 14.796875 37.75 14.796875 27.984375  Q 14.796875 18.265625 18.828125 12.890625  Q 22.859375 7.515625 30.078125 7.515625  Q 37.359375 7.515625 41.375 12.890625  Q 45.40625 18.265625 45.40625 27.984375  z M 54.390625 6.78125  Q 54.390625 -7.171875 48.1875 -13.984375  Q 42 -20.796875 29.203125 -20.796875  Q 24.46875 -20.796875 20.265625 -20.09375  Q 16.0625 -19.390625 12.109375 -17.921875  L 12.109375 -9.1875  Q 16.0625 -11.328125 19.921875 -12.34375  Q 23.78125 -13.375 27.78125 -13.375  Q 36.625 -13.375 41.015625 -8.765625  Q 45.40625 -4.15625 45.40625 5.171875  L 45.40625 9.625  Q 42.625 4.78125 38.28125 2.390625  Q 33.9375 0 27.875 0  Q 17.828125 0 11.671875 7.65625  Q 5.515625 15.328125 5.515625 27.984375  Q 5.515625 40.671875 11.671875 48.328125  Q 17.828125 56 27.875 56  Q 33.9375 56 38.28125 53.609375  Q 42.625 51.21875 45.40625 46.390625  L 45.40625 54.6875  L 54.390625 54.6875  z " id="DejaVuSans-103"/>
       <path d="M 18.109375 8.203125  L 18.109375 -20.796875  L 9.078125 -20.796875  L 9.078125 54.6875  L 18.109375 54.6875  L 18.109375 46.390625  Q 20.953125 51.265625 25.265625 53.625  Q 29.59375 56 35.59375 56  Q 45.5625 56 51.78125 48.09375  Q 58.015625 40.1875 58.015625 27.296875  Q 58.015625 14.40625 51.78125 6.484375  Q 45.5625 -1.421875 35.59375 -1.421875  Q 29.59375 -1.421875 25.265625 0.953125  Q 20.953125 3.328125 18.109375 8.203125  z M 48.6875 27.296875  Q 48.6875 37.203125 44.609375 42.84375  Q 40.53125 48.484375 33.40625 48.484375  Q 26.265625 48.484375 22.1875 42.84375  Q 18.109375 37.203125 18.109375 27.296875  Q 18.109375 17.390625 22.1875 11.75  Q 26.265625 6.109375 33.40625 6.109375  Q 40.53125 6.109375 44.609375 11.75  Q 48.6875 17.390625 48.6875 27.296875  z " id="DejaVuSans-112"/>
       <path d="M 9.421875 75.984375  L 18.40625 75.984375  L 18.40625 0  L 9.421875 0  z " id="DejaVuSans-108"/>
       <path d="M 54.890625 33.015625  L 54.890625 0  L 45.90625 0  L 45.90625 32.71875  Q 45.90625 40.484375 42.875 44.328125  Q 39.84375 48.1875 33.796875 48.1875  Q 26.515625 48.1875 22.3125 43.546875  Q 18.109375 38.921875 18.109375 30.90625  L 18.109375 0  L 9.078125 0  L 9.078125 75.984375  L 18.109375 75.984375  L 18.109375 46.1875  Q 21.34375 51.125 25.703125 53.5625  Q 30.078125 56 35.796875 56  Q 45.21875 56 50.046875 50.171875  Q 54.890625 44.34375 54.890625 33.015625  z " id="DejaVuSans-104"/>
       <path d="M 44.28125 53.078125  L 44.28125 44.578125  Q 40.484375 46.53125 36.375 47.5  Q 32.28125 48.484375 27.875 48.484375  Q 21.1875 48.484375 17.84375 46.4375  Q 14.5 44.390625 14.5 40.28125  Q 14.5 37.15625 16.890625 35.375  Q 19.28125 33.59375 26.515625 31.984375  L 29.59375 31.296875  Q 39.15625 29.25 43.1875 25.515625  Q 47.21875 21.78125 47.21875 15.09375  Q 47.21875 7.46875 41.1875 3.015625  Q 35.15625 -1.421875 24.609375 -1.421875  Q 20.21875 -1.421875 15.453125 -0.5625  Q 10.6875 0.296875 5.421875 2  L 5.421875 11.28125  Q 10.40625 8.6875 15.234375 7.390625  Q 20.0625 6.109375 24.8125 6.109375  Q 31.15625 6.109375 34.5625 8.28125  Q 37.984375 10.453125 37.984375 14.40625  Q 37.984375 18.0625 35.515625 20.015625  Q 33.0625 21.96875 24.703125 23.78125  L 21.578125 24.515625  Q 13.234375 26.265625 9.515625 29.90625  Q 5.8125 33.546875 5.8125 39.890625  Q 5.8125 47.609375 11.28125 51.796875  Q 16.75 56 26.8125 56  Q 31.78125 56 36.171875 55.265625  Q 40.578125 54.546875 44.28125 53.078125  z " id="DejaVuSans-115"/>
       <path d="M 54.890625 54.6875  L 35.109375 28.078125  L 55.90625 0  L 45.3125 0  L 29.390625 21.484375  L 13.484375 0  L 2.875 0  L 24.125 28.609375  L 4.6875 54.6875  L 15.28125 54.6875  L 29.78125 35.203125  L 44.28125 54.6875  z " id="DejaVuSans-120"/>
      </defs>
      <use xlink:href="#DejaVuSans-71"/>
      <use x="77.490234" xlink:href="#DejaVuSans-114"/>
      <use x="116.353516" xlink:href="#DejaVuSans-101"/>
      <use x="177.876953" xlink:href="#DejaVuSans-101"/>
      <use x="239.400391" xlink:href="#DejaVuSans-100"/>
      <use x="302.876953" xlink:href="#DejaVuSans-121"/>
      <use x="362.056641" xlink:href="#DejaVuSans-32"/>
      <use x="393.84375" xlink:href="#DejaVuSans-97"/>
      <use x="455.123047" xlink:href="#DejaVuSans-99"/>
      <use x="510.103516" xlink:href="#DejaVuSans-116"/>
      <use x="549.3125" xlink:href="#DejaVuSans-105"/>
      <use x="577.095703" xlink:href="#DejaVuSans-111"/>
      <use x="638.277344" xlink:href="#DejaVuSans-110"/>
      <use x="701.65625" xlink:href="#DejaVuSans-32"/>
      <use x="733.443359" xlink:href="#DejaVuSans-97"/>
      <use x="794.722656" xlink:href="#DejaVuSans-99"/>
      <use x="849.703125" xlink:href="#DejaVuSans-99"/>
      <use x="904.683594" xlink:href="#DejaVuSans-111"/>
      <use x="965.865234" xlink:href="#DejaVuSans-114"/>
      <use x="1005.228516" xlink:href="#DejaVuSans-100"/>
      <use x="1068.705078" xlink:href="#DejaVuSans-105"/>
      <use x="1096.488281" xlink:href="#DejaVuSans-110"/>
      <use x="1159.867188" xlink:href="#DejaVuSans-103"/>
      <use x="1223.34375" xlink:href="#DejaVuSans-32"/>
      <use x="1255.130859" xlink:href="#DejaVuSans-116"/>
      <use x="1294.339844" xlink:href="#DejaVuSans-111"/>
      <use x="1355.521484" xlink:href="#DejaVuSans-32"/>
      <use x="1387.308594" xlink:href="#DejaVuSans-112"/>
      <use x="1450.785156" xlink:href="#DejaVuSans-111"/>
      <use x="1511.966797" xlink:href="#DejaVuSans-108"/>
      <use x="1539.75" xlink:href="#DejaVuSans-105"/>
      <use x="1567.533203" xlink:href="#DejaVuSans-99"/>
      <use x="1622.513672" xlink:href="#DejaVuSans-121"/>
      <use x="1681.693359" xlink:href="#DejaVuSans-32"/>
      <use x="1713.480469" xlink:href="#DejaVuSans-97"/>
      <use x="1774.759766" xlink:href="#DejaVuSans-116"/>
      <use x="1813.96875" xlink:href="#DejaVuSans-32"/>
      <use x="1845.755859" xlink:href="#DejaVuSans-101"/>
      <use x="1907.279297" xlink:href="#DejaVuSans-97"/>
      <use x="1968.558594" xlink:href="#DejaVuSans-99"/>
      <use x="2023.539062" xlink:href="#DejaVuSans-104"/>
      <use x="2086.917969" xlink:href="#DejaVuSans-32"/>
      <use x="2118.705078" xlink:href="#DejaVuSans-115"/>
      <use x="2170.804688" xlink:href="#DejaVuSans-116"/>
      <use x="2210.013672" xlink:href="#DejaVuSans-97"/>
      <use x="2271.292969" xlink:href="#DejaVuSans-116"/>
      <use x="2310.501953" xlink:href="#DejaVuSans-101"/>
      <use x="2372.025391" xlink:href="#DejaVuSans-32"/>
      <use x="2403.8125" xlink:href="#DejaVuSans-120"/>
     </g>
    </g>
   </g>
   <g id="matplotlib.axis_2">
    <g id="ytick_1">
     <g id="line2d_35">
      <defs>
       <path d="M 0 0  L -3.5 0  " id="m3dad61661e" style="stroke:#000000;stroke-width:0.8;"/>
      </defs>
      <g>
       <use style="stroke:#000000;stroke-width:0.8;" x="57.6" xlink:href="#m3dad61661e" y="274.459205"/>
      </g>
     </g>
     <g id="text_36">
      <!-- 0.0 -->
      <g transform="translate(34.696875 278.258424)scale(0.1 -0.1)">
       <defs>
        <path d="M 31.78125 66.40625  Q 24.171875 66.40625 20.328125 58.90625  Q 16.5 51.421875 16.5 36.375  Q 16.5 21.390625 20.328125 13.890625  Q 24.171875 6.390625 31.78125 6.390625  Q 39.453125 6.390625 43.28125 13.890625  Q 47.125 21.390625 47.125 36.375  Q 47.125 51.421875 43.28125 58.90625  Q 39.453125 66.40625 31.78125 66.40625  z M 31.78125 74.21875  Q 44.046875 74.21875 50.515625 64.515625  Q 56.984375 54.828125 56.984375 36.375  Q 56.984375 17.96875 50.515625 8.265625  Q 44.046875 -1.421875 31.78125 -1.421875  Q 19.53125 -1.421875 13.0625 8.265625  Q 6.59375 17.96875 6.59375 36.375  Q 6.59375 54.828125 13.0625 64.515625  Q 19.53125 74.21875 31.78125 74.21875  z " id="DejaVuSans-48"/>
        <path d="M 10.6875 12.40625  L 21 12.40625  L 21 0  L 10.6875 0  z " id="DejaVuSans-46"/>
       </defs>
       <use xlink:href="#DejaVuSans-48"/>
       <use x="63.623047" xlink:href="#DejaVuSans-46"/>
       <use x="95.410156" xlink:href="#DejaVuSans-48"/>
      </g>
     </g>
    </g>
    <g id="ytick_2">
     <g id="line2d_36">
      <g>
       <use style="stroke:#000000;stroke-width:0.8;" x="57.6" xlink:href="#m3dad61661e" y="241.180966"/>
      </g>
     </g>
     <g id="text_37">
      <!-- 0.5 -->
      <g transform="translate(34.696875 244.980185)scale(0.1 -0.1)">
       <defs>
        <path d="M 10.796875 72.90625  L 49.515625 72.90625  L 49.515625 64.59375  L 19.828125 64.59375  L 19.828125 46.734375  Q 21.96875 47.46875 24.109375 47.828125  Q 26.265625 48.1875 28.421875 48.1875  Q 40.625 48.1875 47.75 41.5  Q 54.890625 34.8125 54.890625 23.390625  Q 54.890625 11.625 47.5625 5.09375  Q 40.234375 -1.421875 26.90625 -1.421875  Q 22.3125 -1.421875 17.546875 -0.640625  Q 12.796875 0.140625 7.71875 1.703125  L 7.71875 11.625  Q 12.109375 9.234375 16.796875 8.0625  Q 21.484375 6.890625 26.703125 6.890625  Q 35.15625 6.890625 40.078125 11.328125  Q 45.015625 15.765625 45.015625 23.390625  Q 45.015625 31 40.078125 35.4375  Q 35.15625 39.890625 26.703125 39.890625  Q 22.75 39.890625 18.8125 39.015625  Q 14.890625 38.140625 10.796875 36.28125  z " id="DejaVuSans-53"/>
       </defs>
       <use xlink:href="#DejaVuSans-48"/>
       <use x="63.623047" xlink:href="#DejaVuSans-46"/>
       <use x="95.410156" xlink:href="#DejaVuSans-53"/>
      </g>
     </g>
    </g>
    <g id="ytick_3">
     <g id="line2d_37">
      <g>
       <use style="stroke:#000000;stroke-width:0.8;" x="57.6" xlink:href="#m3dad61661e" y="207.902728"/>
      </g>
     </g>
     <g id="text_38">
      <!-- 1.0 -->
      <g transform="translate(34.696875 211.701947)scale(0.1 -0.1)">
       <defs>
        <path d="M 12.40625 8.296875  L 28.515625 8.296875  L 28.515625 63.921875  L 10.984375 60.40625  L 10.984375 69.390625  L 28.421875 72.90625  L 38.28125 72.90625  L 38.28125 8.296875  L 54.390625 8.296875  L 54.390625 0  L 12.40625 0  z " id="DejaVuSans-49"/>
       </defs>
       <use xlink:href="#DejaVuSans-49"/>
       <use x="63.623047" xlink:href="#DejaVuSans-46"/>
       <use x="95.410156" xlink:href="#DejaVuSans-48"/>
      </g>
     </g>
    </g>
    <g id="ytick_4">
     <g id="line2d_38">
      <g>
       <use style="stroke:#000000;stroke-width:0.8;" x="57.6" xlink:href="#m3dad61661e" y="174.624489"/>
      </g>
     </g>
     <g id="text_39">
      <!-- 1.5 -->
      <g transform="translate(34.696875 178.423708)scale(0.1 -0.1)">
       <use xlink:href="#DejaVuSans-49"/>
       <use x="63.623047" xlink:href="#DejaVuSans-46"/>
       <use x="95.410156" xlink:href="#DejaVuSans-53"/>
      </g>
     </g>
    </g>
    <g id="ytick_5">
     <g id="line2d_39">
      <g>
       <use style="stroke:#000000;stroke-width:0.8;" x="57.6" xlink:href="#m3dad61661e" y="141.346251"/>
      </g>
     </g>
     <g id="text_40">
      <!-- 2.0 -->
      <g transform="translate(34.696875 145.145469)scale(0.1 -0.1)">
       <defs>
        <path d="M 19.1875 8.296875  L 53.609375 8.296875  L 53.609375 0  L 7.328125 0  L 7.328125 8.296875  Q 12.9375 14.109375 22.625 23.890625  Q 32.328125 33.6875 34.8125 36.53125  Q 39.546875 41.84375 41.421875 45.53125  Q 43.3125 49.21875 43.3125 52.78125  Q 43.3125 58.59375 39.234375 62.25  Q 35.15625 65.921875 28.609375 65.921875  Q 23.96875 65.921875 18.8125 64.3125  Q 13.671875 62.703125 7.8125 59.421875  L 7.8125 69.390625  Q 13.765625 71.78125 18.9375 73  Q 24.125 74.21875 28.421875 74.21875  Q 39.75 74.21875 46.484375 68.546875  Q 53.21875 62.890625 53.21875 53.421875  Q 53.21875 48.921875 51.53125 44.890625  Q 49.859375 40.875 45.40625 35.40625  Q 44.1875 33.984375 37.640625 27.21875  Q 31.109375 20.453125 19.1875 8.296875  z " id="DejaVuSans-50"/>
       </defs>
       <use xlink:href="#DejaVuSans-50"/>
       <use x="63.623047" xlink:href="#DejaVuSans-46"/>
       <use x="95.410156" xlink:href="#DejaVuSans-48"/>
      </g>
     </g>
    </g>
    <g id="ytick_6">
     <g id="line2d_40">
      <g>
       <use style="stroke:#000000;stroke-width:0.8;" x="57.6" xlink:href="#m3dad61661e" y="108.068012"/>
      </g>
     </g>
     <g id="text_41">
      <!-- 2.5 -->
      <g transform="translate(34.696875 111.867231)scale(0.1 -0.1)">
       <use xlink:href="#DejaVuSans-50"/>
       <use x="63.623047" xlink:href="#DejaVuSans-46"/>
       <use x="95.410156" xlink:href="#DejaVuSans-53"/>
      </g>
     </g>
    </g>
    <g id="ytick_7">
     <g id="line2d_41">
      <g>
       <use style="stroke:#000000;stroke-width:0.8;" x="57.6" xlink:href="#m3dad61661e" y="74.789773"/>
      </g>
     </g>
     <g id="text_42">
      <!-- 3.0 -->
      <g transform="translate(34.696875 78.588992)scale(0.1 -0.1)">
       <defs>
        <path d="M 40.578125 39.3125  Q 47.65625 37.796875 51.625 33  Q 55.609375 28.21875 55.609375 21.1875  Q 55.609375 10.40625 48.1875 4.484375  Q 40.765625 -1.421875 27.09375 -1.421875  Q 22.515625 -1.421875 17.65625 -0.515625  Q 12.796875 0.390625 7.625 2.203125  L 7.625 11.71875  Q 11.71875 9.328125 16.59375 8.109375  Q 21.484375 6.890625 26.8125 6.890625  Q 36.078125 6.890625 40.9375 10.546875  Q 45.796875 14.203125 45.796875 21.1875  Q 45.796875 27.640625 41.28125 31.265625  Q 36.765625 34.90625 28.71875 34.90625  L 20.21875 34.90625  L 20.21875 43.015625  L 29.109375 43.015625  Q 36.375 43.015625 40.234375 45.921875  Q 44.09375 48.828125 44.09375 54.296875  Q 44.09375 59.90625 40.109375 62.90625  Q 36.140625 65.921875 28.71875 65.921875  Q 24.65625 65.921875 20.015625 65.03125  Q 15.375 64.15625 9.8125 62.3125  L 9.8125 71.09375  Q 15.4375 72.65625 20.34375 73.4375  Q 25.25 74.21875 29.59375 74.21875  Q 40.828125 74.21875 47.359375 69.109375  Q 53.90625 64.015625 53.90625 55.328125  Q 53.90625 49.265625 50.4375 45.09375  Q 46.96875 40.921875 40.578125 39.3125  z " id="DejaVuSans-51"/>
       </defs>
       <use xlink:href="#DejaVuSans-51"/>
       <use x="63.623047" xlink:href="#DejaVuSans-46"/>
       <use x="95.410156" xlink:href="#DejaVuSans-48"/>
      </g>
     </g>
    </g>
    <g id="ytick_8">
     <g id="line2d_42">
      <g>
       <use style="stroke:#000000;stroke-width:0.8;" x="57.6" xlink:href="#m3dad61661e" y="41.511535"/>
      </g>
     </g>
     <g id="text_43">
      <!-- 3.5 -->
      <g transform="translate(34.696875 45.310754)scale(0.1 -0.1)">
       <use xlink:href="#DejaVuSans-51"/>
       <use x="63.623047" xlink:href="#DejaVuSans-46"/>
       <use x="95.410156" xlink:href="#DejaVuSans-53"/>
      </g>
     </g>
    </g>
    <g id="text_44">
     <!-- Z_x -->
     <g transform="translate(28.339062 183.412375)rotate(-90)scale(0.1 -0.1)">
      <defs>
       <path d="M 5.609375 72.90625  L 62.890625 72.90625  L 62.890625 65.375  L 16.796875 8.296875  L 64.015625 8.296875  L 64.015625 0  L 4.5 0  L 4.5 7.515625  L 50.59375 64.59375  L 5.609375 64.59375  z " id="DejaVuSans-90"/>
       <path d="M 50.984375 -16.609375  L 50.984375 -23.578125  L -0.984375 -23.578125  L -0.984375 -16.609375  z " id="DejaVuSans-95"/>
      </defs>
      <use xlink:href="#DejaVuSans-90"/>
      <use x="68.505859" xlink:href="#DejaVuSans-95"/>
      <use x="118.505859" xlink:href="#DejaVuSans-120"/>
     </g>
    </g>
   </g>
   <g id="line2d_43">
    <path clip-path="url(#p7efbe01194)" d="M 73.832727 207.902728  L 89.756724 211.719334  L 106.33068 215.459463  L 123.229615 219.043457  L 140.778509 222.535044  L 142.728387 222.900401  L 160.277281 219.433382  L 177.501196 215.803959  L 194.075152 212.085668  L 210.324128 208.211555  L 225.923145 204.266209  L 241.197183 200.175478  L 256.146241 195.941033  L 270.770319 191.56517  L 285.069419 187.050845  L 299.043538 182.401686  L 312.692678 177.62202  L 326.016839 172.716883  L 339.01602 167.692035  L 351.690221 162.553967  L 364.039443 157.309906  L 376.063686 151.967812  L 388.087928 146.382114  L 398.487273 141.346251  L 398.487273 141.346251  " style="fill:none;stroke:#0000ff;stroke-dasharray:5.55,2.4;stroke-dashoffset:0;stroke-opacity:0.8;stroke-width:1.5;"/>
   </g>
   <g id="line2d_44">
    <path clip-path="url(#p7efbe01194)" d="M 73.832727 206.74024  L 83.572364 212.58584  L 93.312 215.840564  L 103.051636 217.535477  L 112.791273 218.745173  L 122.530909 219.844711  L 132.270545 209.102161  L 142.010182 209.700979  L 151.749818 208.355903  L 161.489455 206.865679  L 171.229091 205.252642  L 180.968727 203.554647  L 190.708364 201.676887  L 200.448 199.925693  L 210.187636 197.848065  L 219.927273 195.685961  L 229.666909 193.326543  L 239.406545 191.123817  L 249.146182 188.686739  L 258.885818 186.216926  L 268.625455 183.7505  L 278.365091 181.611913  L 288.104727 179.959436  L 297.844364 178.420393  L 307.584 176.800954  L 317.323636 174.79109  L 327.063273 172.212063  L 336.802909 168.924834  L 346.542545 164.896443  L 356.282182 160.132533  L 366.021818 154.772967  L 375.761455 149.09325  L 385.501091 142.896417  L 395.240727 132.453226  " style="fill:none;stroke:#ffff00;stroke-linecap:square;stroke-opacity:0.6;stroke-width:1.5;"/>
   </g>
   <g id="patch_3">
    <path d="M 57.6 307.584  L 57.6 41.472  " style="fill:none;stroke:#000000;stroke-linecap:square;stroke-linejoin:miter;stroke-width:0.8;"/>
   </g>
   <g id="patch_4">
    <path d="M 414.72 307.584  L 414.72 41.472  " style="fill:none;stroke:#000000;stroke-linecap:square;stroke-linejoin:miter;stroke-width:0.8;"/>
   </g>
   <g id="patch_5">
    <path d="M 57.6 307.584  L 414.72 307.584  " style="fill:none;stroke:#000000;stroke-linecap:square;stroke-linejoin:miter;stroke-width:0.8;"/>
   </g>
   <g id="patch_6">
    <path d="M 57.6 41.472  L 414.72 41.472  " style="fill:none;stroke:#000000;stroke-linecap:square;stroke-linejoin:miter;stroke-width:0.8;"/>
   </g>
   <g id="legend_1">
    <g id="patch_7">
     <path d="M 335.52 78.82825  L 407.72 78.82825  Q 409.72 78.82825 409.72 76.82825  L 409.72 48.472  Q 409.72 46.472 407.72 46.472  L 335.52 46.472  Q 333.52 46.472 333.52 48.472  L 333.52 76.82825  Q 333.52 78.82825 335.52 78.82825  z " style="fill:#ffffff;opacity:0.8;stroke:#cccccc;stroke-linejoin:miter;"/>
    </g>
    <g id="line2d_45">
     <path d="M 337.52 54.570437  L 357.52 54.570437  " style="fill:none;stroke:#0000ff;stroke-dasharray:5.55,2.4;stroke-dashoffset:0;stroke-opacity:0.8;stroke-width:1.5;"/>
    </g>
    <g id="line2d_46"/>
    <g id="text_45">
     <!-- Analytic -->
     <g transform="translate(365.52 58.070437)scale(0.1 -0.1)">
      <defs>
       <path d="M 34.1875 63.1875  L 20.796875 26.90625  L 47.609375 26.90625  z M 28.609375 72.90625  L 39.796875 72.90625  L 67.578125 0  L 57.328125 0  L 50.6875 18.703125  L 17.828125 18.703125  L 11.1875 0  L 0.78125 0  z " id="DejaVuSans-65"/>
      </defs>
      <use xlink:href="#DejaVuSans-65"/>
      <use x="68.408203" xlink:href="#DejaVuSans-110"/>
      <use x="131.787109" xlink:href="#DejaVuSans-97"/>
      <use x="193.066406" xlink:href="#DejaVuSans-108"/>
      <use x="220.849609" xlink:href="#DejaVuSans-121"/>
      <use x="280.029297" xlink:href="#DejaVuSans-116"/>
      <use x="319.238281" xlink:href="#DejaVuSans-105"/>
      <use x="347.021484" xlink:href="#DejaVuSans-99"/>
     </g>
    </g>
    <g id="line2d_47">
     <path d="M 337.52 69.248562  L 357.52 69.248562  " style="fill:none;stroke:#ffff00;stroke-linecap:square;stroke-opacity:0.6;stroke-width:1.5;"/>
    </g>
    <g id="line2d_48"/>
    <g id="text_46">
     <!-- Median -->
     <g transform="translate(365.52 72.748562)scale(0.1 -0.1)">
      <defs>
       <path d="M 9.8125 72.90625  L 24.515625 72.90625  L 43.109375 23.296875  L 61.8125 72.90625  L 76.515625 72.90625  L 76.515625 0  L 66.890625 0  L 66.890625 64.015625  L 48.09375 14.015625  L 38.1875 14.015625  L 19.390625 64.015625  L 19.390625 0  L 9.8125 0  z " id="DejaVuSans-77"/>
      </defs>
      <use xlink:href="#DejaVuSans-77"/>
      <use x="86.279297" xlink:href="#DejaVuSans-101"/>
      <use x="147.802734" xlink:href="#DejaVuSans-100"/>
      <use x="211.279297" xlink:href="#DejaVuSans-105"/>
      <use x="239.0625" xlink:href="#DejaVuSans-97"/>
      <use x="300.341797" xlink:href="#DejaVuSans-110"/>
     </g>
    </g>
   </g>
  </g>
 </g>
 <defs>
  <clipPath id="p7efbe01194">
   <rect height="266.112" width="357.12" x="57.6" y="41.472"/>
  </clipPath>
 </defs>
</svg>